ScheherazadeReg.ufo
<glyph name="exclam" format="2">
  <unicode hex="0021"/>
  <advance width="555"/>
  <outline>
    <contour>
      <point x="362" y="838" type="curve" smooth="yes"/>
      <point x="362" y="932"/>
      <point x="326" y="981"/>
      <point x="276" y="981" type="curve" smooth="yes"/>
      <point x="229" y="981"/>
      <point x="193" y="932"/>
      <point x="193" y="838" type="curve" smooth="yes"/>
      <point x="193" y="750"/>
      <point x="207" y="666"/>
      <point x="227" y="555" type="curve" smooth="yes"/>
      <point x="252" y="418"/>
      <point x="256" y="449"/>
      <point x="256" y="174" type="curve" smooth="yes" name="hr01"/>
      <point x="256" y="167"/>
      <point x="266" y="163"/>
      <point x="277" y="163" type="curve" smooth="yes"/>
      <point x="288" y="163"/>
      <point x="299" y="167"/>
      <point x="299" y="174" type="curve" smooth="yes"/>
      <point x="299" y="449"/>
      <point x="303" y="418"/>
      <point x="328" y="555" type="curve" smooth="yes"/>
      <point x="348" y="666"/>
      <point x="362" y="750"/>
    </contour>
    <contour>
      <point x="365" y="14" type="curve" smooth="yes"/>
      <point x="365" y="63"/>
      <point x="326" y="102"/>
      <point x="276" y="102" type="curve" smooth="yes"/>
      <point x="229" y="102"/>
      <point x="190" y="63"/>
      <point x="190" y="14" type="curve" smooth="yes"/>
      <point x="190" y="-33"/>
      <point x="229" y="-72"/>
      <point x="276" y="-72" type="curve" smooth="yes"/>
      <point x="326" y="-72"/>
      <point x="365" y="-33"/>
    </contour>
  </outline>
</glyph>
<glyph name="quotedbl" format="2">
  <unicode hex="0022"/>
  <advance width="629"/>
  <outline>
    <contour>
      <point x="528" y="965" type="curve" smooth="yes"/>
      <point x="528" y="1010"/>
      <point x="500" y="1044"/>
      <point x="453" y="1044" type="curve" smooth="yes"/>
      <point x="395" y="1044"/>
      <point x="375" y="1008"/>
      <point x="375" y="954" type="curve" smooth="yes"/>
      <point x="375" y="854"/>
      <point x="418" y="696"/>
      <point x="434" y="606" type="curve"/>
      <point x="471" y="606" type="line"/>
      <point x="492" y="719"/>
      <point x="528" y="848"/>
    </contour>
    <contour>
      <point x="252" y="965" type="curve" smooth="yes"/>
      <point x="252" y="1010"/>
      <point x="223" y="1044"/>
      <point x="176" y="1044" type="curve" smooth="yes"/>
      <point x="119" y="1044"/>
      <point x="100" y="1006"/>
      <point x="100" y="954" type="curve" smooth="yes"/>
      <point x="100" y="844"/>
      <point x="139" y="709"/>
      <point x="160" y="606" type="curve"/>
      <point x="190" y="606" type="line"/>
      <point x="203" y="676"/>
      <point x="252" y="874"/>
    </contour>
  </outline>
</glyph>
<glyph name="quotesingle" format="2">
  <unicode hex="0027"/>
  <advance width="279"/>
  <outline>
    <contour>
      <point x="211" y="954" type="curve" smooth="yes"/>
      <point x="211" y="1016"/>
      <point x="184" y="1044"/>
      <point x="137" y="1044" type="curve" smooth="yes"/>
      <point x="90" y="1044"/>
      <point x="63" y="1016"/>
      <point x="63" y="954" type="curve" smooth="yes"/>
      <point x="63" y="932"/>
      <point x="70" y="889"/>
      <point x="80" y="829" type="curve"/>
      <point x="121" y="606" type="line"/>
      <point x="154" y="606" type="line"/>
      <point x="195" y="829" type="line" smooth="yes"/>
      <point x="206" y="891"/>
      <point x="211" y="932"/>
    </contour>
  </outline>
  <guideline x="137"/>
</glyph>
<glyph name="asterisk" format="2">
  <unicode hex="002A"/>
  <advance width="688"/>
  <outline>
    <contour>
      <point x="554" y="480" type="curve" smooth="yes"/>
      <point x="537" y="480"/>
      <point x="514" y="470"/>
      <point x="489" y="444" type="curve" smooth="yes"/>
      <point x="453" y="408"/>
      <point x="390" y="303"/>
      <point x="390" y="287" type="curve"/>
      <point x="390" y="285"/>
      <point x="392" y="284"/>
      <point x="393" y="284" type="curve"/>
      <point x="410" y="284"/>
      <point x="514" y="346"/>
      <point x="551" y="383" type="curve" smooth="yes"/>
      <point x="577" y="409"/>
      <point x="587" y="432"/>
      <point x="587" y="449" type="curve" smooth="yes"/>
      <point x="587" y="469"/>
      <point x="571" y="480"/>
    </contour>
    <contour>
      <point x="387" y="487" type="curve" smooth="yes"/>
      <point x="387" y="545"/>
      <point x="367" y="569"/>
      <point x="344" y="569" type="curve" smooth="yes"/>
      <point x="322" y="569"/>
      <point x="299" y="545"/>
      <point x="299" y="487" type="curve" smooth="yes"/>
      <point x="299" y="432"/>
      <point x="334" y="303"/>
      <point x="344" y="303" type="curve" smooth="yes"/>
      <point x="352" y="303"/>
      <point x="387" y="432"/>
    </contour>
    <contour>
      <point x="676" y="238" type="curve" smooth="yes"/>
      <point x="676" y="260"/>
      <point x="649" y="281"/>
      <point x="594" y="281" type="curve" smooth="yes"/>
      <point x="537" y="281"/>
      <point x="410" y="248"/>
      <point x="410" y="238" type="curve" smooth="yes"/>
      <point x="410" y="227"/>
      <point x="537" y="195"/>
      <point x="594" y="195" type="curve" smooth="yes"/>
      <point x="649" y="195"/>
      <point x="676" y="215"/>
    </contour>
    <contour>
      <point x="297" y="287" type="curve"/>
      <point x="297" y="301"/>
      <point x="236" y="408"/>
      <point x="199" y="444" type="curve" smooth="yes"/>
      <point x="173" y="470"/>
      <point x="150" y="480"/>
      <point x="133" y="480" type="curve" smooth="yes"/>
      <point x="114" y="480"/>
      <point x="100" y="466"/>
      <point x="100" y="449" type="curve" smooth="yes"/>
      <point x="100" y="432"/>
      <point x="110" y="409"/>
      <point x="136" y="384" type="curve" smooth="yes"/>
      <point x="174" y="346"/>
      <point x="278" y="284"/>
      <point x="295" y="284" type="curve"/>
      <point x="296" y="284"/>
      <point x="297" y="285"/>
    </contour>
    <contour>
      <point x="587" y="27" type="curve" smooth="yes"/>
      <point x="587" y="44"/>
      <point x="577" y="66"/>
      <point x="551" y="92" type="curve" smooth="yes"/>
      <point x="514" y="129"/>
      <point x="410" y="191"/>
      <point x="393" y="191" type="curve"/>
      <point x="391" y="191"/>
      <point x="390" y="189"/>
      <point x="390" y="188" type="curve"/>
      <point x="390" y="172"/>
      <point x="453" y="68"/>
      <point x="489" y="31" type="curve" smooth="yes"/>
      <point x="514" y="5"/>
      <point x="537" y="-5"/>
      <point x="554" y="-5" type="curve" smooth="yes"/>
      <point x="574" y="-5"/>
      <point x="587" y="9"/>
    </contour>
    <contour>
      <point x="279" y="238" type="curve" smooth="yes"/>
      <point x="279" y="248"/>
      <point x="150" y="281"/>
      <point x="94" y="281" type="curve" smooth="yes"/>
      <point x="37" y="281"/>
      <point x="12" y="260"/>
      <point x="12" y="238" type="curve" smooth="yes"/>
      <point x="12" y="215"/>
      <point x="37" y="195"/>
      <point x="94" y="195" type="curve" smooth="yes"/>
      <point x="150" y="195"/>
      <point x="279" y="227"/>
    </contour>
    <contour>
      <point x="387" y="-12" type="curve" smooth="yes"/>
      <point x="387" y="43"/>
      <point x="352" y="172"/>
      <point x="344" y="172" type="curve" smooth="yes"/>
      <point x="334" y="172"/>
      <point x="299" y="43"/>
      <point x="299" y="-12" type="curve" smooth="yes"/>
      <point x="299" y="-70"/>
      <point x="322" y="-94"/>
      <point x="344" y="-94" type="curve" smooth="yes"/>
      <point x="367" y="-94"/>
      <point x="387" y="-70"/>
    </contour>
    <contour>
      <point x="295" y="191" type="curve"/>
      <point x="278" y="191"/>
      <point x="174" y="129"/>
      <point x="136" y="91" type="curve" smooth="yes"/>
      <point x="110" y="65"/>
      <point x="100" y="43"/>
      <point x="100" y="26" type="curve" smooth="yes"/>
      <point x="100" y="7"/>
      <point x="116" y="-5"/>
      <point x="133" y="-5" type="curve" smooth="yes"/>
      <point x="150" y="-5"/>
      <point x="173" y="5"/>
      <point x="199" y="31" type="curve" smooth="yes"/>
      <point x="236" y="68"/>
      <point x="297" y="174"/>
      <point x="297" y="188" type="curve"/>
      <point x="297" y="190"/>
      <point x="296" y="191"/>
    </contour>
  </outline>
</glyph>
<glyph name="comma" format="2">
  <unicode hex="002C"/>
  <advance width="387"/>
  <outline>
    <contour>
      <point x="307" y="-8" type="curve" smooth="yes"/>
      <point x="307" y="71"/>
      <point x="262" y="150"/>
      <point x="180" y="150" type="curve" smooth="yes"/>
      <point x="128" y="150"/>
      <point x="84" y="113"/>
      <point x="84" y="61" type="curve" smooth="yes"/>
      <point x="84" y="6"/>
      <point x="116" y="-23"/>
      <point x="164" y="-23" type="curve" smooth="yes"/>
      <point x="194" y="-23"/>
      <point x="213" y="0"/>
      <point x="229" y="0" type="curve" smooth="yes"/>
      <point x="240" y="0"/>
      <point x="246" y="-10"/>
      <point x="246" y="-31" type="curve" smooth="yes"/>
      <point x="246" y="-118"/>
      <point x="168" y="-202"/>
      <point x="84" y="-223" type="curve"/>
      <point x="84" y="-258" type="line"/>
      <point x="233" y="-207"/>
      <point x="307" y="-123"/>
    </contour>
  </outline>
</glyph>
<glyph name="hyphenminus" format="2">
  <unicode hex="002D"/>
  <advance width="514"/>
  <outline>
    <contour>
      <point x="451" y="238" type="line"/>
      <point x="451" y="352" type="line"/>
      <point x="61" y="352" type="line"/>
      <point x="61" y="238" type="line"/>
    </contour>
  </outline>
</glyph>
<glyph name="two" format="2">
  <unicode hex="0032"/>
  <advance width="772"/>
  <outline>
    <contour>
      <point x="709" y="197" type="line"/>
      <point x="680" y="197" type="line"/>
      <point x="626" y="120"/>
      <point x="575" y="115"/>
      <point x="461" y="115" type="curve" smooth="yes"/>
      <point x="195" y="115" type="line"/>
      <point x="276" y="190"/>
      <point x="352" y="279"/>
      <point x="427" y="361" type="curve" smooth="yes"/>
      <point x="526" y="467"/>
      <point x="645" y="623"/>
      <point x="645" y="774" type="curve" smooth="yes"/>
      <point x="645" y="936"/>
      <point x="508" y="1044"/>
      <point x="354" y="1044" type="curve" smooth="yes"/>
      <point x="178" y="1044"/>
      <point x="84" y="920"/>
      <point x="63" y="756" type="curve"/>
      <point x="90" y="756" type="line"/>
      <point x="127" y="862"/>
      <point x="199" y="928"/>
      <point x="315" y="928" type="curve" smooth="yes"/>
      <point x="440" y="928"/>
      <point x="516" y="823"/>
      <point x="516" y="705" type="curve" smooth="yes"/>
      <point x="516" y="471"/>
      <point x="224" y="203"/>
      <point x="35" y="29" type="curve"/>
      <point x="35" y="0" type="line"/>
      <point x="635" y="0" type="line"/>
    </contour>
  </outline>
</glyph>
<glyph name="seven" format="2">
  <unicode hex="0037"/>
  <advance width="772"/>
  <outline>
    <contour>
      <point x="700" y="995" type="line"/>
      <point x="700" y="1022" type="line"/>
      <point x="156" y="1022" type="line"/>
      <point x="57" y="780" type="line"/>
      <point x="78" y="774" type="line"/>
      <point x="137" y="877"/>
      <point x="182" y="899"/>
      <point x="303" y="899" type="curve" smooth="yes"/>
      <point x="584" y="899" type="line"/>
      <point x="279" y="-23" type="line"/>
      <point x="360" y="-23" type="line"/>
    </contour>
  </outline>
</glyph>
<glyph name="less" format="2">
  <unicode hex="003C"/>
  <advance width="1485"/>
  <outline>
    <contour>
      <point x="1188" y="57" type="line"/>
      <point x="1188" y="150" type="line"/>
      <point x="391" y="446" type="line"/>
      <point x="1188" y="741" type="line"/>
      <point x="1188" y="834" type="line"/>
      <point x="297" y="492" type="line"/>
      <point x="297" y="399" type="line"/>
    </contour>
  </outline>
</glyph>
<glyph name="greater" format="2">
  <unicode hex="003E"/>
  <advance width="1485"/>
  <outline>
    <contour>
      <point x="1188" y="399" type="line"/>
      <point x="1188" y="492" type="line"/>
      <point x="297" y="834" type="line"/>
      <point x="297" y="741" type="line"/>
      <point x="1094" y="446" type="line"/>
      <point x="297" y="150" type="line"/>
      <point x="297" y="57" type="line"/>
    </contour>
  </outline>
</glyph>
<glyph name="H" format="2">
  <unicode hex="0048"/>
  <advance width="1114"/>
  <outline>
    <contour>
      <point x="1083" y="0" type="line"/>
      <point x="1083" y="29" type="line"/>
      <point x="963" y="29"/>
      <point x="939" y="47"/>
      <point x="939" y="170" type="curve" smooth="yes"/>
      <point x="939" y="854" type="line" smooth="yes"/>
      <point x="939" y="973"/>
      <point x="963" y="995"/>
      <point x="1083" y="995" type="curve"/>
      <point x="1083" y="1022" type="line"/>
      <point x="645" y="1022" type="line"/>
      <point x="645" y="995" type="line"/>
      <point x="774" y="995"/>
      <point x="793" y="967"/>
      <point x="793" y="842" type="curve" smooth="yes"/>
      <point x="793" y="549" type="line"/>
      <point x="315" y="549" type="line"/>
      <point x="315" y="842" type="line" smooth="yes"/>
      <point x="315" y="967"/>
      <point x="338" y="995"/>
      <point x="465" y="995" type="curve"/>
      <point x="465" y="1022" type="line"/>
      <point x="27" y="1022" type="line"/>
      <point x="27" y="995" type="line"/>
      <point x="156" y="995"/>
      <point x="172" y="967"/>
      <point x="172" y="842" type="curve" smooth="yes"/>
      <point x="172" y="180" type="line" smooth="yes"/>
      <point x="172" y="55"/>
      <point x="158" y="29"/>
      <point x="27" y="29" type="curve"/>
      <point x="27" y="0" type="line"/>
      <point x="465" y="0" type="line"/>
      <point x="465" y="29" type="line"/>
      <point x="334" y="29"/>
      <point x="315" y="55"/>
      <point x="315" y="180" type="curve" smooth="yes"/>
      <point x="315" y="494" type="line"/>
      <point x="793" y="494" type="line"/>
      <point x="793" y="180" type="line" smooth="yes"/>
      <point x="793" y="57"/>
      <point x="774" y="29"/>
      <point x="645" y="29" type="curve"/>
      <point x="645" y="0" type="line"/>
    </contour>
  </outline>
</glyph>
<glyph name="J" format="2">
  <unicode hex="004A"/>
  <advance width="602"/>
  <outline>
    <contour>
      <point x="592" y="1022" type="line"/>
      <point x="154" y="1022" type="line"/>
      <point x="154" y="995" type="line"/>
      <point x="287" y="995"/>
      <point x="301" y="965"/>
      <point x="301" y="842" type="curve" smooth="yes"/>
      <point x="301" y="143" type="line" smooth="yes"/>
      <point x="301" y="106"/>
      <point x="299" y="31"/>
      <point x="246" y="31" type="curve" smooth="yes"/>
      <point x="193" y="31"/>
      <point x="193" y="170"/>
      <point x="109" y="170" type="curve" smooth="yes"/>
      <point x="57" y="170"/>
      <point x="33" y="143"/>
      <point x="33" y="92" type="curve" smooth="yes"/>
      <point x="33" y="10"/>
      <point x="115" y="-25"/>
      <point x="184" y="-25" type="curve" smooth="yes"/>
      <point x="389" y="-25"/>
      <point x="446" y="172"/>
      <point x="446" y="342" type="curve" smooth="yes"/>
      <point x="446" y="842" type="line" smooth="yes"/>
      <point x="446" y="967"/>
      <point x="461" y="995"/>
      <point x="592" y="995" type="curve"/>
    </contour>
  </outline>
</glyph>
<glyph name="O" format="2">
  <unicode hex="004F"/>
  <advance width="1114"/>
  <anchor x="554" y="1090" name="above"/>
  <outline>
    <contour>
      <point x="1055" y="516" type="curve" smooth="yes"/>
      <point x="1055" y="799"/>
      <point x="860" y="1044"/>
      <point x="565" y="1044" type="curve" smooth="yes"/>
      <point x="264" y="1044"/>
      <point x="53" y="809"/>
      <point x="53" y="514" type="curve" smooth="yes"/>
      <point x="53" y="221"/>
      <point x="248" y="-25"/>
      <point x="553" y="-25" type="curve" smooth="yes"/>
      <point x="856" y="-25"/>
      <point x="1055" y="225"/>
    </contour>
    <contour>
      <point x="883" y="506" type="curve" smooth="yes"/>
      <point x="883" y="287"/>
      <point x="819" y="31"/>
      <point x="551" y="31" type="curve" smooth="yes"/>
      <point x="295" y="31"/>
      <point x="227" y="313"/>
      <point x="227" y="518" type="curve" smooth="yes"/>
      <point x="227" y="727"/>
      <point x="293" y="991"/>
      <point x="549" y="991" type="curve" smooth="yes"/>
      <point x="827" y="991"/>
      <point x="883" y="731"/>
    </contour>
  </outline>
</glyph>
<glyph name="X" format="2">
  <unicode hex="0058"/>
  <advance width="1114"/>
  <outline>
    <contour>
      <point x="1096" y="0" type="line"/>
      <point x="1096" y="29" type="line"/>
      <point x="1007" y="33"/>
      <point x="949" y="92"/>
      <point x="879" y="196" type="curve" smooth="yes"/>
      <point x="629" y="567" type="line"/>
      <point x="854" y="851" type="line" smooth="yes"/>
      <point x="935" y="953"/>
      <point x="980" y="989"/>
      <point x="1073" y="995" type="curve"/>
      <point x="1073" y="1022" type="line"/>
      <point x="711" y="1022" type="line"/>
      <point x="711" y="995" type="line"/>
      <point x="743" y="993"/>
      <point x="821" y="989"/>
      <point x="821" y="940" type="curve" smooth="yes"/>
      <point x="821" y="885"/>
      <point x="610" y="643"/>
      <point x="592" y="621" type="curve"/>
      <point x="571" y="651"/>
      <point x="399" y="881"/>
      <point x="399" y="936" type="curve" smooth="yes"/>
      <point x="399" y="985"/>
      <point x="469" y="993"/>
      <point x="506" y="995" type="curve"/>
      <point x="506" y="1022" type="line"/>
      <point x="33" y="1022" type="line"/>
      <point x="33" y="995" type="line"/>
      <point x="168" y="987"/>
      <point x="231" y="903"/>
      <point x="303" y="799" type="curve" smooth="yes"/>
      <point x="506" y="504" type="line"/>
      <point x="240" y="170" type="line" smooth="yes"/>
      <point x="180" y="95"/>
      <point x="90" y="29"/>
      <point x="10" y="29" type="curve"/>
      <point x="10" y="0" type="line"/>
      <point x="375" y="0" type="line"/>
      <point x="375" y="29" type="line"/>
      <point x="336" y="29"/>
      <point x="276" y="37"/>
      <point x="276" y="86" type="curve" smooth="yes"/>
      <point x="276" y="115"/>
      <point x="305" y="154"/>
      <point x="322" y="176" type="curve" smooth="yes"/>
      <point x="537" y="451" type="line"/>
      <point x="545" y="438"/>
      <point x="760" y="133"/>
      <point x="760" y="86" type="curve" smooth="yes"/>
      <point x="760" y="35"/>
      <point x="694" y="29"/>
      <point x="657" y="29" type="curve"/>
      <point x="657" y="0" type="line"/>
    </contour>
  </outline>
</glyph>
<glyph name="Z" format="2">
  <unicode hex="005A"/>
  <advance width="942"/>
  <anchor x="511" y="1090" name="above"/>
  <outline>
    <contour>
      <point x="899" y="270" type="line"/>
      <point x="877" y="274" type="line"/>
      <point x="834" y="141"/>
      <point x="791" y="61"/>
      <point x="635" y="61" type="curve" smooth="yes"/>
      <point x="217" y="61" type="line"/>
      <point x="889" y="1022" type="line"/>
      <point x="133" y="1022" type="line"/>
      <point x="111" y="766" type="line"/>
      <point x="139" y="766" type="line"/>
      <point x="164" y="911"/>
      <point x="195" y="963"/>
      <point x="348" y="963" type="curve" smooth="yes"/>
      <point x="674" y="963" type="line"/>
      <point x="20" y="29" type="line"/>
      <point x="20" y="0" type="line"/>
      <point x="852" y="0" type="line"/>
    </contour>
  </outline>
</glyph>
<glyph name="bracketright" format="2">
  <unicode hex="005D"/>
  <advance width="690"/>
  <outline>
    <contour>
      <point x="483" y="-205" type="line"/>
      <point x="483" y="1044" type="line"/>
      <point x="207" y="1085" type="line"/>
      <point x="188" y="1006" type="line"/>
      <point x="381" y="975" type="line"/>
      <point x="381" y="-137" type="line"/>
      <point x="188" y="-168" type="line"/>
      <point x="207" y="-246" type="line"/>
    </contour>
  </outline>
</glyph>
<glyph name="f" format="2">
  <unicode hex="0066"/>
  <advance width="514"/>
  <outline>
    <contour>
      <point x="672" y="942" type="curve" smooth="yes"/>
      <point x="672" y="1024"/>
      <point x="549" y="1071"/>
      <point x="481" y="1071" type="curve" smooth="yes"/>
      <point x="289" y="1071"/>
      <point x="193" y="913"/>
      <point x="193" y="737" type="curve" smooth="yes"/>
      <point x="193" y="690" type="line"/>
      <point x="57" y="690" type="line"/>
      <point x="57" y="635" type="line"/>
      <point x="193" y="635" type="line"/>
      <point x="193" y="182" type="line" smooth="yes"/>
      <point x="193" y="72"/>
      <point x="180" y="29"/>
      <point x="61" y="29" type="curve"/>
      <point x="61" y="0" type="line"/>
      <point x="477" y="0" type="line"/>
      <point x="477" y="29" type="line"/>
      <point x="338" y="29"/>
      <point x="317" y="43"/>
      <point x="317" y="182" type="curve" smooth="yes"/>
      <point x="317" y="635" type="line"/>
      <point x="496" y="635" type="line"/>
      <point x="496" y="690" type="line"/>
      <point x="317" y="690" type="line"/>
      <point x="317" y="764" type="line" smooth="yes"/>
      <point x="317" y="896"/>
      <point x="324" y="1016"/>
      <point x="422" y="1016" type="curve" smooth="yes"/>
      <point x="518" y="1016"/>
      <point x="543" y="881"/>
      <point x="610" y="881" type="curve" smooth="yes"/>
      <point x="641" y="881"/>
      <point x="672" y="913"/>
    </contour>
  </outline>
</glyph>
<glyph name="h" format="2">
  <unicode hex="0068"/>
  <advance width="772"/>
  <outline>
    <contour>
      <point x="764" y="0" type="line"/>
      <point x="764" y="29" type="line"/>
      <point x="676" y="29"/>
      <point x="662" y="57"/>
      <point x="662" y="141" type="curve" smooth="yes"/>
      <point x="662" y="399" type="line" smooth="yes"/>
      <point x="662" y="530"/>
      <point x="657" y="711"/>
      <point x="481" y="711" type="curve" smooth="yes"/>
      <point x="381" y="711"/>
      <point x="305" y="647"/>
      <point x="252" y="567" type="curve"/>
      <point x="252" y="1071" type="line"/>
      <point x="217" y="1071" type="line"/>
      <point x="8" y="989" type="line"/>
      <point x="20" y="963" type="line"/>
      <point x="39" y="970"/>
      <point x="57" y="975"/>
      <point x="76" y="975" type="curve" smooth="yes"/>
      <point x="120" y="975"/>
      <point x="127" y="933"/>
      <point x="127" y="870" type="curve" smooth="yes"/>
      <point x="127" y="141" type="line" smooth="yes"/>
      <point x="127" y="57"/>
      <point x="109" y="29"/>
      <point x="20" y="29" type="curve"/>
      <point x="20" y="0" type="line"/>
      <point x="362" y="0" type="line"/>
      <point x="362" y="29" type="line"/>
      <point x="266" y="29"/>
      <point x="252" y="49"/>
      <point x="252" y="141" type="curve" smooth="yes"/>
      <point x="252" y="520" type="line"/>
      <point x="295" y="569"/>
      <point x="354" y="618"/>
      <point x="424" y="618" type="curve" smooth="yes"/>
      <point x="530" y="618"/>
      <point x="535" y="516"/>
      <point x="535" y="412" type="curve" smooth="yes"/>
      <point x="535" y="141" type="line" smooth="yes"/>
      <point x="535" y="51"/>
      <point x="514" y="29"/>
      <point x="424" y="29" type="curve"/>
      <point x="424" y="0" type="line"/>
    </contour>
  </outline>
</glyph>
<glyph name="r" format="2">
  <unicode hex="0072"/>
  <advance width="528"/>
  <outline>
    <contour>
      <point x="526" y="627" type="curve" smooth="yes"/>
      <point x="526" y="680"/>
      <point x="477" y="711"/>
      <point x="428" y="711" type="curve" smooth="yes"/>
      <point x="346" y="711"/>
      <point x="285" y="618"/>
      <point x="250" y="555" type="curve"/>
      <point x="250" y="711" type="line"/>
      <point x="219" y="711" type="line"/>
      <point x="6" y="627" type="line"/>
      <point x="14" y="600" type="line"/>
      <point x="29" y="606"/>
      <point x="45" y="610"/>
      <point x="61" y="610" type="curve" smooth="yes"/>
      <point x="120" y="610"/>
      <point x="123" y="549"/>
      <point x="123" y="454" type="curve" smooth="yes"/>
      <point x="123" y="156" type="line" smooth="yes"/>
      <point x="123" y="59"/>
      <point x="117" y="29"/>
      <point x="14" y="29" type="curve"/>
      <point x="14" y="0" type="line"/>
      <point x="371" y="0" type="line"/>
      <point x="371" y="29" type="line"/>
      <point x="276" y="29"/>
      <point x="250" y="72"/>
      <point x="250" y="160" type="curve" smooth="yes"/>
      <point x="250" y="494" type="line"/>
      <point x="282" y="558"/>
      <point x="321" y="610"/>
      <point x="350" y="610" type="curve" smooth="yes"/>
      <point x="384" y="610"/>
      <point x="407" y="557"/>
      <point x="457" y="557" type="curve" smooth="yes"/>
      <point x="494" y="557"/>
      <point x="526" y="590"/>
    </contour>
  </outline>
</glyph>
<glyph name="t" format="2">
  <unicode hex="0074"/>
  <advance width="430"/>
  <outline>
    <contour>
      <point x="401" y="127" type="line"/>
      <point x="385" y="88"/>
      <point x="360" y="63"/>
      <point x="315" y="63" type="curve" smooth="yes"/>
      <point x="258" y="63"/>
      <point x="248" y="133"/>
      <point x="248" y="178" type="curve" smooth="yes"/>
      <point x="248" y="639" type="line"/>
      <point x="410" y="639" type="line"/>
      <point x="410" y="690" type="line"/>
      <point x="248" y="690" type="line"/>
      <point x="248" y="918" type="line"/>
      <point x="225" y="918" type="line"/>
      <point x="184" y="821"/>
      <point x="117" y="702"/>
      <point x="12" y="662" type="curve"/>
      <point x="12" y="639" type="line"/>
      <point x="121" y="639" type="line"/>
      <point x="121" y="160" type="line" smooth="yes"/>
      <point x="121" y="66"/>
      <point x="150" y="-23"/>
      <point x="258" y="-23" type="curve" smooth="yes"/>
      <point x="342" y="-23"/>
      <point x="408" y="51"/>
      <point x="430" y="127" type="curve"/>
    </contour>
  </outline>
</glyph>
<glyph name="w" format="2">
  <unicode hex="0077"/>
  <advance width="1114"/>
  <outline>
    <contour>
      <point x="1102" y="690" type="line"/>
      <point x="883" y="690" type="line"/>
      <point x="883" y="662" type="line"/>
      <point x="909" y="662"/>
      <point x="956" y="659"/>
      <point x="956" y="625" type="curve" smooth="yes"/>
      <point x="956" y="602"/>
      <point x="948" y="580"/>
      <point x="940" y="559" type="curve" smooth="yes"/>
      <point x="797" y="178" type="line"/>
      <point x="774" y="231"/>
      <point x="631" y="569"/>
      <point x="631" y="602" type="curve" smooth="yes"/>
      <point x="631" y="657"/>
      <point x="680" y="659"/>
      <point x="725" y="662" type="curve"/>
      <point x="725" y="690" type="line"/>
      <point x="395" y="690" type="line"/>
      <point x="395" y="662" type="line"/>
      <point x="506" y="659"/>
      <point x="508" y="580"/>
      <point x="543" y="485" type="curve"/>
      <point x="395" y="162" type="line"/>
      <point x="246" y="559" type="line" smooth="yes"/>
      <point x="240" y="575"/>
      <point x="236" y="596"/>
      <point x="236" y="614" type="curve" smooth="yes"/>
      <point x="236" y="655"/>
      <point x="266" y="662"/>
      <point x="299" y="662" type="curve"/>
      <point x="299" y="690" type="line"/>
      <point x="8" y="690" type="line"/>
      <point x="8" y="662" type="line"/>
      <point x="80" y="649"/>
      <point x="94" y="623"/>
      <point x="119" y="559" type="curve" smooth="yes"/>
      <point x="342" y="-23" type="line"/>
      <point x="371" y="-23" type="line"/>
      <point x="569" y="420" type="line"/>
      <point x="743" y="-23" type="line"/>
      <point x="774" y="-23" type="line"/>
      <point x="1004" y="575" type="line" smooth="yes"/>
      <point x="1022" y="621"/>
      <point x="1053" y="655"/>
      <point x="1102" y="662" type="curve"/>
    </contour>
  </outline>
</glyph>
<glyph name="bar" format="2">
  <unicode hex="007C"/>
  <advance width="309"/>
  <outline>
    <contour>
      <point x="186" y="-334" type="line"/>
      <point x="186" y="1071" type="line"/>
      <point x="121" y="1071" type="line"/>
      <point x="121" y="-334" type="line"/>
    </contour>
  </outline>
</glyph>
<glyph name="cent" format="2">
  <unicode hex="00A2"/>
  <advance width="772"/>
  <outline>
    <contour>
      <point x="655" y="272" type="line"/>
      <point x="616" y="180"/>
      <point x="553" y="98"/>
      <point x="442" y="98" type="curve" smooth="yes"/>
      <point x="403" y="98"/>
      <point x="365" y="111"/>
      <point x="332" y="133" type="curve"/>
      <point x="500" y="594" type="line"/>
      <point x="518" y="539"/>
      <point x="504" y="481"/>
      <point x="588" y="481" type="curve" smooth="yes"/>
      <point x="631" y="481"/>
      <point x="659" y="500"/>
      <point x="659" y="545" type="curve" smooth="yes"/>
      <point x="659" y="608"/>
      <point x="590" y="668"/>
      <point x="537" y="690" type="curve"/>
      <point x="647" y="999" type="line"/>
      <point x="594" y="999" type="line"/>
      <point x="487" y="705" type="line"/>
      <point x="467" y="709"/>
      <point x="446" y="711"/>
      <point x="424" y="711" type="curve" smooth="yes"/>
      <point x="221" y="711"/>
      <point x="94" y="537"/>
      <point x="94" y="344" type="curve" smooth="yes"/>
      <point x="94" y="217"/>
      <point x="133" y="98"/>
      <point x="240" y="25" type="curve"/>
      <point x="127" y="-285" type="line"/>
      <point x="180" y="-285" type="line"/>
      <point x="283" y="0" type="line"/>
      <point x="317" y="-14"/>
      <point x="352" y="-23"/>
      <point x="389" y="-23" type="curve" smooth="yes"/>
      <point x="545" y="-23"/>
      <point x="655" y="119"/>
      <point x="678" y="262" type="curve"/>
    </contour>
    <contour>
      <point x="293" y="170" type="line"/>
      <point x="236" y="238"/>
      <point x="219" y="326"/>
      <point x="219" y="410" type="curve" smooth="yes"/>
      <point x="219" y="522"/>
      <point x="266" y="662"/>
      <point x="399" y="662" type="curve" smooth="yes"/>
      <point x="422" y="662"/>
      <point x="444" y="657"/>
      <point x="465" y="645" type="curve"/>
    </contour>
  </outline>
</glyph>
<glyph name="sterling" format="2">
  <unicode hex="00A3"/>
  <advance width="772"/>
  <outline>
    <contour>
      <point x="709" y="236" type="line"/>
      <point x="686" y="156"/>
      <point x="633" y="115"/>
      <point x="549" y="115" type="curve" smooth="yes"/>
      <point x="492" y="115"/>
      <point x="360" y="158"/>
      <point x="305" y="176" type="curve"/>
      <point x="346" y="285"/>
      <point x="350" y="383"/>
      <point x="350" y="498" type="curve"/>
      <point x="545" y="498" type="line"/>
      <point x="545" y="569" type="line"/>
      <point x="350" y="569" type="line"/>
      <point x="344" y="641"/>
      <point x="334" y="717"/>
      <point x="334" y="791" type="curve" smooth="yes" name="hr01"/>
      <point x="334" y="883"/>
      <point x="354" y="1001"/>
      <point x="471" y="1001" type="curve" smooth="yes"/>
      <point x="627" y="1001"/>
      <point x="512" y="827"/>
      <point x="623" y="827" type="curve" smooth="yes" name="hr02"/>
      <point x="653" y="827"/>
      <point x="680" y="860"/>
      <point x="680" y="889" type="curve" smooth="yes"/>
      <point x="680" y="989"/>
      <point x="580" y="1044"/>
      <point x="489" y="1044" type="curve" smooth="yes"/>
      <point x="309" y="1044"/>
      <point x="209" y="885"/>
      <point x="209" y="719" type="curve" smooth="yes"/>
      <point x="209" y="668"/>
      <point x="217" y="618"/>
      <point x="219" y="569" type="curve"/>
      <point x="74" y="569" type="line"/>
      <point x="74" y="498" type="line"/>
      <point x="219" y="498" type="line"/>
      <point x="227" y="412"/>
      <point x="236" y="326"/>
      <point x="236" y="240" type="curve" smooth="yes"/>
      <point x="236" y="223"/>
      <point x="236" y="207"/>
      <point x="233" y="190" type="curve"/>
      <point x="213" y="195"/>
      <point x="190" y="197"/>
      <point x="170" y="197" type="curve" smooth="yes"/>
      <point x="98" y="197"/>
      <point x="45" y="152"/>
      <point x="45" y="78" type="curve" smooth="yes"/>
      <point x="45" y="20"/>
      <point x="72" y="-18"/>
      <point x="133" y="-18" type="curve" smooth="yes"/>
      <point x="203" y="-18"/>
      <point x="248" y="47"/>
      <point x="274" y="104" type="curve"/>
      <point x="350" y="49"/>
      <point x="422" y="-18"/>
      <point x="520" y="-18" type="curve" smooth="yes"/>
      <point x="651" y="-18"/>
      <point x="723" y="113"/>
      <point x="737" y="229" type="curve"/>
    </contour>
    <contour>
      <point x="225" y="129" type="curve"/>
      <point x="215" y="88"/>
      <point x="193" y="27"/>
      <point x="139" y="27" type="curve" smooth="yes"/>
      <point x="102" y="27"/>
      <point x="90" y="51"/>
      <point x="90" y="84" type="curve" smooth="yes"/>
      <point x="90" y="131"/>
      <point x="117" y="150"/>
      <point x="160" y="150" type="curve" smooth="yes"/>
      <point x="184" y="150"/>
      <point x="207" y="143"/>
    </contour>
  </outline>
</glyph>
<glyph name="copyright" format="2">
  <unicode hex="00A9"/>
  <advance width="1174"/>
  <outline>
    <contour>
      <point x="1122" y="510" type="curve" smooth="yes"/>
      <point x="1122" y="813"/>
      <point x="889" y="1044"/>
      <point x="586" y="1044" type="curve" smooth="yes"/>
      <point x="285" y="1044"/>
      <point x="51" y="813"/>
      <point x="51" y="510" type="curve" smooth="yes"/>
      <point x="51" y="209"/>
      <point x="285" y="-25"/>
      <point x="586" y="-25" type="curve" smooth="yes"/>
      <point x="887" y="-25"/>
      <point x="1122" y="211"/>
    </contour>
    <contour>
      <point x="1075" y="510" type="curve" smooth="yes"/>
      <point x="1075" y="238"/>
      <point x="860" y="25"/>
      <point x="586" y="25" type="curve" smooth="yes"/>
      <point x="313" y="25"/>
      <point x="100" y="238"/>
      <point x="100" y="510" type="curve" smooth="yes"/>
      <point x="100" y="782"/>
      <point x="313" y="999"/>
      <point x="586" y="999" type="curve" smooth="yes"/>
      <point x="860" y="999"/>
      <point x="1075" y="784"/>
    </contour>
    <contour>
      <point x="850" y="340" type="line"/>
      <point x="795" y="260"/>
      <point x="715" y="219"/>
      <point x="616" y="219" type="curve" smooth="yes"/>
      <point x="432" y="219"/>
      <point x="365" y="367"/>
      <point x="365" y="528" type="curve" smooth="yes"/>
      <point x="365" y="682"/>
      <point x="436" y="821"/>
      <point x="608" y="821" type="curve" smooth="yes" name="hr01"/>
      <point x="729" y="821"/>
      <point x="801" y="754"/>
      <point x="838" y="645" type="curve"/>
      <point x="866" y="645" type="line"/>
      <point x="850" y="856" type="line"/>
      <point x="821" y="856" type="line"/>
      <point x="815" y="840"/>
      <point x="803" y="821"/>
      <point x="784" y="821" type="curve" smooth="yes"/>
      <point x="752" y="821"/>
      <point x="680" y="856"/>
      <point x="616" y="856" type="curve" smooth="yes"/>
      <point x="410" y="856"/>
      <point x="240" y="723"/>
      <point x="240" y="506" type="curve" smooth="yes"/>
      <point x="240" y="309"/>
      <point x="397" y="170"/>
      <point x="590" y="170" type="curve" smooth="yes"/>
      <point x="711" y="170"/>
      <point x="809" y="223"/>
      <point x="879" y="324" type="curve"/>
    </contour>
  </outline>
</glyph>
<glyph name="registered" format="2">
  <unicode hex="00AE"/>
  <advance width="1174"/>
  <outline>
    <contour>
      <point x="1122" y="510" type="curve" smooth="yes"/>
      <point x="1122" y="813"/>
      <point x="889" y="1044"/>
      <point x="586" y="1044" type="curve" smooth="yes"/>
      <point x="285" y="1044"/>
      <point x="51" y="813"/>
      <point x="51" y="510" type="curve" smooth="yes"/>
      <point x="51" y="209"/>
      <point x="285" y="-25"/>
      <point x="586" y="-25" type="curve" smooth="yes"/>
      <point x="887" y="-25"/>
      <point x="1122" y="211"/>
    </contour>
    <contour>
      <point x="1075" y="510" type="curve" smooth="yes"/>
      <point x="1075" y="238"/>
      <point x="860" y="25"/>
      <point x="586" y="25" type="curve" smooth="yes"/>
      <point x="313" y="25"/>
      <point x="100" y="238"/>
      <point x="100" y="510" type="curve" smooth="yes"/>
      <point x="100" y="782"/>
      <point x="313" y="999"/>
      <point x="586" y="999" type="curve" smooth="yes"/>
      <point x="860" y="999"/>
      <point x="1075" y="784"/>
    </contour>
    <contour>
      <point x="889" y="188" type="line"/>
      <point x="889" y="213" type="line" name="hr01"/>
      <point x="848" y="217"/>
      <point x="822" y="243"/>
      <point x="797" y="279" type="curve" smooth="yes"/>
      <point x="639" y="504" type="line"/>
      <point x="727" y="524"/>
      <point x="807" y="571"/>
      <point x="807" y="672" type="curve" smooth="yes"/>
      <point x="807" y="793"/>
      <point x="686" y="840"/>
      <point x="582" y="840" type="curve" smooth="yes"/>
      <point x="291" y="840" type="line"/>
      <point x="291" y="813" type="line"/>
      <point x="354" y="813"/>
      <point x="358" y="790"/>
      <point x="358" y="731" type="curve" smooth="yes"/>
      <point x="358" y="315" type="line" smooth="yes"/>
      <point x="358" y="238"/>
      <point x="352" y="213"/>
      <point x="283" y="213" type="curve"/>
      <point x="283" y="188" type="line"/>
      <point x="559" y="188" type="line"/>
      <point x="559" y="213" type="line"/>
      <point x="508" y="213"/>
      <point x="469" y="219"/>
      <point x="469" y="270" type="curve" smooth="yes"/>
      <point x="469" y="494" type="line"/>
      <point x="526" y="494" type="line"/>
      <point x="748" y="188" type="line"/>
    </contour>
    <contour>
      <point x="686" y="662" type="curve" smooth="yes"/>
      <point x="686" y="545"/>
      <point x="563" y="526"/>
      <point x="469" y="526" type="curve"/>
      <point x="469" y="797" type="line"/>
      <point x="489" y="803"/>
      <point x="512" y="807"/>
      <point x="532" y="807" type="curve" smooth="yes"/>
      <point x="618" y="807"/>
      <point x="686" y="752"/>
    </contour>
  </outline>
</glyph>
<glyph name="degree" format="2">
  <unicode hex="00B0"/>
  <advance width="475"/>
  <outline>
    <contour>
      <point x="401" y="905" type="curve" smooth="yes"/>
      <point x="401" y="997"/>
      <point x="330" y="1069"/>
      <point x="238" y="1069" type="curve" smooth="yes"/>
      <point x="145" y="1069"/>
      <point x="74" y="997"/>
      <point x="74" y="905" type="curve" smooth="yes"/>
      <point x="74" y="815"/>
      <point x="145" y="743"/>
      <point x="238" y="743" type="curve" smooth="yes"/>
      <point x="330" y="743"/>
      <point x="401" y="815"/>
    </contour>
    <contour>
      <point x="342" y="905" type="curve" smooth="yes"/>
      <point x="342" y="848"/>
      <point x="295" y="803"/>
      <point x="238" y="803" type="curve" smooth="yes"/>
      <point x="180" y="803"/>
      <point x="133" y="848"/>
      <point x="133" y="905" type="curve" smooth="yes"/>
      <point x="133" y="963"/>
      <point x="180" y="1010"/>
      <point x="238" y="1010" type="curve" smooth="yes"/>
      <point x="295" y="1010"/>
      <point x="342" y="963"/>
    </contour>
  </outline>
</glyph>
<glyph name="twosuperior" format="2">
  <unicode hex="00B2"/>
  <advance width="543"/>
  <outline>
    <contour>
      <point x="504" y="506" type="line"/>
      <point x="483" y="506" type="line"/>
      <point x="445" y="459"/>
      <point x="407" y="457"/>
      <point x="328" y="457" type="curve" smooth="yes"/>
      <point x="133" y="457" type="line"/>
      <point x="233" y="537"/>
      <point x="459" y="717"/>
      <point x="459" y="852" type="curve" smooth="yes"/>
      <point x="459" y="961"/>
      <point x="342" y="1014"/>
      <point x="248" y="1014" type="curve" smooth="yes"/>
      <point x="131" y="1014"/>
      <point x="57" y="958"/>
      <point x="41" y="840" type="curve"/>
      <point x="59" y="840" type="line"/>
      <point x="88" y="913"/>
      <point x="143" y="944"/>
      <point x="219" y="944" type="curve" smooth="yes"/>
      <point x="299" y="944"/>
      <point x="365" y="895"/>
      <point x="365" y="811" type="curve" smooth="yes"/>
      <point x="365" y="675"/>
      <point x="173" y="520"/>
      <point x="18" y="403" type="curve"/>
      <point x="18" y="387" type="line"/>
      <point x="451" y="387" type="line"/>
    </contour>
  </outline>
</glyph>
<glyph name="micro" format="2">
  <unicode hex="00B5"/>
  <advance width="874"/>
  <outline>
    <contour>
      <point x="786" y="156" type="line"/>
      <point x="780" y="125"/>
      <point x="766" y="61"/>
      <point x="725" y="61" type="curve" smooth="yes"/>
      <point x="678" y="61"/>
      <point x="674" y="135"/>
      <point x="674" y="190" type="curve" smooth="yes"/>
      <point x="674" y="688" type="line"/>
      <point x="549" y="688" type="line"/>
      <point x="549" y="172" type="line"/>
      <point x="504" y="121"/>
      <point x="442" y="72"/>
      <point x="371" y="72" type="curve" smooth="yes"/>
      <point x="270" y="72"/>
      <point x="264" y="181"/>
      <point x="264" y="277" type="curve" smooth="yes"/>
      <point x="264" y="688" type="line"/>
      <point x="141" y="688" type="line"/>
      <point x="141" y="143" type="line" smooth="yes"/>
      <point x="141" y="53"/>
      <point x="137" y="-39"/>
      <point x="117" y="-127" type="curve" smooth="yes"/>
      <point x="109" y="-166"/>
      <point x="94" y="-213"/>
      <point x="94" y="-252" type="curve" smooth="yes"/>
      <point x="94" y="-289"/>
      <point x="117" y="-334"/>
      <point x="160" y="-334" type="curve" smooth="yes"/>
      <point x="203" y="-334"/>
      <point x="229" y="-289"/>
      <point x="229" y="-250" type="curve" smooth="yes"/>
      <point x="229" y="-164"/>
      <point x="195" y="-80"/>
      <point x="195" y="8" type="curve" smooth="yes" name="hr01"/>
      <point x="195" y="43" type="line"/>
      <point x="221" y="0"/>
      <point x="262" y="-23"/>
      <point x="311" y="-23" type="curve" smooth="yes"/>
      <point x="408" y="-23"/>
      <point x="489" y="55"/>
      <point x="549" y="121" type="curve"/>
      <point x="557" y="53"/>
      <point x="584" y="-23"/>
      <point x="668" y="-23" type="curve" smooth="yes"/>
      <point x="774" y="-23"/>
      <point x="811" y="61"/>
      <point x="817" y="156" type="curve"/>
    </contour>
  </outline>
</glyph>
<glyph name="paragraph" format="2">
  <unicode hex="00B6"/>
  <advance width="698"/>
  <outline>
    <contour>
      <point x="702" y="981" type="line"/>
      <point x="702" y="1022" type="line"/>
      <point x="330" y="1022" type="line" smooth="yes"/>
      <point x="147" y="1022"/>
      <point x="-10" y="942"/>
      <point x="-10" y="739" type="curve" smooth="yes"/>
      <point x="-10" y="520"/>
      <point x="162" y="459"/>
      <point x="352" y="455" type="curve"/>
      <point x="352" y="-334" type="line"/>
      <point x="408" y="-334" type="line"/>
      <point x="408" y="981" type="line"/>
      <point x="547" y="981" type="line"/>
      <point x="547" y="-334" type="line"/>
      <point x="602" y="-334" type="line"/>
      <point x="602" y="981" type="line"/>
    </contour>
  </outline>
</glyph>
<glyph name="ordmasculine" format="2">
  <unicode hex="00BA"/>
  <advance width="566"/>
  <outline>
    <contour>
      <point x="523" y="823" type="curve" smooth="yes"/>
      <point x="523" y="940"/>
      <point x="427" y="1034"/>
      <point x="284" y="1034" type="curve" smooth="yes"/>
      <point x="133" y="1034"/>
      <point x="43" y="923"/>
      <point x="43" y="811" type="curve" smooth="yes"/>
      <point x="43" y="695"/>
      <point x="140" y="594"/>
      <point x="279" y="594" type="curve" smooth="yes"/>
      <point x="441" y="594"/>
      <point x="523" y="716"/>
    </contour>
    <contour>
      <point x="516" y="493" type="line"/>
      <point x="516" y="526" type="line"/>
      <point x="52" y="526" type="line"/>
      <point x="52" y="493" type="line"/>
    </contour>
    <contour>
      <point x="422" y="787" type="curve" smooth="yes"/>
      <point x="422" y="669"/>
      <point x="373" y="627"/>
      <point x="302" y="627" type="curve" smooth="yes"/>
      <point x="207" y="627"/>
      <point x="144" y="730"/>
      <point x="144" y="848" type="curve" smooth="yes"/>
      <point x="144" y="968"/>
      <point x="211" y="1005"/>
      <point x="268" y="1005" type="curve" smooth="yes"/>
      <point x="363" y="1005"/>
      <point x="422" y="910"/>
    </contour>
  </outline>
</glyph>
<glyph name="AE" format="2">
  <unicode hex="00C6"/>
  <advance width="1374"/>
  <outline>
    <contour>
      <point x="1330" y="258" type="line"/>
      <point x="1303" y="258" type="line"/>
      <point x="1233" y="115"/>
      <point x="1169" y="55"/>
      <point x="998" y="55" type="curve" smooth="yes"/>
      <point x="862" y="55" type="line" smooth="yes"/>
      <point x="804" y="55"/>
      <point x="789" y="73"/>
      <point x="780" y="86" type="curve" smooth="yes"/>
      <point x="774" y="95"/>
      <point x="774" y="128"/>
      <point x="774" y="168" type="curve" smooth="yes"/>
      <point x="774" y="506" type="line"/>
      <point x="968" y="506" type="line" smooth="yes"/>
      <point x="1098" y="506"/>
      <point x="1117" y="477"/>
      <point x="1132" y="357" type="curve"/>
      <point x="1158" y="357" type="line"/>
      <point x="1158" y="710" type="line"/>
      <point x="1132" y="710" type="line"/>
      <point x="1123" y="601"/>
      <point x="1086" y="563"/>
      <point x="968" y="563" type="curve" smooth="yes"/>
      <point x="774" y="563" type="line"/>
      <point x="774" y="967" type="line"/>
      <point x="1025" y="967" type="line" smooth="yes"/>
      <point x="1178" y="967"/>
      <point x="1195" y="939"/>
      <point x="1224" y="799" type="curve"/>
      <point x="1249" y="799" type="line"/>
      <point x="1238" y="1022" type="line"/>
      <point x="400" y="1022" type="line"/>
      <point x="400" y="995" type="line"/>
      <point x="506" y="989"/>
      <point x="530" y="967"/>
      <point x="530" y="933" type="curve" smooth="yes"/>
      <point x="530" y="909"/>
      <point x="511" y="859"/>
      <point x="472" y="787" type="curve" smooth="yes"/>
      <point x="160" y="207" type="line" smooth="yes"/>
      <point x="102" y="99"/>
      <point x="68" y="59"/>
      <point x="38" y="41" type="curve" smooth="yes"/>
      <point x="24" y="33"/>
      <point x="4" y="28"/>
      <point x="-18" y="28" type="curve"/>
      <point x="-18" y="0" type="line"/>
      <point x="303" y="0" type="line"/>
      <point x="303" y="28" type="line"/>
      <point x="233" y="35"/>
      <point x="184" y="48"/>
      <point x="184" y="89" type="curve" smooth="yes"/>
      <point x="184" y="116"/>
      <point x="203" y="156"/>
      <point x="238" y="220" type="curve" smooth="yes"/>
      <point x="332" y="395" type="line"/>
      <point x="630" y="395" type="line"/>
      <point x="630" y="181" type="line" smooth="yes"/>
      <point x="630" y="119"/>
      <point x="624" y="81"/>
      <point x="612" y="65" type="curve" smooth="yes"/>
      <point x="591" y="40"/>
      <point x="561" y="28"/>
      <point x="519" y="28" type="curve" smooth="yes"/>
      <point x="482" y="28" type="line"/>
      <point x="482" y="0" type="line"/>
      <point x="1249" y="0" type="line"/>
    </contour>
    <contour>
      <point x="630" y="452" type="line"/>
      <point x="360" y="452" type="line"/>
      <point x="630" y="967" type="line"/>
    </contour>
  </outline>
</glyph>
<glyph name="Eth" format="2">
  <unicode hex="00D0"/>
  <advance width="1116"/>
  <outline>
    <contour>
      <point x="1055" y="519" type="curve" smooth="yes"/>
      <point x="1055" y="733"/>
      <point x="947" y="897"/>
      <point x="795" y="968" type="curve" smooth="yes"/>
      <point x="719" y="1004"/>
      <point x="601" y="1022"/>
      <point x="442" y="1022" type="curve" smooth="yes"/>
      <point x="27" y="1022" type="line"/>
      <point x="27" y="995" type="line"/>
      <point x="65" y="995" type="line" smooth="yes"/>
      <point x="104" y="995"/>
      <point x="134" y="986"/>
      <point x="153" y="963" type="curve" smooth="yes"/>
      <point x="167" y="946"/>
      <point x="173" y="905"/>
      <point x="173" y="842" type="curve" smooth="yes"/>
      <point x="173" y="597" type="line"/>
      <point x="27" y="597" type="line"/>
      <point x="27" y="511" type="line"/>
      <point x="173" y="511" type="line"/>
      <point x="173" y="181" type="line" smooth="yes"/>
      <point x="173" y="81"/>
      <point x="161" y="28"/>
      <point x="65" y="28" type="curve" smooth="yes"/>
      <point x="27" y="28" type="line"/>
      <point x="27" y="0" type="line"/>
      <point x="485" y="0" type="line" smooth="yes"/>
      <point x="889" y="0"/>
      <point x="1055" y="231"/>
    </contour>
    <contour>
      <point x="886" y="511" type="curve" smooth="yes"/>
      <point x="886" y="227"/>
      <point x="712" y="54"/>
      <point x="478" y="54" type="curve" smooth="yes"/>
      <point x="435" y="54"/>
      <point x="377" y="59"/>
      <point x="318" y="75" type="curve"/>
      <point x="318" y="511" type="line"/>
      <point x="617" y="511" type="line"/>
      <point x="617" y="597" type="line"/>
      <point x="318" y="597" type="line"/>
      <point x="318" y="945" type="line"/>
      <point x="377" y="961"/>
      <point x="428" y="967"/>
      <point x="472" y="967" type="curve" smooth="yes"/>
      <point x="716" y="967"/>
      <point x="886" y="794"/>
    </contour>
  </outline>
</glyph>
<glyph name="multiply" format="2">
  <unicode hex="00D7"/>
  <advance width="915"/>
  <outline>
    <contour>
      <point x="772" y="147" type="line"/>
      <point x="500" y="422" type="line"/>
      <point x="772" y="694" type="line"/>
      <point x="729" y="739" type="line"/>
      <point x="455" y="465" type="line"/>
      <point x="182" y="739" type="line"/>
      <point x="137" y="694" type="line"/>
      <point x="412" y="422" type="line"/>
      <point x="137" y="147" type="line"/>
      <point x="182" y="104" type="line"/>
      <point x="455" y="377" type="line"/>
      <point x="729" y="104" type="line"/>
    </contour>
  </outline>
</glyph>
<glyph name="Oslash" format="2">
  <unicode hex="00D8"/>
  <advance width="1116"/>
  <outline>
    <contour>
      <point x="1056" y="519" type="curve" smooth="yes"/>
      <point x="1056" y="673"/>
      <point x="1015" y="783"/>
      <point x="906" y="897" type="curve"/>
      <point x="1009" y="1022" type="line"/>
      <point x="964" y="1055" type="line"/>
      <point x="865" y="933" type="line"/>
      <point x="774" y="1009"/>
      <point x="673" y="1046"/>
      <point x="559" y="1046" type="curve" smooth="yes" name="hr01"/>
      <point x="276" y="1046"/>
      <point x="55" y="817"/>
      <point x="55" y="523" type="curve" smooth="yes"/>
      <point x="55" y="360"/>
      <point x="105" y="227"/>
      <point x="207" y="123" type="curve"/>
      <point x="107" y="0" type="line"/>
      <point x="152" y="-36" type="line"/>
      <point x="248" y="85" type="line"/>
      <point x="340" y="10"/>
      <point x="461" y="-24"/>
      <point x="561" y="-24" type="curve" smooth="yes" name="hr02"/>
      <point x="822" y="-24"/>
      <point x="1056" y="205"/>
    </contour>
    <contour>
      <point x="282" y="218" type="line"/>
      <point x="245" y="308"/>
      <point x="227" y="410"/>
      <point x="227" y="526" type="curve" smooth="yes"/>
      <point x="227" y="741"/>
      <point x="302" y="992"/>
      <point x="554" y="992" type="curve" smooth="yes"/>
      <point x="661" y="992"/>
      <point x="743" y="948"/>
      <point x="802" y="856" type="curve"/>
    </contour>
    <contour>
      <point x="883" y="495" type="curve" smooth="yes"/>
      <point x="883" y="159"/>
      <point x="736" y="31"/>
      <point x="550" y="31" type="curve" smooth="yes"/>
      <point x="459" y="31"/>
      <point x="382" y="65"/>
      <point x="313" y="163" type="curve"/>
      <point x="829" y="802" type="line"/>
      <point x="879" y="673"/>
      <point x="883" y="598"/>
    </contour>
  </outline>
</glyph>
<glyph name="Thorn" format="2">
  <unicode hex="00DE"/>
  <advance width="859"/>
  <outline>
    <contour>
      <point x="801" y="513" type="curve" smooth="yes"/>
      <point x="801" y="692"/>
      <point x="648" y="791"/>
      <point x="443" y="791" type="curve" smooth="yes"/>
      <point x="316" y="791" type="line"/>
      <point x="316" y="841" type="line" smooth="yes"/>
      <point x="316" y="941"/>
      <point x="337" y="995"/>
      <point x="432" y="995" type="curve" smooth="yes"/>
      <point x="464" y="995" type="line"/>
      <point x="464" y="1022" type="line" name="hr01"/>
      <point x="28" y="1022" type="line"/>
      <point x="28" y="995" type="line"/>
      <point x="57" y="995" type="line" smooth="yes"/>
      <point x="158" y="995"/>
      <point x="171" y="941"/>
      <point x="171" y="841" type="curve" smooth="yes"/>
      <point x="171" y="181" type="line" smooth="yes"/>
      <point x="171" y="70"/>
      <point x="156" y="28"/>
      <point x="55" y="28" type="curve" smooth="yes"/>
      <point x="28" y="28" type="line"/>
      <point x="28" y="0" type="line"/>
      <point x="464" y="0" type="line"/>
      <point x="464" y="28" type="line"/>
      <point x="432" y="28" type="line" smooth="yes"/>
      <point x="327" y="28"/>
      <point x="316" y="83"/>
      <point x="316" y="184" type="curve" smooth="yes"/>
      <point x="316" y="230" type="line" name="hr02"/>
      <point x="440" y="230" type="line" smooth="yes"/>
      <point x="650" y="230"/>
      <point x="801" y="329"/>
    </contour>
    <contour>
      <point x="625" y="511" type="curve" smooth="yes"/>
      <point x="625" y="382"/>
      <point x="551" y="282"/>
      <point x="360" y="282" type="curve" smooth="yes"/>
      <point x="316" y="282" type="line"/>
      <point x="316" y="733" type="line"/>
      <point x="392" y="733" type="line" smooth="yes"/>
      <point x="525" y="733"/>
      <point x="625" y="653"/>
    </contour>
  </outline>
</glyph>
<glyph name="ae" format="2">
  <unicode hex="00E6"/>
  <advance width="1031"/>
  <outline>
    <contour>
      <point x="960" y="258" type="line"/>
      <point x="892" y="92"/>
      <point x="775" y="92"/>
      <point x="746" y="92" type="curve" smooth="yes"/>
      <point x="604" y="92"/>
      <point x="553" y="211"/>
      <point x="553" y="374" type="curve" smooth="yes"/>
      <point x="553" y="428" type="line"/>
      <point x="984" y="428" type="line"/>
      <point x="981" y="608"/>
      <point x="887" y="710"/>
      <point x="738" y="710" type="curve" smooth="yes"/>
      <point x="649" y="710"/>
      <point x="585" y="686"/>
      <point x="536" y="619" type="curve"/>
      <point x="516" y="672"/>
      <point x="458" y="710"/>
      <point x="333" y="710" type="curve" smooth="yes"/>
      <point x="157" y="710"/>
      <point x="79" y="615"/>
      <point x="79" y="540" type="curve" smooth="yes"/>
      <point x="79" y="502"/>
      <point x="98" y="468"/>
      <point x="147" y="468" type="curve" smooth="yes"/>
      <point x="178" y="468"/>
      <point x="208" y="494"/>
      <point x="208" y="536" type="curve" smooth="yes"/>
      <point x="208" y="551"/>
      <point x="205" y="565"/>
      <point x="205" y="588" type="curve" smooth="yes"/>
      <point x="205" y="633"/>
      <point x="248" y="669"/>
      <point x="313" y="669" type="curve" smooth="yes"/>
      <point x="382" y="669"/>
      <point x="425" y="630"/>
      <point x="425" y="519" type="curve" smooth="yes"/>
      <point x="425" y="450" type="line"/>
      <point x="156" y="342"/>
      <point x="55" y="291"/>
      <point x="55" y="152" type="curve" smooth="yes" name="hr01"/>
      <point x="55" y="55"/>
      <point x="131" y="-22"/>
      <point x="224" y="-22" type="curve" smooth="yes"/>
      <point x="345" y="-22"/>
      <point x="438" y="61"/>
      <point x="482" y="99" type="curve"/>
      <point x="523" y="34"/>
      <point x="574" y="-22"/>
      <point x="704" y="-22" type="curve" smooth="yes"/>
      <point x="866" y="-22"/>
      <point x="947" y="104"/>
      <point x="984" y="241" type="curve"/>
    </contour>
    <contour>
      <point x="553" y="477" type="line"/>
      <point x="556" y="600"/>
      <point x="622" y="658"/>
      <point x="700" y="658" type="curve" smooth="yes"/>
      <point x="778" y="658"/>
      <point x="836" y="606"/>
      <point x="839" y="477" type="curve"/>
    </contour>
    <contour>
      <point x="461" y="140" type="curve"/>
      <point x="377" y="74"/>
      <point x="342" y="59"/>
      <point x="303" y="59" type="curve" smooth="yes"/>
      <point x="236" y="59"/>
      <point x="183" y="120"/>
      <point x="183" y="194" type="curve" smooth="yes"/>
      <point x="183" y="309"/>
      <point x="312" y="358"/>
      <point x="425" y="401" type="curve"/>
      <point x="425" y="334" type="line" smooth="yes"/>
      <point x="425" y="261"/>
      <point x="440" y="180"/>
    </contour>
  </outline>
</glyph>
<glyph name="circumflex" format="2">
  <unicode hex="02C6"/>
  <advance width="483"/>
  <anchor x="242" y="770" name="_above"/>
  <outline>
    <contour>
      <point x="483" y="786" type="line"/>
      <point x="291" y="1044" type="line"/>
      <point x="195" y="1044" type="line"/>
      <point x="0" y="786" type="line"/>
      <point x="53" y="786" type="line"/>
      <point x="242" y="946" type="line"/>
      <point x="430" y="786" type="line"/>
    </contour>
  </outline>
</glyph>
<glyph name="modMacron" format="2">
  <unicode hex="02C9"/>
  <advance width="483"/>
  <outline>
    <contour>
      <point x="483" y="848" type="line"/>
      <point x="483" y="932" type="line"/>
      <point x="0" y="932" type="line"/>
      <point x="0" y="848" type="line"/>
    </contour>
  </outline>
</glyph>
<glyph name="absComma" format="2">
  <unicode hex="060C"/>
  <advance width="641"/>
  <anchor x="270" y="660" name="diaA"/>
  <anchor x="270" y="-195" name="diaB"/>
  <outline>
    <contour>
      <point x="436" y="27" type="curve" smooth="yes"/>
      <point x="436" y="76"/>
      <point x="387" y="127"/>
      <point x="338" y="127" type="curve" smooth="yes"/>
      <point x="313" y="127"/>
      <point x="274" y="100"/>
      <point x="268" y="100" type="curve" smooth="yes"/>
      <point x="252" y="100"/>
      <point x="242" y="176"/>
      <point x="242" y="186" type="curve" smooth="yes"/>
      <point x="242" y="307"/>
      <point x="328" y="399"/>
      <point x="367" y="438" type="curve"/>
      <point x="342" y="473" type="line"/>
      <point x="303" y="457"/>
      <point x="223" y="360"/>
      <point x="190" y="268" type="curve" smooth="yes"/>
      <point x="176" y="227"/>
      <point x="174" y="188"/>
      <point x="174" y="154" type="curve" smooth="yes"/>
      <point x="174" y="45"/>
      <point x="227" y="-76"/>
      <point x="336" y="-76" type="curve" smooth="yes"/>
      <point x="393" y="-76"/>
      <point x="436" y="-31"/>
    </contour>
  </outline>
</glyph>
<glyph name="absKashmiriYeh" format="2">
  <unicode hex="0620"/>
  <advance width="936"/>
  <anchor x="364" y="-368" name="diaB"/>
  <anchor x="408" y="738" name="diaA"/>
  <anchor x="272" y="556" name="alef"/>
  <outline>
    <contour>
      <point x="856" y="608" type="line"/>
      <point x="856" y="626"/>
      <point x="817" y="635"/>
      <point x="803" y="635" type="curve" smooth="yes"/>
      <point x="711" y="635"/>
      <point x="613" y="573"/>
      <point x="530" y="490" type="curve" smooth="yes"/>
      <point x="451" y="410"/>
      <point x="390" y="307"/>
      <point x="390" y="236" type="curve" smooth="yes"/>
      <point x="390" y="145"/>
      <point x="480" y="119"/>
      <point x="549" y="110" type="curve" smooth="yes"/>
      <point x="713" y="88"/>
      <point x="740" y="82"/>
      <point x="740" y="59" type="curve" smooth="yes"/>
      <point x="740" y="29"/>
      <point x="471" y="-119"/>
      <point x="182" y="-119" type="curve" smooth="yes"/>
      <point x="117" y="-119"/>
      <point x="31" y="-106"/>
      <point x="19" y="-106" type="curve" smooth="yes"/>
      <point x="15" y="-106"/>
      <point x="10" y="-114"/>
      <point x="10" y="-118" type="curve" smooth="yes"/>
      <point x="10" y="-136"/>
      <point x="150" y="-238"/>
      <point x="250" y="-238" type="curve" smooth="yes"/>
      <point x="399" y="-238"/>
      <point x="623" y="-135"/>
      <point x="724" y="-55" type="curve" smooth="yes"/>
      <point x="773" y="-16"/>
      <point x="807" y="35"/>
      <point x="807" y="78" type="curve" smooth="yes"/>
      <point x="807" y="117"/>
      <point x="807" y="147"/>
      <point x="793" y="162" type="curve" smooth="yes"/>
      <point x="769" y="190"/>
      <point x="717" y="186"/>
      <point x="648" y="197" type="curve" smooth="yes"/>
      <point x="605" y="204"/>
      <point x="465" y="227"/>
      <point x="465" y="285" type="curve" smooth="yes"/>
      <point x="465" y="403"/>
      <point x="648" y="512"/>
      <point x="744" y="512" type="curve" smooth="yes"/>
      <point x="789" y="512"/>
      <point x="806" y="498"/>
      <point x="828" y="477" type="curve"/>
    </contour>
  </outline>
</glyph>
<glyph name="absDal" format="2">
  <unicode hex="062F"/>
  <advance width="621"/>
  <anchor x="313" y="646" name="above"/>
  <anchor x="313" y="-58" name="below"/>
  <anchor x="336" y="59" name="ring"/>
  <anchor x="266" y="859" name="diaA"/>
  <anchor x="250" y="-180" name="diaB"/>
  <anchor x="188" y="744" name="alef"/>
  <outline>
    <contour>
      <point x="551" y="199" type="curve" smooth="yes"/>
      <point x="551" y="352"/>
      <point x="455" y="535"/>
      <point x="272" y="596" type="curve" smooth="yes"/>
      <point x="269" y="597"/>
      <point x="265" y="598"/>
      <point x="262" y="598" type="curve" smooth="yes"/>
      <point x="256" y="598"/>
      <point x="223" y="485"/>
      <point x="223" y="463" type="curve" smooth="yes"/>
      <point x="223" y="459"/>
      <point x="225" y="453"/>
      <point x="229" y="451" type="curve"/>
      <point x="319" y="434"/>
      <point x="492" y="344"/>
      <point x="506" y="215" type="curve"/>
      <point x="477" y="178"/>
      <point x="291" y="139"/>
      <point x="195" y="139" type="curve" smooth="yes"/>
      <point x="160" y="139"/>
      <point x="104" y="147"/>
      <point x="98" y="147" type="curve" smooth="yes"/>
      <point x="90" y="147"/>
      <point x="76" y="14"/>
      <point x="76" y="6" type="curve" smooth="yes"/>
      <point x="76" y="-6"/>
      <point x="115" y="-8"/>
      <point x="182" y="-8" type="curve" smooth="yes"/>
      <point x="295" y="-8"/>
      <point x="403" y="14"/>
      <point x="510" y="86" type="curve" smooth="yes"/>
      <point x="532" y="101"/>
      <point x="551" y="162"/>
    </contour>
  </outline>
</glyph>
<glyph name="absKaf" format="2">
  <unicode hex="0643"/>
  <advance width="940"/>
  <anchor x="398" y="824" name="above"/>
  <anchor x="662" y="-65" name="below"/>
  <anchor x="372" y="1036" name="diaA"/>
  <anchor x="448" y="-210" name="diaB"/>
  <anchor x="216" y="896" name="alef"/>
  <outline>
    <contour>
      <point x="860" y="205" type="curve" smooth="yes"/>
      <point x="860" y="434"/>
      <point x="750" y="793"/>
      <point x="750" y="879" type="curve" smooth="yes"/>
      <point x="750" y="928"/>
      <point x="771" y="956"/>
      <point x="791" y="983" type="curve"/>
      <point x="713" y="1094" type="line"/>
      <point x="678" y="1075"/>
      <point x="662" y="1008"/>
      <point x="662" y="975" type="curve" smooth="yes"/>
      <point x="662" y="887"/>
      <point x="805" y="297"/>
      <point x="805" y="201" type="curve" smooth="yes"/>
      <point x="805" y="188"/>
      <point x="805" y="168"/>
      <point x="793" y="160" type="curve" smooth="yes"/>
      <point x="743" y="123"/>
      <point x="543" y="121"/>
      <point x="375" y="121" type="curve" smooth="yes"/>
      <point x="184" y="121"/>
      <point x="124" y="127"/>
      <point x="124" y="176" type="curve" smooth="yes"/>
      <point x="124" y="184"/>
      <point x="127" y="192"/>
      <point x="127" y="196" type="curve" smooth="yes"/>
      <point x="127" y="202"/>
      <point x="125" y="206"/>
      <point x="119" y="206" type="curve" smooth="yes"/>
      <point x="115" y="206"/>
      <point x="111" y="204"/>
      <point x="109" y="199" type="curve" smooth="yes"/>
      <point x="98" y="170"/>
      <point x="78" y="104"/>
      <point x="78" y="61" type="curve" smooth="yes"/>
      <point x="78" y="-12"/>
      <point x="168" y="-12"/>
      <point x="352" y="-12" type="curve" smooth="yes"/>
      <point x="573" y="-12"/>
      <point x="737" y="-2"/>
      <point x="766" y="23" type="curve" smooth="yes"/>
      <point x="793" y="45"/>
      <point x="860" y="166"/>
    </contour>
    <contour>
      <point x="534" y="535" type="curve" smooth="yes"/>
      <point x="534" y="639"/>
      <point x="393" y="582"/>
      <point x="393" y="644" type="curve" smooth="yes"/>
      <point x="393" y="672"/>
      <point x="462" y="701"/>
      <point x="491" y="711" type="curve"/>
      <point x="489" y="723"/>
      <point x="479" y="791"/>
      <point x="473" y="803" type="curve"/>
      <point x="374" y="750"/>
      <point x="307" y="627"/>
      <point x="307" y="553" type="curve" smooth="yes"/>
      <point x="307" y="465"/>
      <point x="436" y="510"/>
      <point x="436" y="469" type="curve" smooth="yes"/>
      <point x="436" y="441"/>
      <point x="290" y="422"/>
      <point x="223" y="416" type="curve"/>
      <point x="256" y="388"/>
      <point x="335" y="363"/>
      <point x="372" y="363" type="curve" smooth="yes"/>
      <point x="460" y="363"/>
      <point x="534" y="459"/>
    </contour>
  </outline>
</glyph>
<glyph name="absSubscriptAlef" format="2">
  <unicode hex="0656"/>
  <anchor x="92" y="-18" name="_diaB"/>
  <anchor x="92" y="-591" name="diaB"/>
  <anchor x="92" y="-18" name="_diaBtailDown"/>
  <outline>
    <contour>
      <point x="128" y="-377" type="curve"/>
      <point x="112" y="-185" type="line"/>
      <point x="112" y="-140" type="line" smooth="yes"/>
      <point x="112" y="-123"/>
      <point x="108" y="-82"/>
      <point x="103" y="-74" type="curve"/>
      <point x="89" y="-80"/>
      <point x="56" y="-183"/>
      <point x="56" y="-232" type="curve" smooth="yes"/>
      <point x="56" y="-277"/>
      <point x="83" y="-383"/>
      <point x="83" y="-475" type="curve" smooth="yes"/>
      <point x="83" y="-533" type="line"/>
      <point x="83" y="-541"/>
      <point x="89" y="-545"/>
      <point x="99" y="-545" type="curve" smooth="yes"/>
      <point x="114" y="-545"/>
      <point x="128" y="-404"/>
    </contour>
  </outline>
</glyph>
<glyph name="absVowelDotBelow" format="2">
  <unicode hex="065C"/>
  <anchor x="164" y="203" name="_diaB"/>
  <anchor x="164" y="-211" name="diaB"/>
  <anchor x="164" y="150" name="_diaBtailUp"/>
  <anchor x="164" y="150" name="_diaBtailDown"/>
  <outline>
    <contour>
      <point x="274" y="2" type="curve" smooth="yes"/>
      <point x="274" y="60"/>
      <point x="235" y="118"/>
      <point x="181" y="118" type="curve" smooth="yes"/>
      <point x="107" y="118"/>
      <point x="62" y="60"/>
      <point x="62" y="-14" type="curve" smooth="yes"/>
      <point x="62" y="-72"/>
      <point x="96" y="-133"/>
      <point x="150" y="-133" type="curve" smooth="yes"/>
      <point x="224" y="-133"/>
      <point x="274" y="-72"/>
    </contour>
  </outline>
</glyph>
<glyph name="absFathaTwoDots" format="2">
  <unicode hex="065E"/>
  <anchor x="120" y="1020" name="_diaA"/>
  <anchor x="90" y="1280" name="diaA"/>
  <outline>
    <component base="absFatha"/>
    <contour>
      <point x="57" y="1210" type="curve"/>
      <point x="57" y="1212"/>
      <point x="18" y="1243"/>
      <point x="12" y="1243" type="curve" smooth="yes"/>
      <point x="8" y="1243"/>
      <point x="-20" y="1200"/>
      <point x="-20" y="1196" type="curve" smooth="yes"/>
      <point x="-20" y="1190"/>
      <point x="20" y="1161"/>
      <point x="25" y="1161" type="curve" smooth="yes"/>
      <point x="31" y="1161"/>
      <point x="57" y="1204"/>
    </contour>
    <contour>
      <point x="244" y="1028" type="curve" smooth="yes"/>
      <point x="244" y="1032"/>
      <point x="205" y="1063"/>
      <point x="199" y="1063" type="curve" smooth="yes"/>
      <point x="195" y="1063"/>
      <point x="166" y="1018"/>
      <point x="166" y="1014" type="curve" smooth="yes"/>
      <point x="166" y="1008"/>
      <point x="207" y="979"/>
      <point x="211" y="979" type="curve" smooth="yes"/>
      <point x="217" y="979"/>
      <point x="244" y="1024"/>
    </contour>
  </outline>
</glyph>
<glyph name="absOne" format="2">
  <unicode hex="0661"/>
  <advance width="801"/>
  <outline>
    <contour>
      <point x="504" y="66" type="curve"/>
      <point x="502" y="285"/>
      <point x="467" y="393"/>
      <point x="410" y="532" type="curve" smooth="yes"/>
      <point x="353" y="672"/>
      <point x="297" y="752"/>
      <point x="289" y="752" type="curve" smooth="yes"/>
      <point x="279" y="752"/>
      <point x="238" y="594"/>
      <point x="238" y="582" type="curve" smooth="yes"/>
      <point x="238" y="571"/>
      <point x="465" y="334"/>
      <point x="465" y="-127" type="curve" smooth="yes"/>
      <point x="465" y="-133"/>
      <point x="469" y="-135"/>
      <point x="477" y="-135" type="curve" smooth="yes"/>
      <point x="483" y="-135"/>
      <point x="491" y="-133"/>
      <point x="492" y="-127" type="curve" smooth="yes"/>
      <point x="499" y="-71"/>
      <point x="504" y="-14"/>
    </contour>
  </outline>
</glyph>
<glyph name="absSwashKaf" format="2">
  <unicode hex="06AA"/>
  <advance width="1622"/>
  <anchor x="475" y="1020" name="diaA"/>
  <anchor x="600" y="-210" name="diaB"/>
  <anchor x="172" y="824" name="alef"/>
  <outline>
    <contour>
      <point x="1550" y="326" type="curve" smooth="yes"/>
      <point x="1550" y="428"/>
      <point x="1485" y="467"/>
      <point x="1405" y="467" type="curve" smooth="yes"/>
      <point x="422" y="467" type="line"/>
      <point x="377" y="467"/>
      <point x="338" y="494"/>
      <point x="338" y="537" type="curve" smooth="yes"/>
      <point x="338" y="633"/>
      <point x="485" y="723"/>
      <point x="606" y="723" type="curve" smooth="yes"/>
      <point x="649" y="723"/>
      <point x="672" y="713"/>
      <point x="680" y="682" type="curve"/>
      <point x="684" y="700"/>
      <point x="756" y="786"/>
      <point x="756" y="793" type="curve"/>
      <point x="754" y="831"/>
      <point x="702" y="868"/>
      <point x="668" y="868" type="curve" smooth="yes"/>
      <point x="496" y="868"/>
      <point x="250" y="690"/>
      <point x="250" y="483" type="curve" smooth="yes"/>
      <point x="250" y="389"/>
      <point x="307" y="342"/>
      <point x="373" y="342" type="curve" smooth="yes"/>
      <point x="1352" y="342" type="line" smooth="yes"/>
      <point x="1419" y="342"/>
      <point x="1475" y="324"/>
      <point x="1475" y="250" type="curve" smooth="yes"/>
      <point x="1475" y="184"/>
      <point x="1372" y="125"/>
      <point x="1223" y="125" type="curve" smooth="yes"/>
      <point x="233" y="125" type="line"/>
      <point x="25" y="139" type="line"/>
      <point x="25" y="139"/>
      <point x="14" y="135"/>
      <point x="14" y="125" type="curve" smooth="yes"/>
      <point x="14" y="120"/>
      <point x="17" y="112"/>
      <point x="25" y="106" type="curve"/>
      <point x="139" y="39"/>
      <point x="293" y="0"/>
      <point x="489" y="0" type="curve" smooth="yes"/>
      <point x="1147" y="0" type="line" smooth="yes"/>
      <point x="1372" y="0"/>
      <point x="1550" y="125"/>
    </contour>
  </outline>
</glyph>
<glyph name="absYehBarree" format="2">
  <unicode hex="06D2"/>
  <advance width="1481"/>
  <anchor x="394" y="498" name="above"/>
  <anchor x="745" y="-306" name="below"/>
  <anchor x="345" y="645" name="diaA"/>
  <anchor x="500" y="-400" name="diaB"/>
  <anchor x="184" y="376" name="alef"/>
  <outline>
    <contour>
      <point x="1432" y="-117" type="curve" smooth="yes"/>
      <point x="1432" y="-109"/>
      <point x="1423" y="-100"/>
      <point x="1415" y="-100" type="curve" smooth="yes"/>
      <point x="1395" y="-100"/>
      <point x="1202" y="-115"/>
      <point x="881" y="-115" type="curve" smooth="yes"/>
      <point x="500" y="-115"/>
      <point x="125" y="-94"/>
      <point x="125" y="-20" type="curve" smooth="yes"/>
      <point x="125" y="74"/>
      <point x="373" y="111"/>
      <point x="442" y="131" type="curve" smooth="yes"/>
      <point x="471" y="139"/>
      <point x="500" y="154"/>
      <point x="528" y="166" type="curve" smooth="yes"/>
      <point x="723" y="250"/>
      <point x="739" y="498"/>
      <point x="838" y="498" type="curve" smooth="yes"/>
      <point x="926" y="498"/>
      <point x="895" y="360"/>
      <point x="928" y="326" type="curve"/>
      <point x="944" y="340"/>
      <point x="950" y="373"/>
      <point x="950" y="393" type="curve" smooth="yes"/>
      <point x="950" y="451"/>
      <point x="926" y="649"/>
      <point x="850" y="649" type="curve" smooth="yes"/>
      <point x="805" y="649"/>
      <point x="762" y="534"/>
      <point x="736" y="477" type="curve" smooth="yes"/>
      <point x="672" y="337"/>
      <point x="522" y="299"/>
      <point x="395" y="245" type="curve" smooth="yes"/>
      <point x="293" y="201"/>
      <point x="59" y="31"/>
      <point x="59" y="-90" type="curve" smooth="yes"/>
      <point x="59" y="-117"/>
      <point x="62" y="-169"/>
      <point x="86" y="-186" type="curve" smooth="yes"/>
      <point x="186" y="-256"/>
      <point x="553" y="-256"/>
      <point x="668" y="-256" type="curve" smooth="yes"/>
      <point x="725" y="-256"/>
      <point x="948" y="-254"/>
      <point x="1114" y="-223" type="curve" smooth="yes"/>
      <point x="1303" y="-188"/>
      <point x="1432" y="-125"/>
    </contour>
  </outline>
</glyph>
<glyph name="absSmallHighSeen" format="2">
  <unicode hex="06DC"/>
  <anchor x="-15" y="961" name="_diaA"/>
  <outline>
    <contour>
      <point x="260" y="1389" type="curve" smooth="yes"/>
      <point x="260" y="1403"/>
      <point x="246" y="1440"/>
      <point x="233" y="1440" type="curve" smooth="yes"/>
      <point x="227" y="1440"/>
      <point x="213" y="1382"/>
      <point x="213" y="1380" type="curve"/>
      <point x="213" y="1376"/>
      <point x="236" y="1364"/>
      <point x="236" y="1354" type="curve" smooth="yes"/>
      <point x="236" y="1350"/>
      <point x="223" y="1343"/>
      <point x="219" y="1343" type="curve" smooth="yes"/>
      <point x="201" y="1343"/>
      <point x="155" y="1355"/>
      <point x="150" y="1395" type="curve" smooth="yes"/>
      <point x="149" y="1402"/>
      <point x="143" y="1407"/>
      <point x="143" y="1407" type="curve"/>
      <point x="139" y="1407"/>
      <point x="135" y="1403"/>
      <point x="135" y="1397" type="curve"/>
      <point x="129" y="1346"/>
      <point x="74" y="1298"/>
      <point x="23" y="1298" type="curve"/>
      <point x="18" y="1313"/>
      <point x="12" y="1327"/>
      <point x="4" y="1339" type="curve"/>
      <point x="0" y="1339"/>
      <point x="-23" y="1292"/>
      <point x="-23" y="1284" type="curve" smooth="yes"/>
      <point x="-23" y="1276"/>
      <point x="4" y="1251"/>
      <point x="4" y="1190" type="curve" smooth="yes"/>
      <point x="4" y="1139"/>
      <point x="-6" y="1110"/>
      <point x="-41" y="1085" type="curve" smooth="yes"/>
      <point x="-72" y="1063"/>
      <point x="-139" y="1051"/>
      <point x="-197" y="1051" type="curve" smooth="yes"/>
      <point x="-240" y="1051"/>
      <point x="-315" y="1073"/>
      <point x="-315" y="1139" type="curve" smooth="yes"/>
      <point x="-315" y="1194"/>
      <point x="-281" y="1235"/>
      <point x="-281" y="1243" type="curve"/>
      <point x="-281" y="1245"/>
      <point x="-285" y="1247"/>
      <point x="-287" y="1247" type="curve"/>
      <point x="-295" y="1247"/>
      <point x="-344" y="1176"/>
      <point x="-344" y="1112" type="curve" smooth="yes"/>
      <point x="-344" y="1044"/>
      <point x="-297" y="987"/>
      <point x="-219" y="987" type="curve" smooth="yes"/>
      <point x="-125" y="987"/>
      <point x="-6" y="1015"/>
      <point x="22" y="1154" type="curve" smooth="yes"/>
      <point x="29" y="1189"/>
      <point x="31" y="1207"/>
      <point x="31" y="1243" type="curve"/>
      <point x="78" y="1243"/>
      <point x="111" y="1290"/>
      <point x="125" y="1317" type="curve"/>
      <point x="144" y="1297"/>
      <point x="164" y="1276"/>
      <point x="195" y="1276" type="curve" smooth="yes"/>
      <point x="240" y="1276"/>
      <point x="260" y="1348"/>
    </contour>
  </outline>
</glyph>
<glyph name="absEmptyCentreLowStop" format="2">
  <unicode hex="06EA"/>
  <anchor x="0" y="-200" name="_diaB"/>
  <anchor x="0" y="-150" name="_dia2B"/>
  <anchor x="0" y="-200" name="_diaBtailUp"/>
  <anchor x="0" y="-200" name="_diaBtailDown"/>
  <outline>
    <contour>
      <point x="113" y="-352" type="line"/>
      <point x="0" y="-240" type="line"/>
      <point x="-113" y="-352" type="line"/>
      <point x="0" y="-465" type="line"/>
    </contour>
    <contour>
      <point x="84" y="-352" type="line"/>
      <point x="0" y="-436" type="line"/>
      <point x="-84" y="-352" type="line"/>
      <point x="0" y="-268" type="line"/>
    </contour>
  </outline>
</glyph>
<glyph name="absStraightWaw" format="2">
  <unicode hex="08B1"/>
  <advance width="435"/>
  <anchor x="181" y="-67" name="ring"/>
  <anchor x="245" y="-129" name="through"/>
  <anchor x="213" y="497" name="above"/>
  <anchor x="277" y="-540" name="below"/>
  <anchor x="233" y="-600" name="diaB"/>
  <anchor x="245" y="-129" name="center"/>
  <anchor x="196" y="700" name="diaA"/>
  <anchor x="168" y="600" name="alef"/>
  <outline>
    <contour>
      <point x="355" y="125" type="curve" smooth="yes"/>
      <point x="355" y="332"/>
      <point x="273" y="444"/>
      <point x="214" y="444" type="curve" smooth="yes"/>
      <point x="167" y="444"/>
      <point x="75" y="281"/>
      <point x="75" y="178" type="curve" smooth="yes" name="hr01"/>
      <point x="75" y="109"/>
      <point x="138" y="59"/>
      <point x="189" y="59" type="curve" smooth="yes"/>
      <point x="227" y="59"/>
      <point x="258" y="88"/>
      <point x="279" y="115" type="curve"/>
      <point x="286" y="94"/>
      <point x="287" y="71"/>
      <point x="287" y="38" type="curve" smooth="yes"/>
      <point x="287" y="-52"/>
      <point x="250" y="-209"/>
      <point x="250" y="-324" type="curve" smooth="yes"/>
      <point x="250" y="-370"/>
      <point x="265" y="-461"/>
      <point x="278" y="-461" type="curve" smooth="yes"/>
      <point x="294" y="-461"/>
      <point x="335" y="-366"/>
      <point x="335" y="-340" type="curve" smooth="yes"/>
      <point x="335" y="-324"/>
      <point x="318" y="-309"/>
      <point x="318" y="-242" type="curve" smooth="yes"/>
      <point x="318" y="-182"/>
      <point x="355" y="21"/>
    </contour>
    <contour>
      <point x="232" y="246" type="curve"/>
      <point x="224" y="227"/>
      <point x="200" y="209"/>
      <point x="185" y="209" type="curve" smooth="yes"/>
      <point x="167" y="209"/>
      <point x="153" y="229"/>
      <point x="153" y="240" type="curve" smooth="yes"/>
      <point x="153" y="262"/>
      <point x="161" y="281"/>
      <point x="181" y="281" type="curve" smooth="yes"/>
      <point x="194" y="281"/>
      <point x="218" y="268"/>
    </contour>
  </outline>
</glyph>
<glyph name="absTone1DotBelow" format="2">
  <unicode hex="08ED"/>
  <anchor x="141" y="-560" name="_diaB"/>
  <anchor x="178" y="-765" name="diaB"/>
  <anchor x="141" y="-560" name="_diaBtailUp"/>
  <anchor x="141" y="-560" name="_diaBtailDown"/>
  <outline>
    <contour>
      <point x="217" y="-650" type="curve" smooth="yes"/>
      <point x="217" y="-647"/>
      <point x="159" y="-602"/>
      <point x="150" y="-602" type="curve" smooth="yes"/>
      <point x="144" y="-602"/>
      <point x="103" y="-665"/>
      <point x="103" y="-671" type="curve" smooth="yes"/>
      <point x="103" y="-680"/>
      <point x="162" y="-722"/>
      <point x="169" y="-722" type="curve" smooth="yes"/>
      <point x="178" y="-722"/>
      <point x="217" y="-659"/>
    </contour>
  </outline>
</glyph>
<glyph name="absKasraDotBelow" format="2">
  <unicode hex="08F6"/>
  <anchor x="111" y="-609" name="_diaB"/>
  <anchor x="165" y="-917" name="diaB"/>
  <anchor x="111" y="-609" name="_diaBtailDown"/>
  <anchor x="120" y="-820" name="_diaA"/>
  <anchor x="90" y="-560" name="diaA"/>
  <outline>
    <component base="absFatha" yOffset="-1840"/>
    <contour>
      <point x="235" y="-854" type="curve" smooth="yes"/>
      <point x="235" y="-824"/>
      <point x="211" y="-800"/>
      <point x="181" y="-800" type="curve" smooth="yes"/>
      <point x="151" y="-800"/>
      <point x="127" y="-824"/>
      <point x="127" y="-854" type="curve" smooth="yes"/>
      <point x="127" y="-884"/>
      <point x="151" y="-908"/>
      <point x="181" y="-908" type="curve" smooth="yes"/>
      <point x="211" y="-908"/>
      <point x="235" y="-884"/>
    </contour>
  </outline>
</glyph>
<glyph name="absRightArrowheadAbove" format="2">
  <unicode hex="08F8"/>
  <anchor x="87" y="903" name="_diaA"/>
  <anchor x="87" y="1350" name="diaA"/>
  <outline>
    <contour>
      <point x="219" y="1069" type="curve"/>
      <point x="219" y="1128" type="line" smooth="yes"/>
      <point x="219" y="1134"/>
      <point x="208" y="1144"/>
      <point x="196" y="1155" type="curve" smooth="yes"/>
      <point x="144" y="1202"/>
      <point x="14" y="1298"/>
      <point x="8" y="1298" type="curve" smooth="yes"/>
      <point x="4" y="1298"/>
      <point x="0" y="1296"/>
      <point x="0" y="1290" type="curve" smooth="yes"/>
      <point x="0" y="1257" type="line" smooth="yes"/>
      <point x="0" y="1242"/>
      <point x="137" y="1113"/>
      <point x="137" y="1098" type="curve" smooth="yes"/>
      <point x="137" y="1083"/>
      <point x="0" y="951"/>
      <point x="0" y="936" type="curve" smooth="yes"/>
      <point x="0" y="903" type="line" smooth="yes"/>
      <point x="0" y="897"/>
      <point x="4" y="895"/>
      <point x="8" y="895" type="curve" smooth="yes"/>
      <point x="14" y="895"/>
      <point x="143" y="993"/>
      <point x="196" y="1042" type="curve" smooth="yes"/>
      <point x="209" y="1053"/>
      <point x="219" y="1063"/>
    </contour>
  </outline>
</glyph>
<glyph name="zerojoin" format="2">
  <unicode hex="200D"/>
  <outline>
    <contour>
      <point x="0" y="1145" type="curve" smooth="yes"/>
      <point x="-141" y="1145"/>
      <point x="-227" y="1079"/>
      <point x="-295" y="1020" type="curve"/>
      <point x="-295" y="1014"/>
      <point x="-279" y="997"/>
      <point x="-279" y="997" type="curve"/>
      <point x="-199" y="1053"/>
      <point x="-127" y="1069"/>
      <point x="0" y="1069" type="curve" smooth="yes"/>
      <point x="127" y="1069"/>
      <point x="199" y="1051"/>
      <point x="279" y="995" type="curve"/>
      <point x="279" y="995"/>
      <point x="295" y="1014"/>
      <point x="295" y="1020" type="curve"/>
      <point x="227" y="1079"/>
      <point x="141" y="1145"/>
    </contour>
    <contour>
      <point x="33" y="932" type="curve" smooth="yes"/>
      <point x="33" y="950"/>
      <point x="18" y="965"/>
      <point x="0" y="965" type="curve" smooth="yes"/>
      <point x="-18" y="965"/>
      <point x="-33" y="950"/>
      <point x="-33" y="932" type="curve" smooth="yes"/>
      <point x="-33" y="915"/>
      <point x="-18" y="899"/>
      <point x="0" y="899" type="curve" smooth="yes"/>
      <point x="18" y="899"/>
      <point x="33" y="915"/>
    </contour>
    <contour>
      <point x="33" y="782" type="curve" smooth="yes"/>
      <point x="33" y="799"/>
      <point x="18" y="813"/>
      <point x="0" y="813" type="curve" smooth="yes"/>
      <point x="-18" y="813"/>
      <point x="-33" y="799"/>
      <point x="-33" y="782" type="curve" smooth="yes"/>
      <point x="-33" y="764"/>
      <point x="-18" y="750"/>
      <point x="0" y="750" type="curve" smooth="yes"/>
      <point x="18" y="750"/>
      <point x="33" y="764"/>
    </contour>
    <contour>
      <point x="33" y="633" type="curve" smooth="yes"/>
      <point x="33" y="649"/>
      <point x="18" y="664"/>
      <point x="0" y="664" type="curve" smooth="yes"/>
      <point x="-18" y="664"/>
      <point x="-33" y="649"/>
      <point x="-33" y="633" type="curve" smooth="yes"/>
      <point x="-33" y="614"/>
      <point x="-18" y="600"/>
      <point x="0" y="600" type="curve" smooth="yes"/>
      <point x="18" y="600"/>
      <point x="33" y="614"/>
    </contour>
    <contour>
      <point x="33" y="481" type="curve" smooth="yes"/>
      <point x="33" y="500"/>
      <point x="18" y="514"/>
      <point x="0" y="514" type="curve" smooth="yes"/>
      <point x="-18" y="514"/>
      <point x="-33" y="500"/>
      <point x="-33" y="481" type="curve" smooth="yes"/>
      <point x="-33" y="465"/>
      <point x="-18" y="451"/>
      <point x="0" y="451" type="curve" smooth="yes"/>
      <point x="18" y="451"/>
      <point x="33" y="465"/>
    </contour>
    <contour>
      <point x="33" y="332" type="curve" smooth="yes"/>
      <point x="33" y="350"/>
      <point x="18" y="365"/>
      <point x="0" y="365" type="curve" smooth="yes"/>
      <point x="-18" y="365"/>
      <point x="-33" y="350"/>
      <point x="-33" y="332" type="curve" smooth="yes"/>
      <point x="-33" y="315"/>
      <point x="-18" y="299"/>
      <point x="0" y="299" type="curve" smooth="yes"/>
      <point x="18" y="299"/>
      <point x="33" y="315"/>
    </contour>
    <contour>
      <point x="33" y="182" type="curve" smooth="yes"/>
      <point x="33" y="199"/>
      <point x="18" y="213"/>
      <point x="0" y="213" type="curve" smooth="yes"/>
      <point x="-18" y="213"/>
      <point x="-33" y="199"/>
      <point x="-33" y="182" type="curve" smooth="yes"/>
      <point x="-33" y="164"/>
      <point x="-18" y="150"/>
      <point x="0" y="150" type="curve" smooth="yes"/>
      <point x="18" y="150"/>
      <point x="33" y="164"/>
    </contour>
    <contour>
      <point x="33" y="33" type="curve" smooth="yes"/>
      <point x="33" y="49"/>
      <point x="18" y="63"/>
      <point x="0" y="63" type="curve" smooth="yes"/>
      <point x="-18" y="63"/>
      <point x="-33" y="49"/>
      <point x="-33" y="33" type="curve" smooth="yes"/>
      <point x="-33" y="14"/>
      <point x="-18" y="0"/>
      <point x="0" y="0" type="curve" smooth="yes"/>
      <point x="18" y="0"/>
      <point x="33" y="14"/>
    </contour>
  </outline>
</glyph>
<glyph name="endash" format="2">
  <unicode hex="2013"/>
  <advance width="743"/>
  <outline>
    <contour>
      <point x="764" y="340" type="line"/>
      <point x="764" y="397" type="line"/>
      <point x="-33" y="397" type="line"/>
      <point x="-33" y="340" type="line"/>
    </contour>
  </outline>
</glyph>
<glyph name="quotedblleft" format="2">
  <unicode hex="201C"/>
  <advance width="786"/>
  <outline>
    <contour>
      <point x="641" y="743" type="curve" smooth="yes"/>
      <point x="641" y="786"/>
      <point x="608" y="823"/>
      <point x="565" y="823" type="curve" smooth="yes"/>
      <point x="547" y="823"/>
      <point x="528" y="813"/>
      <point x="510" y="813" type="curve" smooth="yes"/>
      <point x="485" y="813"/>
      <point x="481" y="840"/>
      <point x="481" y="858" type="curve" smooth="yes"/>
      <point x="481" y="930"/>
      <point x="553" y="981"/>
      <point x="608" y="1014" type="curve"/>
      <point x="608" y="1047" type="line"/>
      <point x="492" y="1008"/>
      <point x="412" y="934"/>
      <point x="412" y="807" type="curve" smooth="yes"/>
      <point x="412" y="733"/>
      <point x="463" y="655"/>
      <point x="543" y="655" type="curve" smooth="yes"/>
      <point x="592" y="655"/>
      <point x="641" y="690"/>
    </contour>
    <contour>
      <point x="281" y="745" type="curve" smooth="yes"/>
      <point x="281" y="786"/>
      <point x="248" y="825"/>
      <point x="205" y="825" type="curve" smooth="yes"/>
      <point x="186" y="825"/>
      <point x="168" y="813"/>
      <point x="150" y="813" type="curve" smooth="yes"/>
      <point x="123" y="813"/>
      <point x="121" y="840"/>
      <point x="121" y="860" type="curve" smooth="yes"/>
      <point x="121" y="932"/>
      <point x="190" y="983"/>
      <point x="246" y="1016" type="curve"/>
      <point x="246" y="1049" type="line"/>
      <point x="131" y="1010"/>
      <point x="51" y="936"/>
      <point x="51" y="807" type="curve" smooth="yes"/>
      <point x="51" y="735"/>
      <point x="102" y="657"/>
      <point x="180" y="657" type="curve" smooth="yes"/>
      <point x="231" y="657"/>
      <point x="281" y="692"/>
    </contour>
  </outline>
</glyph>
<glyph name="daggerdbl" format="2">
  <unicode hex="2021"/>
  <advance width="772"/>
  <outline>
    <contour>
      <point x="668" y="-10" type="curve" smooth="yes"/>
      <point x="668" y="29"/>
      <point x="635" y="55"/>
      <point x="596" y="55" type="curve" smooth="yes"/>
      <point x="528" y="55"/>
      <point x="469" y="6"/>
      <point x="399" y="4" type="curve" name="hr01"/>
      <point x="408" y="61"/>
      <point x="426" y="92"/>
      <point x="471" y="127" type="curve"/>
      <point x="420" y="197"/>
      <point x="399" y="281"/>
      <point x="399" y="365" type="curve" smooth="yes"/>
      <point x="399" y="451"/>
      <point x="422" y="537"/>
      <point x="471" y="608" type="curve"/>
      <point x="422" y="645"/>
      <point x="406" y="676"/>
      <point x="399" y="737" type="curve"/>
      <point x="467" y="727"/>
      <point x="528" y="684"/>
      <point x="596" y="684" type="curve" smooth="yes"/>
      <point x="639" y="684"/>
      <point x="668" y="705"/>
      <point x="668" y="750" type="curve" smooth="yes" name="hr02"/>
      <point x="668" y="795"/>
      <point x="643" y="817"/>
      <point x="600" y="817" type="curve" smooth="yes"/>
      <point x="530" y="817"/>
      <point x="471" y="770"/>
      <point x="399" y="764" type="curve" name="hr03"/>
      <point x="406" y="844"/>
      <point x="459" y="926"/>
      <point x="459" y="985" type="curve" smooth="yes" name="hr04"/>
      <point x="459" y="1036"/>
      <point x="440" y="1071"/>
      <point x="387" y="1071" type="curve" smooth="yes"/>
      <point x="340" y="1071"/>
      <point x="309" y="1034"/>
      <point x="309" y="989" type="curve" smooth="yes"/>
      <point x="309" y="915"/>
      <point x="369" y="844"/>
      <point x="371" y="764" type="curve" name="hr05"/>
      <point x="301" y="770"/>
      <point x="236" y="817"/>
      <point x="170" y="817" type="curve" smooth="yes"/>
      <point x="127" y="817"/>
      <point x="104" y="795"/>
      <point x="104" y="752" type="curve" smooth="yes" name="hr06"/>
      <point x="104" y="709"/>
      <point x="127" y="686"/>
      <point x="170" y="686" type="curve" smooth="yes"/>
      <point x="242" y="686"/>
      <point x="299" y="731"/>
      <point x="371" y="737" type="curve" name="hr07"/>
      <point x="358" y="677"/>
      <point x="350" y="645"/>
      <point x="297" y="608" type="curve"/>
      <point x="354" y="545"/>
      <point x="371" y="457"/>
      <point x="371" y="375" type="curve" smooth="yes"/>
      <point x="371" y="287"/>
      <point x="348" y="199"/>
      <point x="297" y="127" type="curve"/>
      <point x="350" y="88"/>
      <point x="356" y="70"/>
      <point x="371" y="6" type="curve"/>
      <point x="301" y="6"/>
      <point x="244" y="55"/>
      <point x="180" y="55" type="curve" smooth="yes"/>
      <point x="133" y="55"/>
      <point x="106" y="35"/>
      <point x="106" y="-14" type="curve" smooth="yes"/>
      <point x="106" y="-57"/>
      <point x="131" y="-80"/>
      <point x="176" y="-80" type="curve" smooth="yes"/>
      <point x="233" y="-80"/>
      <point x="293" y="-29"/>
      <point x="371" y="-29" type="curve"/>
      <point x="360" y="-102"/>
      <point x="311" y="-188"/>
      <point x="311" y="-252" type="curve" smooth="yes"/>
      <point x="311" y="-293"/>
      <point x="344" y="-334"/>
      <point x="387" y="-334" type="curve" smooth="yes"/>
      <point x="432" y="-334"/>
      <point x="463" y="-296"/>
      <point x="463" y="-252" type="curve" smooth="yes"/>
      <point x="463" y="-182"/>
      <point x="408" y="-102"/>
      <point x="399" y="-29" type="curve" name="hr08"/>
      <point x="471" y="-31"/>
      <point x="532" y="-80"/>
      <point x="596" y="-80" type="curve" smooth="yes"/>
      <point x="643" y="-80"/>
      <point x="668" y="-57"/>
    </contour>
  </outline>
</glyph>
<glyph name="bullet" format="2">
  <unicode hex="2022"/>
  <advance width="446"/>
  <outline>
    <contour>
      <point x="393" y="506" type="curve" smooth="yes"/>
      <point x="393" y="600"/>
      <point x="317" y="676"/>
      <point x="223" y="676" type="curve" smooth="yes"/>
      <point x="127" y="676"/>
      <point x="51" y="600"/>
      <point x="51" y="506" type="curve" smooth="yes"/>
      <point x="51" y="410"/>
      <point x="127" y="334"/>
      <point x="223" y="334" type="curve" smooth="yes"/>
      <point x="317" y="334"/>
      <point x="393" y="410"/>
    </contour>
  </outline>
</glyph>
<glyph name="guilsinglleft" format="2">
  <unicode hex="2039"/>
  <advance width="514"/>
  <outline>
    <contour>
      <point x="422" y="-6" type="line"/>
      <point x="238" y="350" type="line"/>
      <point x="422" y="705" type="line"/>
      <point x="381" y="705" type="line"/>
      <point x="90" y="350" type="line"/>
      <point x="381" y="-6" type="line"/>
    </contour>
  </outline>
</glyph>
<glyph name="guilsinglright" format="2">
  <unicode hex="203A"/>
  <advance width="514"/>
  <outline>
    <contour>
      <point x="424" y="348" type="line"/>
      <point x="133" y="705" type="line"/>
      <point x="92" y="705" type="line"/>
      <point x="276" y="348" type="line"/>
      <point x="92" y="-6" type="line"/>
      <point x="133" y="-6" type="line"/>
    </contour>
  </outline>
</glyph>
<glyph name="popDirectionalIsolate" format="2">
  <unicode hex="2069"/>
  <advance width="1024"/>
  <outline>
    <contour>
      <point x="993" y="932" type="curve" smooth="yes"/>
      <point x="993" y="950"/>
      <point x="979" y="965"/>
      <point x="963" y="965" type="curve" smooth="yes"/>
      <point x="944" y="965"/>
      <point x="930" y="950"/>
      <point x="930" y="932" type="curve" smooth="yes"/>
      <point x="930" y="915"/>
      <point x="944" y="899"/>
      <point x="963" y="899" type="curve" smooth="yes"/>
      <point x="979" y="899"/>
      <point x="993" y="915"/>
    </contour>
    <contour>
      <point x="844" y="932" type="curve" smooth="yes"/>
      <point x="844" y="950"/>
      <point x="829" y="965"/>
      <point x="811" y="965" type="curve" smooth="yes"/>
      <point x="795" y="965"/>
      <point x="780" y="950"/>
      <point x="780" y="932" type="curve" smooth="yes"/>
      <point x="780" y="915"/>
      <point x="795" y="899"/>
      <point x="811" y="899" type="curve" smooth="yes"/>
      <point x="829" y="899"/>
      <point x="844" y="915"/>
    </contour>
    <contour>
      <point x="993" y="782" type="curve" smooth="yes"/>
      <point x="993" y="799"/>
      <point x="979" y="813"/>
      <point x="963" y="813" type="curve" smooth="yes"/>
      <point x="944" y="813"/>
      <point x="930" y="799"/>
      <point x="930" y="782" type="curve" smooth="yes"/>
      <point x="930" y="764"/>
      <point x="944" y="750"/>
      <point x="963" y="750" type="curve" smooth="yes"/>
      <point x="979" y="750"/>
      <point x="993" y="764"/>
    </contour>
    <contour>
      <point x="694" y="932" type="curve" smooth="yes"/>
      <point x="694" y="950"/>
      <point x="680" y="965"/>
      <point x="662" y="965" type="curve" smooth="yes"/>
      <point x="645" y="965"/>
      <point x="631" y="950"/>
      <point x="631" y="932" type="curve" smooth="yes"/>
      <point x="631" y="915"/>
      <point x="645" y="899"/>
      <point x="662" y="899" type="curve" smooth="yes"/>
      <point x="680" y="899"/>
      <point x="694" y="915"/>
    </contour>
    <contour>
      <point x="993" y="633" type="curve" smooth="yes"/>
      <point x="993" y="649"/>
      <point x="979" y="664"/>
      <point x="963" y="664" type="curve" smooth="yes"/>
      <point x="944" y="664"/>
      <point x="930" y="649"/>
      <point x="930" y="633" type="curve" smooth="yes"/>
      <point x="930" y="614"/>
      <point x="944" y="600"/>
      <point x="963" y="600" type="curve" smooth="yes"/>
      <point x="979" y="600"/>
      <point x="993" y="614"/>
    </contour>
    <contour>
      <point x="545" y="932" type="curve" smooth="yes"/>
      <point x="545" y="950"/>
      <point x="530" y="965"/>
      <point x="512" y="965" type="curve" smooth="yes"/>
      <point x="494" y="965"/>
      <point x="479" y="950"/>
      <point x="479" y="932" type="curve" smooth="yes"/>
      <point x="479" y="915"/>
      <point x="494" y="899"/>
      <point x="512" y="899" type="curve" smooth="yes"/>
      <point x="530" y="899"/>
      <point x="545" y="915"/>
    </contour>
    <contour>
      <point x="993" y="481" type="curve" smooth="yes"/>
      <point x="993" y="500"/>
      <point x="979" y="514"/>
      <point x="963" y="514" type="curve" smooth="yes"/>
      <point x="944" y="514"/>
      <point x="930" y="500"/>
      <point x="930" y="481" type="curve" smooth="yes"/>
      <point x="930" y="465"/>
      <point x="944" y="451"/>
      <point x="963" y="451" type="curve" smooth="yes"/>
      <point x="979" y="451"/>
      <point x="993" y="465"/>
    </contour>
    <contour>
      <point x="393" y="932" type="curve" smooth="yes"/>
      <point x="393" y="950"/>
      <point x="379" y="965"/>
      <point x="362" y="965" type="curve" smooth="yes"/>
      <point x="344" y="965"/>
      <point x="330" y="950"/>
      <point x="330" y="932" type="curve" smooth="yes"/>
      <point x="330" y="915"/>
      <point x="344" y="899"/>
      <point x="362" y="899" type="curve" smooth="yes"/>
      <point x="379" y="899"/>
      <point x="393" y="915"/>
    </contour>
    <contour>
      <point x="993" y="332" type="curve" smooth="yes"/>
      <point x="993" y="350"/>
      <point x="979" y="365"/>
      <point x="963" y="365" type="curve" smooth="yes"/>
      <point x="944" y="365"/>
      <point x="930" y="350"/>
      <point x="930" y="332" type="curve" smooth="yes"/>
      <point x="930" y="315"/>
      <point x="944" y="299"/>
      <point x="963" y="299" type="curve" smooth="yes"/>
      <point x="979" y="299"/>
      <point x="993" y="315"/>
    </contour>
    <contour>
      <point x="993" y="182" type="curve" smooth="yes"/>
      <point x="993" y="199"/>
      <point x="979" y="213"/>
      <point x="963" y="213" type="curve" smooth="yes"/>
      <point x="944" y="213"/>
      <point x="930" y="199"/>
      <point x="930" y="182" type="curve" smooth="yes"/>
      <point x="930" y="164"/>
      <point x="944" y="150"/>
      <point x="963" y="150" type="curve" smooth="yes"/>
      <point x="979" y="150"/>
      <point x="993" y="164"/>
    </contour>
    <contour>
      <point x="244" y="932" type="curve" smooth="yes"/>
      <point x="244" y="950"/>
      <point x="229" y="965"/>
      <point x="213" y="965" type="curve" smooth="yes"/>
      <point x="195" y="965"/>
      <point x="180" y="950"/>
      <point x="180" y="932" type="curve" smooth="yes"/>
      <point x="180" y="915"/>
      <point x="195" y="899"/>
      <point x="213" y="899" type="curve" smooth="yes"/>
      <point x="229" y="899"/>
      <point x="244" y="915"/>
    </contour>
    <contour>
      <point x="94" y="932" type="curve" smooth="yes"/>
      <point x="94" y="950"/>
      <point x="80" y="965"/>
      <point x="61" y="965" type="curve" smooth="yes"/>
      <point x="45" y="965"/>
      <point x="31" y="950"/>
      <point x="31" y="932" type="curve" smooth="yes"/>
      <point x="31" y="915"/>
      <point x="45" y="899"/>
      <point x="61" y="899" type="curve" smooth="yes"/>
      <point x="80" y="899"/>
      <point x="94" y="915"/>
    </contour>
    <contour>
      <point x="993" y="33" type="curve" smooth="yes"/>
      <point x="993" y="49"/>
      <point x="979" y="63"/>
      <point x="963" y="63" type="curve" smooth="yes"/>
      <point x="944" y="63"/>
      <point x="930" y="49"/>
      <point x="930" y="33" type="curve" smooth="yes"/>
      <point x="930" y="14"/>
      <point x="944" y="0"/>
      <point x="963" y="0" type="curve" smooth="yes"/>
      <point x="979" y="0"/>
      <point x="993" y="14"/>
    </contour>
    <contour>
      <point x="94" y="782" type="curve" smooth="yes"/>
      <point x="94" y="799"/>
      <point x="80" y="813"/>
      <point x="61" y="813" type="curve" smooth="yes"/>
      <point x="45" y="813"/>
      <point x="31" y="799"/>
      <point x="31" y="782" type="curve" smooth="yes"/>
      <point x="31" y="764"/>
      <point x="45" y="750"/>
      <point x="61" y="750" type="curve" smooth="yes"/>
      <point x="80" y="750"/>
      <point x="94" y="764"/>
    </contour>
    <contour>
      <point x="844" y="33" type="curve" smooth="yes"/>
      <point x="844" y="49"/>
      <point x="829" y="63"/>
      <point x="811" y="63" type="curve" smooth="yes"/>
      <point x="795" y="63"/>
      <point x="780" y="49"/>
      <point x="780" y="33" type="curve" smooth="yes"/>
      <point x="780" y="14"/>
      <point x="795" y="0"/>
      <point x="811" y="0" type="curve" smooth="yes"/>
      <point x="829" y="0"/>
      <point x="844" y="14"/>
    </contour>
    <contour>
      <point x="94" y="633" type="curve" smooth="yes"/>
      <point x="94" y="649"/>
      <point x="80" y="664"/>
      <point x="61" y="664" type="curve" smooth="yes"/>
      <point x="45" y="664"/>
      <point x="31" y="649"/>
      <point x="31" y="633" type="curve" smooth="yes"/>
      <point x="31" y="614"/>
      <point x="45" y="600"/>
      <point x="61" y="600" type="curve" smooth="yes"/>
      <point x="80" y="600"/>
      <point x="94" y="614"/>
    </contour>
    <contour>
      <point x="694" y="33" type="curve" smooth="yes"/>
      <point x="694" y="49"/>
      <point x="680" y="63"/>
      <point x="662" y="63" type="curve" smooth="yes"/>
      <point x="645" y="63"/>
      <point x="631" y="49"/>
      <point x="631" y="33" type="curve" smooth="yes"/>
      <point x="631" y="14"/>
      <point x="645" y="0"/>
      <point x="662" y="0" type="curve" smooth="yes"/>
      <point x="680" y="0"/>
      <point x="694" y="14"/>
    </contour>
    <contour>
      <point x="94" y="481" type="curve" smooth="yes"/>
      <point x="94" y="500"/>
      <point x="80" y="514"/>
      <point x="61" y="514" type="curve" smooth="yes"/>
      <point x="45" y="514"/>
      <point x="31" y="500"/>
      <point x="31" y="481" type="curve" smooth="yes"/>
      <point x="31" y="465"/>
      <point x="45" y="451"/>
      <point x="61" y="451" type="curve" smooth="yes"/>
      <point x="80" y="451"/>
      <point x="94" y="465"/>
    </contour>
    <contour>
      <point x="545" y="33" type="curve" smooth="yes"/>
      <point x="545" y="49"/>
      <point x="530" y="63"/>
      <point x="512" y="63" type="curve" smooth="yes"/>
      <point x="494" y="63"/>
      <point x="479" y="49"/>
      <point x="479" y="33" type="curve" smooth="yes"/>
      <point x="479" y="14"/>
      <point x="494" y="0"/>
      <point x="512" y="0" type="curve" smooth="yes"/>
      <point x="530" y="0"/>
      <point x="545" y="14"/>
    </contour>
    <contour>
      <point x="94" y="332" type="curve" smooth="yes"/>
      <point x="94" y="350"/>
      <point x="80" y="365"/>
      <point x="61" y="365" type="curve" smooth="yes"/>
      <point x="45" y="365"/>
      <point x="31" y="350"/>
      <point x="31" y="332" type="curve" smooth="yes"/>
      <point x="31" y="315"/>
      <point x="45" y="299"/>
      <point x="61" y="299" type="curve" smooth="yes"/>
      <point x="80" y="299"/>
      <point x="94" y="315"/>
    </contour>
    <contour>
      <point x="393" y="33" type="curve" smooth="yes"/>
      <point x="393" y="49"/>
      <point x="379" y="63"/>
      <point x="362" y="63" type="curve" smooth="yes"/>
      <point x="344" y="63"/>
      <point x="330" y="49"/>
      <point x="330" y="33" type="curve" smooth="yes"/>
      <point x="330" y="14"/>
      <point x="344" y="0"/>
      <point x="362" y="0" type="curve" smooth="yes"/>
      <point x="379" y="0"/>
      <point x="393" y="14"/>
    </contour>
    <contour>
      <point x="94" y="182" type="curve" smooth="yes"/>
      <point x="94" y="199"/>
      <point x="80" y="213"/>
      <point x="61" y="213" type="curve" smooth="yes"/>
      <point x="45" y="213"/>
      <point x="31" y="199"/>
      <point x="31" y="182" type="curve" smooth="yes"/>
      <point x="31" y="164"/>
      <point x="45" y="150"/>
      <point x="61" y="150" type="curve" smooth="yes"/>
      <point x="80" y="150"/>
      <point x="94" y="164"/>
    </contour>
    <contour>
      <point x="244" y="33" type="curve" smooth="yes"/>
      <point x="244" y="49"/>
      <point x="229" y="63"/>
      <point x="213" y="63" type="curve" smooth="yes"/>
      <point x="195" y="63"/>
      <point x="180" y="49"/>
      <point x="180" y="33" type="curve" smooth="yes"/>
      <point x="180" y="14"/>
      <point x="195" y="0"/>
      <point x="213" y="0" type="curve" smooth="yes"/>
      <point x="229" y="0"/>
      <point x="244" y="14"/>
    </contour>
    <contour>
      <point x="94" y="33" type="curve" smooth="yes"/>
      <point x="94" y="49"/>
      <point x="80" y="63"/>
      <point x="61" y="63" type="curve" smooth="yes"/>
      <point x="45" y="63"/>
      <point x="31" y="49"/>
      <point x="31" y="33" type="curve" smooth="yes"/>
      <point x="31" y="14"/>
      <point x="45" y="0"/>
      <point x="61" y="0" type="curve" smooth="yes"/>
      <point x="80" y="0"/>
      <point x="94" y="14"/>
    </contour>
    <contour>
      <point x="768" y="300" type="line"/>
      <point x="776" y="300"/>
      <point x="779" y="305"/>
      <point x="779" y="311" type="curve" smooth="yes"/>
      <point x="779" y="316"/>
      <point x="776" y="321"/>
      <point x="768" y="321" type="curve" smooth="yes"/>
      <point x="727" y="321" type="line"/>
      <point x="727" y="603" type="line"/>
      <point x="768" y="603" type="line" smooth="yes"/>
      <point x="776" y="603"/>
      <point x="779" y="608"/>
      <point x="779" y="614" type="curve" smooth="yes"/>
      <point x="779" y="619"/>
      <point x="776" y="624"/>
      <point x="768" y="624" type="curve" smooth="yes"/>
      <point x="666" y="624" type="line" smooth="yes"/>
      <point x="659" y="624"/>
      <point x="655" y="619"/>
      <point x="655" y="614" type="curve" smooth="yes"/>
      <point x="655" y="608"/>
      <point x="659" y="603"/>
      <point x="666" y="603" type="curve" smooth="yes"/>
      <point x="707" y="603" type="line"/>
      <point x="707" y="321" type="line"/>
      <point x="666" y="321" type="line" smooth="yes"/>
      <point x="659" y="321"/>
      <point x="655" y="316"/>
      <point x="655" y="311" type="curve" smooth="yes"/>
      <point x="655" y="305"/>
      <point x="659" y="300"/>
      <point x="666" y="300" type="curve" smooth="yes"/>
    </contour>
    <contour>
      <point x="263" y="312" type="curve"/>
      <point x="263" y="449" type="line"/>
      <point x="309" y="449" type="line" smooth="yes"/>
      <point x="375" y="449"/>
      <point x="409" y="493"/>
      <point x="409" y="537" type="curve" smooth="yes"/>
      <point x="409" y="581"/>
      <point x="375" y="624"/>
      <point x="309" y="624" type="curve" smooth="yes"/>
      <point x="254" y="624" type="line" smooth="yes"/>
      <point x="248" y="624"/>
      <point x="244" y="621"/>
      <point x="243" y="614" type="curve"/>
      <point x="243" y="311" type="line"/>
      <point x="244" y="305"/>
      <point x="248" y="301"/>
      <point x="253" y="301" type="curve" smooth="yes"/>
      <point x="258" y="301"/>
      <point x="262" y="305"/>
    </contour>
    <contour>
      <point x="263" y="604" type="line"/>
      <point x="306" y="604" type="line" smooth="yes"/>
      <point x="362" y="604"/>
      <point x="390" y="570"/>
      <point x="390" y="536" type="curve" smooth="yes"/>
      <point x="390" y="502"/>
      <point x="362" y="469"/>
      <point x="306" y="469" type="curve" smooth="yes"/>
      <point x="263" y="469" type="line"/>
    </contour>
    <contour>
      <point x="449" y="614" type="curve"/>
      <point x="449" y="300" type="line"/>
      <point x="515" y="300" type="line" smooth="yes"/>
      <point x="581" y="300"/>
      <point x="615" y="344"/>
      <point x="615" y="388" type="curve" smooth="yes"/>
      <point x="615" y="537" type="line" smooth="yes"/>
      <point x="615" y="581"/>
      <point x="581" y="624"/>
      <point x="515" y="624" type="curve" smooth="yes"/>
      <point x="460" y="624" type="line" smooth="yes"/>
      <point x="454" y="624"/>
      <point x="450" y="621"/>
    </contour>
    <contour>
      <point x="469" y="604" type="line"/>
      <point x="512" y="604" type="line" smooth="yes"/>
      <point x="568" y="604"/>
      <point x="596" y="570"/>
      <point x="596" y="536" type="curve" smooth="yes"/>
      <point x="596" y="387" type="line" smooth="yes"/>
      <point x="596" y="353"/>
      <point x="568" y="320"/>
      <point x="512" y="320" type="curve" smooth="yes"/>
      <point x="469" y="320" type="line"/>
    </contour>
  </outline>
</glyph>
<glyph name="minus" format="2">
  <unicode hex="2212"/>
  <advance width="915"/>
  <outline>
    <contour>
      <point x="872" y="391" type="line"/>
      <point x="872" y="455" type="line"/>
      <point x="37" y="455" type="line"/>
      <point x="37" y="391" type="line"/>
    </contour>
  </outline>
</glyph>
<glyph name="radical" format="2">
  <unicode hex="221A"/>
  <advance width="907"/>
  <outline>
    <contour>
      <point x="907" y="956" type="line"/>
      <point x="907" y="1004" type="line"/>
      <point x="781" y="1004" type="line"/>
      <point x="523" y="62" type="line"/>
      <point x="216" y="663" type="line"/>
      <point x="31" y="570" type="line"/>
      <point x="57" y="523" type="line"/>
      <point x="154" y="571" type="line"/>
      <point x="495" y="-100" type="line"/>
      <point x="542" y="-100" type="line"/>
      <point x="828" y="956" type="line"/>
    </contour>
  </outline>
</glyph>
<glyph name="ornateLeftParen" format="2">
  <unicode hex="FD3E"/>
  <advance width="842"/>
  <outline>
    <contour>
      <point x="801" y="-408" type="curve"/>
      <point x="668" y="-285"/>
      <point x="559" y="-168"/>
      <point x="506" y="8" type="curve"/>
      <point x="510" y="7"/>
      <point x="515" y="7"/>
      <point x="521" y="7" type="curve" smooth="yes"/>
      <point x="536" y="7"/>
      <point x="564" y="13"/>
      <point x="578" y="13" type="curve" smooth="yes"/>
      <point x="600" y="13"/>
      <point x="612" y="7"/>
      <point x="645" y="-12" type="curve"/>
      <point x="628" y="17"/>
      <point x="618" y="30"/>
      <point x="618" y="52" type="curve" smooth="yes"/>
      <point x="618" y="66"/>
      <point x="626" y="94"/>
      <point x="626" y="112" type="curve" smooth="yes"/>
      <point x="626" y="129"/>
      <point x="622" y="142"/>
      <point x="614" y="152" type="curve"/>
      <point x="631" y="154"/>
      <point x="647" y="164"/>
      <point x="666" y="191" type="curve" smooth="yes"/>
      <point x="690" y="226"/>
      <point x="701" y="231"/>
      <point x="752" y="244" type="curve"/>
      <point x="699" y="257"/>
      <point x="691" y="261"/>
      <point x="665" y="300" type="curve" smooth="yes"/>
      <point x="655" y="315"/>
      <point x="639" y="334"/>
      <point x="614" y="338" type="curve"/>
      <point x="622" y="348"/>
      <point x="626" y="360"/>
      <point x="626" y="376" type="curve" smooth="yes"/>
      <point x="626" y="394"/>
      <point x="618" y="423"/>
      <point x="618" y="436" type="curve" smooth="yes"/>
      <point x="618" y="460"/>
      <point x="628" y="471"/>
      <point x="645" y="500" type="curve"/>
      <point x="614" y="483"/>
      <point x="602" y="474"/>
      <point x="578" y="474" type="curve" smooth="yes"/>
      <point x="564" y="474"/>
      <point x="536" y="480"/>
      <point x="522" y="480" type="curve" smooth="yes"/>
      <point x="516" y="480"/>
      <point x="510" y="479"/>
      <point x="506" y="478" type="curve"/>
      <point x="559" y="650"/>
      <point x="670" y="770"/>
      <point x="801" y="891" type="curve"/>
      <point x="665" y="853"/>
      <point x="527" y="739"/>
      <point x="422" y="592" type="curve"/>
      <point x="408" y="621"/>
      <point x="397" y="649"/>
      <point x="389" y="682" type="curve"/>
      <point x="377" y="639"/>
      <point x="365" y="599"/>
      <point x="336" y="563" type="curve" smooth="yes"/>
      <point x="307" y="527"/>
      <point x="296" y="500"/>
      <point x="295" y="469" type="curve"/>
      <point x="287" y="476"/>
      <point x="275" y="480"/>
      <point x="258" y="480" type="curve" smooth="yes"/>
      <point x="241" y="480"/>
      <point x="214" y="474"/>
      <point x="200" y="474" type="curve" smooth="yes"/>
      <point x="175" y="474"/>
      <point x="163" y="483"/>
      <point x="131" y="500" type="curve"/>
      <point x="150" y="471"/>
      <point x="158" y="457"/>
      <point x="158" y="436" type="curve" smooth="yes"/>
      <point x="158" y="424"/>
      <point x="153" y="399"/>
      <point x="153" y="380" type="curve" smooth="yes"/>
      <point x="153" y="362"/>
      <point x="157" y="349"/>
      <point x="164" y="338" type="curve"/>
      <point x="144" y="334"/>
      <point x="130" y="324"/>
      <point x="113" y="299" type="curve" smooth="yes"/>
      <point x="83" y="256"/>
      <point x="71" y="257"/>
      <point x="27" y="244" type="curve"/>
      <point x="64" y="235"/>
      <point x="89" y="227"/>
      <point x="113" y="191" type="curve" smooth="yes"/>
      <point x="131" y="165"/>
      <point x="141" y="155"/>
      <point x="164" y="152" type="curve"/>
      <point x="157" y="141"/>
      <point x="153" y="127"/>
      <point x="153" y="108" type="curve" smooth="yes"/>
      <point x="153" y="90"/>
      <point x="158" y="66"/>
      <point x="158" y="53" type="curve" smooth="yes"/>
      <point x="158" y="30"/>
      <point x="149" y="18"/>
      <point x="131" y="-12" type="curve"/>
      <point x="163" y="5"/>
      <point x="175" y="13"/>
      <point x="200" y="13" type="curve" smooth="yes"/>
      <point x="213" y="13"/>
      <point x="241" y="7"/>
      <point x="258" y="7" type="curve" smooth="yes"/>
      <point x="275" y="7"/>
      <point x="287" y="11"/>
      <point x="295" y="18" type="curve"/>
      <point x="295" y="-10"/>
      <point x="307" y="-40"/>
      <point x="336" y="-76" type="curve" smooth="yes"/>
      <point x="365" y="-112"/>
      <point x="378" y="-152"/>
      <point x="389" y="-195" type="curve"/>
      <point x="397" y="-164"/>
      <point x="406" y="-135"/>
      <point x="420" y="-108" type="curve"/>
      <point x="531" y="-262"/>
      <point x="664" y="-365"/>
    </contour>
    <contour>
      <point x="709" y="831" type="curve"/>
      <point x="598" y="719"/>
      <point x="520" y="603"/>
      <point x="483" y="470" type="curve"/>
      <point x="482" y="517"/>
      <point x="456" y="540"/>
      <point x="434" y="573" type="curve"/>
      <point x="496" y="666"/>
      <point x="606" y="776"/>
    </contour>
    <contour>
      <point x="606" y="376" type="curve" smooth="yes"/>
      <point x="606" y="348"/>
      <point x="588" y="333"/>
      <point x="528" y="313" type="curve"/>
      <point x="526" y="319"/>
      <point x="522" y="326"/>
      <point x="518" y="332" type="curve"/>
      <point x="531" y="339"/>
      <point x="550" y="356"/>
      <point x="550" y="373" type="curve" smooth="yes"/>
      <point x="550" y="380"/>
      <point x="547" y="388"/>
      <point x="547" y="395" type="curve" smooth="yes"/>
      <point x="547" y="399"/>
      <point x="547" y="402"/>
      <point x="549" y="406" type="curve"/>
      <point x="545" y="403"/>
      <point x="540" y="402"/>
      <point x="535" y="402" type="curve" smooth="yes"/>
      <point x="529" y="402"/>
      <point x="522" y="406"/>
      <point x="516" y="406" type="curve" smooth="yes"/>
      <point x="501" y="406"/>
      <point x="482" y="383"/>
      <point x="477" y="373" type="curve"/>
      <point x="472" y="377"/>
      <point x="464" y="382"/>
      <point x="459" y="385" type="curve"/>
      <point x="479" y="436"/>
      <point x="484" y="447"/>
      <point x="492" y="453" type="curve" smooth="yes"/>
      <point x="499" y="459"/>
      <point x="511" y="461"/>
      <point x="524" y="461" type="curve" smooth="yes"/>
      <point x="543" y="461"/>
      <point x="567" y="456"/>
      <point x="586" y="456" type="curve" smooth="yes"/>
      <point x="592" y="456"/>
      <point x="597" y="456"/>
      <point x="602" y="457" type="curve"/>
      <point x="600" y="449"/>
      <point x="599" y="443"/>
      <point x="599" y="433" type="curve" smooth="yes"/>
      <point x="599" y="407"/>
      <point x="606" y="401"/>
    </contour>
    <contour>
      <point x="462" y="472" type="curve" smooth="yes"/>
      <point x="462" y="449"/>
      <point x="453" y="425"/>
      <point x="438" y="393" type="curve"/>
      <point x="432" y="395"/>
      <point x="424" y="397"/>
      <point x="418" y="397" type="curve"/>
      <point x="420" y="405"/>
      <point x="421" y="413"/>
      <point x="421" y="422" type="curve" smooth="yes"/>
      <point x="421" y="452"/>
      <point x="399" y="461"/>
      <point x="389" y="498" type="curve"/>
      <point x="374" y="461"/>
      <point x="355" y="452"/>
      <point x="355" y="423" type="curve" smooth="yes"/>
      <point x="355" y="414"/>
      <point x="357" y="405"/>
      <point x="360" y="397" type="curve"/>
      <point x="352" y="397"/>
      <point x="344" y="395"/>
      <point x="338" y="393" type="curve"/>
      <point x="324" y="425"/>
      <point x="316" y="449"/>
      <point x="316" y="472" type="curve" smooth="yes"/>
      <point x="316" y="512"/>
      <point x="358" y="547"/>
      <point x="389" y="616" type="curve"/>
      <point x="414" y="549"/>
      <point x="462" y="516"/>
    </contour>
    <contour>
      <point x="690" y="244" type="curve"/>
      <point x="663" y="227"/>
      <point x="636" y="170"/>
      <point x="602" y="170" type="curve" smooth="yes"/>
      <point x="586" y="170"/>
      <point x="567" y="180"/>
      <point x="549" y="188" type="curve" smooth="yes"/>
      <point x="537" y="193" type="line"/>
      <point x="539" y="199"/>
      <point x="542" y="208"/>
      <point x="543" y="215" type="curve"/>
      <point x="549" y="214"/>
      <point x="555" y="212"/>
      <point x="563" y="212" type="curve" smooth="yes"/>
      <point x="600" y="212"/>
      <point x="599" y="240"/>
      <point x="616" y="244" type="curve"/>
      <point x="593" y="256"/>
      <point x="599" y="276"/>
      <point x="559" y="276" type="curve" smooth="yes"/>
      <point x="553" y="276"/>
      <point x="548" y="275"/>
      <point x="543" y="272" type="curve"/>
      <point x="542" y="279"/>
      <point x="539" y="289"/>
      <point x="537" y="295" type="curve"/>
      <point x="581" y="313"/>
      <point x="595" y="318"/>
      <point x="604" y="318" type="curve" smooth="yes"/>
      <point x="646" y="318"/>
      <point x="649" y="269"/>
    </contour>
    <contour>
      <point x="319" y="385" type="curve"/>
      <point x="311" y="381"/>
      <point x="305" y="377"/>
      <point x="299" y="373" type="curve"/>
      <point x="296" y="385"/>
      <point x="276" y="406"/>
      <point x="261" y="406" type="curve" smooth="yes"/>
      <point x="255" y="406"/>
      <point x="248" y="402"/>
      <point x="242" y="402" type="curve" smooth="yes"/>
      <point x="237" y="402"/>
      <point x="232" y="403"/>
      <point x="227" y="406" type="curve"/>
      <point x="229" y="402"/>
      <point x="229" y="399"/>
      <point x="229" y="395" type="curve" smooth="yes"/>
      <point x="229" y="389"/>
      <point x="227" y="382"/>
      <point x="227" y="375" type="curve" smooth="yes"/>
      <point x="227" y="356"/>
      <point x="249" y="338"/>
      <point x="258" y="332" type="curve"/>
      <point x="254" y="326"/>
      <point x="252" y="320"/>
      <point x="248" y="313" type="curve"/>
      <point x="193" y="336"/>
      <point x="188" y="340"/>
      <point x="180" y="350" type="curve" smooth="yes"/>
      <point x="175" y="356"/>
      <point x="172" y="365"/>
      <point x="172" y="376" type="curve" smooth="yes"/>
      <point x="172" y="396"/>
      <point x="177" y="421"/>
      <point x="177" y="442" type="curve" smooth="yes"/>
      <point x="177" y="448"/>
      <point x="177" y="453"/>
      <point x="176" y="457" type="curve"/>
      <point x="183" y="456"/>
      <point x="189" y="455"/>
      <point x="196" y="455" type="curve" smooth="yes"/>
      <point x="212" y="455"/>
      <point x="236" y="461"/>
      <point x="255" y="461" type="curve" smooth="yes"/>
      <point x="296" y="461"/>
      <point x="301" y="428"/>
    </contour>
    <contour>
      <point x="524" y="244" type="curve" smooth="yes"/>
      <point x="524" y="170"/>
      <point x="463" y="109"/>
      <point x="389" y="109" type="curve" smooth="yes"/>
      <point x="313" y="109"/>
      <point x="252" y="170"/>
      <point x="252" y="244" type="curve" smooth="yes"/>
      <point x="252" y="320"/>
      <point x="313" y="379"/>
      <point x="389" y="379" type="curve" smooth="yes"/>
      <point x="463" y="379"/>
      <point x="524" y="320"/>
    </contour>
    <contour>
      <point x="605" y="112" type="curve" smooth="yes"/>
      <point x="605" y="93"/>
      <point x="600" y="70"/>
      <point x="600" y="51" type="curve" smooth="yes"/>
      <point x="600" y="44"/>
      <point x="601" y="37"/>
      <point x="602" y="31" type="curve"/>
      <point x="595" y="33"/>
      <point x="587" y="34"/>
      <point x="579" y="34" type="curve" smooth="yes"/>
      <point x="563" y="34"/>
      <point x="539" y="27"/>
      <point x="522" y="27" type="curve" smooth="yes"/>
      <point x="480" y="27"/>
      <point x="475" y="59"/>
      <point x="459" y="102" type="curve"/>
      <point x="465" y="107"/>
      <point x="471" y="111"/>
      <point x="477" y="115" type="curve"/>
      <point x="482" y="105"/>
      <point x="498" y="83"/>
      <point x="517" y="83" type="curve" smooth="yes"/>
      <point x="523" y="83"/>
      <point x="528" y="85"/>
      <point x="534" y="85" type="curve" smooth="yes"/>
      <point x="539" y="85"/>
      <point x="544" y="84"/>
      <point x="549" y="82" type="curve"/>
      <point x="547" y="86"/>
      <point x="547" y="90"/>
      <point x="547" y="93" type="curve" smooth="yes"/>
      <point x="547" y="100"/>
      <point x="550" y="108"/>
      <point x="550" y="116" type="curve" smooth="yes"/>
      <point x="550" y="131"/>
      <point x="531" y="150"/>
      <point x="518" y="156" type="curve"/>
      <point x="522" y="162"/>
      <point x="525" y="167"/>
      <point x="528" y="174" type="curve"/>
      <point x="584" y="152"/>
      <point x="590" y="148"/>
      <point x="598" y="139" type="curve" smooth="yes"/>
      <point x="603" y="132"/>
      <point x="605" y="123"/>
    </contour>
    <contour>
      <point x="240" y="193" type="curve"/>
      <point x="196" y="174"/>
      <point x="184" y="170"/>
      <point x="174" y="170" type="curve" smooth="yes"/>
      <point x="140" y="170"/>
      <point x="122" y="225"/>
      <point x="88" y="244" type="curve"/>
      <point x="114" y="259"/>
      <point x="144" y="318"/>
      <point x="173" y="318" type="curve" smooth="yes"/>
      <point x="182" y="318"/>
      <point x="196" y="315"/>
      <point x="240" y="295" type="curve"/>
      <point x="237" y="287"/>
      <point x="236" y="281"/>
      <point x="233" y="272" type="curve"/>
      <point x="228" y="275"/>
      <point x="222" y="276"/>
      <point x="214" y="276" type="curve" smooth="yes"/>
      <point x="174" y="276"/>
      <point x="179" y="248"/>
      <point x="160" y="244" type="curve"/>
      <point x="179" y="240"/>
      <point x="174" y="212"/>
      <point x="214" y="212" type="curve" smooth="yes"/>
      <point x="222" y="212"/>
      <point x="227" y="213"/>
      <point x="233" y="215" type="curve"/>
      <point x="236" y="207"/>
      <point x="238" y="201"/>
    </contour>
    <contour>
      <point x="709" y="-348" type="curve"/>
      <point x="604" y="-291"/>
      <point x="494" y="-184"/>
      <point x="432" y="-90" type="curve"/>
      <point x="451" y="-54"/>
      <point x="482" y="-25"/>
      <point x="482" y="18" type="curve"/>
      <point x="516" y="-111"/>
      <point x="594" y="-232"/>
    </contour>
    <contour>
      <point x="461" y="17" type="curve" smooth="yes"/>
      <point x="461" y="-27"/>
      <point x="413" y="-65"/>
      <point x="389" y="-127" type="curve"/>
      <point x="359" y="-63"/>
      <point x="316" y="-24"/>
      <point x="316" y="17" type="curve" smooth="yes"/>
      <point x="316" y="39"/>
      <point x="324" y="63"/>
      <point x="338" y="96" type="curve"/>
      <point x="344" y="92"/>
      <point x="352" y="90"/>
      <point x="360" y="90" type="curve"/>
      <point x="357" y="83"/>
      <point x="355" y="74"/>
      <point x="355" y="65" type="curve" smooth="yes"/>
      <point x="355" y="38"/>
      <point x="375" y="26"/>
      <point x="389" y="-8" type="curve"/>
      <point x="398" y="25"/>
      <point x="421" y="34"/>
      <point x="421" y="66" type="curve" smooth="yes"/>
      <point x="421" y="75"/>
      <point x="420" y="83"/>
      <point x="418" y="90" type="curve"/>
      <point x="424" y="90"/>
      <point x="432" y="92"/>
      <point x="438" y="96" type="curve"/>
      <point x="453" y="63"/>
      <point x="461" y="39"/>
    </contour>
    <contour>
      <point x="319" y="102" type="curve"/>
      <point x="296" y="46"/>
      <point x="293" y="42"/>
      <point x="283" y="35" type="curve" smooth="yes"/>
      <point x="277" y="30"/>
      <point x="267" y="28"/>
      <point x="256" y="28" type="curve" smooth="yes"/>
      <point x="238" y="28"/>
      <point x="215" y="33"/>
      <point x="195" y="33" type="curve" smooth="yes"/>
      <point x="188" y="33"/>
      <point x="182" y="33"/>
      <point x="176" y="31" type="curve"/>
      <point x="178" y="37"/>
      <point x="178" y="44"/>
      <point x="178" y="51" type="curve" smooth="yes"/>
      <point x="178" y="67"/>
      <point x="172" y="92"/>
      <point x="172" y="110" type="curve" smooth="yes"/>
      <point x="172" y="123"/>
      <point x="175" y="134"/>
      <point x="181" y="142" type="curve" smooth="yes"/>
      <point x="189" y="152"/>
      <point x="213" y="162"/>
      <point x="248" y="174" type="curve"/>
      <point x="252" y="168"/>
      <point x="254" y="162"/>
      <point x="258" y="156" type="curve"/>
      <point x="250" y="150"/>
      <point x="227" y="131"/>
      <point x="227" y="114" type="curve" smooth="yes"/>
      <point x="227" y="106"/>
      <point x="229" y="99"/>
      <point x="229" y="93" type="curve" smooth="yes"/>
      <point x="229" y="90"/>
      <point x="229" y="86"/>
      <point x="227" y="82" type="curve"/>
      <point x="232" y="84"/>
      <point x="237" y="85"/>
      <point x="243" y="85" type="curve" smooth="yes"/>
      <point x="248" y="85"/>
      <point x="254" y="83"/>
      <point x="260" y="83" type="curve" smooth="yes"/>
      <point x="279" y="83"/>
      <point x="296" y="102"/>
      <point x="299" y="115" type="curve"/>
      <point x="305" y="111"/>
      <point x="313" y="107"/>
    </contour>
    <contour>
      <point x="467" y="244" type="curve" smooth="yes"/>
      <point x="467" y="287"/>
      <point x="432" y="322"/>
      <point x="389" y="322" type="curve" smooth="yes"/>
      <point x="346" y="322"/>
      <point x="309" y="287"/>
      <point x="309" y="244" type="curve" smooth="yes"/>
      <point x="309" y="201"/>
      <point x="346" y="166"/>
      <point x="389" y="166" type="curve" smooth="yes"/>
      <point x="432" y="166"/>
      <point x="467" y="201"/>
    </contour>
    <contour>
      <point x="446" y="244" type="curve" smooth="yes"/>
      <point x="446" y="211"/>
      <point x="420" y="186"/>
      <point x="389" y="186" type="curve" smooth="yes"/>
      <point x="356" y="186"/>
      <point x="330" y="211"/>
      <point x="330" y="244" type="curve" smooth="yes"/>
      <point x="330" y="277"/>
      <point x="356" y="303"/>
      <point x="389" y="303" type="curve" smooth="yes"/>
      <point x="420" y="303"/>
      <point x="446" y="277"/>
    </contour>
  </outline>
</glyph>
<glyph name="absRialSign" format="2">
  <unicode hex="FDFC"/>
  <advance width="1363"/>
  <outline>
    <contour>
      <point x="656" y="121" type="curve" smooth="yes"/>
      <point x="656" y="381"/>
      <point x="572" y="768"/>
      <point x="572" y="899" type="curve" smooth="yes"/>
      <point x="572" y="940"/>
      <point x="597" y="975"/>
      <point x="619" y="989" type="curve"/>
      <point x="619" y="989"/>
      <point x="539" y="1100"/>
      <point x="537" y="1104" type="curve"/>
      <point x="502" y="1087"/>
      <point x="486" y="1032"/>
      <point x="486" y="1001" type="curve" smooth="yes"/>
      <point x="486" y="969"/>
      <point x="524" y="778"/>
      <point x="556" y="567" type="curve" smooth="yes"/>
      <point x="585" y="371"/>
      <point x="613" y="154"/>
      <point x="613" y="74" type="curve" smooth="yes"/>
      <point x="613" y="57"/>
      <point x="605" y="20"/>
      <point x="595" y="10" type="curve" smooth="yes"/>
      <point x="547" y="-35"/>
      <point x="437" y="-106"/>
      <point x="308" y="-106" type="curve" smooth="yes"/>
      <point x="210" y="-106"/>
      <point x="117" y="-51"/>
      <point x="117" y="78" type="curve" smooth="yes"/>
      <point x="117" y="195"/>
      <point x="183" y="291"/>
      <point x="183" y="299" type="curve" smooth="yes"/>
      <point x="183" y="307"/>
      <point x="177" y="309"/>
      <point x="170" y="309" type="curve" smooth="yes"/>
      <point x="160" y="309"/>
      <point x="58" y="137"/>
      <point x="58" y="-23" type="curve" smooth="yes"/>
      <point x="58" y="-166"/>
      <point x="173" y="-233"/>
      <point x="280" y="-233" type="curve" smooth="yes"/>
      <point x="413" y="-233"/>
      <point x="476" y="-199"/>
      <point x="549" y="-133" type="curve" smooth="yes"/>
      <point x="635" y="-56"/>
      <point x="656" y="37"/>
    </contour>
    <contour>
      <point x="1077" y="-119" type="curve" smooth="yes"/>
      <point x="1077" y="-113"/>
      <point x="995" y="-50"/>
      <point x="986" y="-50" type="curve" smooth="yes"/>
      <point x="980" y="-50"/>
      <point x="925" y="-127"/>
      <point x="925" y="-127" type="curve"/>
      <point x="922" y="-131"/>
      <point x="920" y="-135"/>
      <point x="918" y="-135" type="curve"/>
      <point x="916" y="-135"/>
      <point x="913" y="-133"/>
      <point x="909" y="-129" type="curve"/>
      <point x="909" y="-129"/>
      <point x="839" y="-68"/>
      <point x="827" y="-68" type="curve" smooth="yes"/>
      <point x="821" y="-68"/>
      <point x="761" y="-156"/>
      <point x="761" y="-166" type="curve" smooth="yes"/>
      <point x="761" y="-175"/>
      <point x="843" y="-234"/>
      <point x="851" y="-234" type="curve" smooth="yes"/>
      <point x="859" y="-234"/>
      <point x="911" y="-156"/>
      <point x="911" y="-156" type="curve"/>
      <point x="912" y="-154"/>
      <point x="914" y="-153"/>
      <point x="916" y="-153" type="curve"/>
      <point x="932" y="-153"/>
      <point x="996" y="-218"/>
      <point x="1011" y="-218" type="curve" smooth="yes"/>
      <point x="1021" y="-218"/>
      <point x="1077" y="-129"/>
    </contour>
    <contour>
      <point x="1315" y="49" type="curve" smooth="yes"/>
      <point x="1315" y="137"/>
      <point x="1298" y="252"/>
      <point x="1241" y="344" type="curve"/>
      <point x="1235" y="338"/>
      <point x="1186" y="242"/>
      <point x="1186" y="223" type="curve" smooth="yes"/>
      <point x="1186" y="199"/>
      <point x="1272" y="45"/>
      <point x="1272" y="8" type="curve" smooth="yes"/>
      <point x="1272" y="-41"/>
      <point x="1224" y="-121"/>
      <point x="1136" y="-203" type="curve" smooth="yes"/>
      <point x="1038" y="-295"/>
      <point x="946" y="-340"/>
      <point x="870" y="-340" type="curve" smooth="yes"/>
      <point x="842" y="-340"/>
      <point x="766" y="-328"/>
      <point x="762" y="-328" type="curve" smooth="yes"/>
      <point x="758" y="-328"/>
      <point x="753" y="-336"/>
      <point x="753" y="-340" type="curve" smooth="yes"/>
      <point x="753" y="-346"/>
      <point x="858" y="-399"/>
      <point x="930" y="-399" type="curve" smooth="yes"/>
      <point x="973" y="-399"/>
      <point x="1065" y="-394"/>
      <point x="1122" y="-348" type="curve" smooth="yes"/>
      <point x="1228" y="-263"/>
      <point x="1315" y="-92"/>
    </contour>
    <contour>
      <point x="1091" y="264" type="curve" smooth="yes"/>
      <point x="1091" y="328"/>
      <point x="1076" y="387"/>
      <point x="1046" y="453" type="curve"/>
      <point x="1038" y="442"/>
      <point x="978" y="348"/>
      <point x="978" y="330" type="curve" smooth="yes"/>
      <point x="978" y="317"/>
      <point x="1044" y="209"/>
      <point x="1044" y="193" type="curve" smooth="yes"/>
      <point x="1044" y="137"/>
      <point x="974" y="125"/>
      <point x="941" y="125" type="curve" smooth="yes"/>
      <point x="890" y="125"/>
      <point x="862" y="132"/>
      <point x="842" y="182" type="curve" smooth="yes"/>
      <point x="820" y="238"/>
      <point x="777" y="748"/>
      <point x="759" y="971" type="curve"/>
      <point x="759" y="987"/>
      <point x="752" y="991"/>
      <point x="750" y="991" type="curve"/>
      <point x="742" y="991"/>
      <point x="689" y="897"/>
      <point x="689" y="883" type="curve" smooth="yes"/>
      <point x="689" y="836"/>
      <point x="706" y="719"/>
      <point x="722" y="600" type="curve" smooth="yes"/>
      <point x="741" y="453"/>
      <point x="757" y="276"/>
      <point x="767" y="170" type="curve" smooth="yes"/>
      <point x="780" y="31"/>
      <point x="855" y="0"/>
      <point x="938" y="0" type="curve" smooth="yes"/>
      <point x="1021" y="0"/>
      <point x="1091" y="63"/>
    </contour>
  </outline>
</glyph>
<glyph name="_dot1" format="2">
  <anchor x="2" y="131" name="_below"/>
  <anchor x="2" y="-134" name="_above"/>
  <anchor x="0" y="0" name="_center"/>
  <outline>
    <contour>
      <point x="81" y="14" type="curve" smooth="yes"/>
      <point x="81" y="20"/>
      <point x="1" y="81"/>
      <point x="-10" y="81" type="curve" smooth="yes"/>
      <point x="-18" y="81"/>
      <point x="-77" y="-7"/>
      <point x="-77" y="-17" type="curve" smooth="yes"/>
      <point x="-77" y="-27"/>
      <point x="7" y="-84"/>
      <point x="13" y="-84" type="curve" smooth="yes"/>
      <point x="25" y="-84"/>
      <point x="81" y="4"/>
    </contour>
  </outline>
</glyph>
<glyph name="_dotCircular" format="2">
  <outline>
    <contour>
      <point x="54" y="0" type="curve" smooth="yes"/>
      <point x="54" y="30"/>
      <point x="30" y="54"/>
      <point x="0" y="54" type="curve" smooth="yes"/>
      <point x="-30" y="54"/>
      <point x="-54" y="30"/>
      <point x="-54" y="0" type="curve" smooth="yes"/>
      <point x="-54" y="-30"/>
      <point x="-30" y="-54"/>
      <point x="0" y="-54" type="curve" smooth="yes"/>
      <point x="30" y="-54"/>
      <point x="54" y="-30"/>
    </contour>
  </outline>
</glyph>
<glyph name="_gafBarShort_dot2h" format="2">
  <anchor x="70" y="0" name="_above"/>
  <outline>
    <contour>
      <point x="204" y="420" type="curve" smooth="yes"/>
      <point x="204" y="426"/>
      <point x="122" y="490"/>
      <point x="114" y="490" type="curve" smooth="yes"/>
      <point x="108" y="490"/>
      <point x="54" y="412"/>
      <point x="54" y="412" type="curve"/>
      <point x="50" y="407"/>
      <point x="47" y="405"/>
      <point x="45" y="405" type="curve"/>
      <point x="42" y="405"/>
      <point x="40" y="407"/>
      <point x="36" y="410" type="curve"/>
      <point x="36" y="410"/>
      <point x="-34" y="471"/>
      <point x="-46" y="471" type="curve" smooth="yes"/>
      <point x="-52" y="471"/>
      <point x="-111" y="383"/>
      <point x="-111" y="373" type="curve" smooth="yes"/>
      <point x="-111" y="365"/>
      <point x="-30" y="303"/>
      <point x="-21" y="303" type="curve" smooth="yes"/>
      <point x="-13" y="303"/>
      <point x="38" y="383"/>
      <point x="38" y="383" type="curve"/>
      <point x="40" y="385"/>
      <point x="42" y="387"/>
      <point x="45" y="387" type="curve"/>
      <point x="47" y="387"/>
      <point x="50" y="386"/>
      <point x="54" y="383" type="curve"/>
      <point x="54" y="383"/>
      <point x="132" y="322"/>
      <point x="138" y="322" type="curve" smooth="yes"/>
      <point x="149" y="322"/>
      <point x="204" y="410"/>
    </contour>
    <contour>
      <point x="700" y="422" type="curve"/>
      <point x="700" y="427"/>
      <point x="696" y="431"/>
      <point x="692" y="431" type="curve" smooth="yes"/>
      <point x="682" y="431"/>
      <point x="453" y="339"/>
      <point x="404" y="316" type="curve" smooth="yes"/>
      <point x="271" y="253"/>
      <point x="92" y="148"/>
      <point x="11" y="70" type="curve" smooth="yes"/>
      <point x="-2" y="58"/>
      <point x="-35" y="-5"/>
      <point x="-35" y="-18" type="curve"/>
      <point x="-35" y="-20"/>
      <point x="-34" y="-21"/>
      <point x="-33" y="-21" type="curve"/>
      <point x="-31" y="-21"/>
      <point x="-28" y="-19"/>
      <point x="-27" y="-18" type="curve"/>
      <point x="71" y="52"/>
      <point x="469" y="255"/>
      <point x="632" y="306" type="curve" smooth="yes"/>
      <point x="650" y="311"/>
      <point x="661" y="332"/>
      <point x="672" y="359" type="curve" smooth="yes"/>
      <point x="691" y="406"/>
      <point x="700" y="421"/>
    </contour>
  </outline>
</glyph>
<glyph name="_gafBarShort_dot3u" format="2">
  <anchor x="70" y="0" name="_above"/>
  <outline>
    <contour>
      <point x="81" y="553" type="curve" smooth="yes"/>
      <point x="81" y="561"/>
      <point x="3" y="623"/>
      <point x="-9" y="623" type="curve" smooth="yes"/>
      <point x="-17" y="623"/>
      <point x="-75" y="535"/>
      <point x="-75" y="524" type="curve" smooth="yes"/>
      <point x="-75" y="514"/>
      <point x="7" y="457"/>
      <point x="16" y="457" type="curve" smooth="yes"/>
      <point x="26" y="457"/>
      <point x="81" y="545"/>
    </contour>
    <contour>
      <point x="183" y="379" type="curve" smooth="yes"/>
      <point x="183" y="385"/>
      <point x="99" y="447"/>
      <point x="93" y="447" type="curve" smooth="yes"/>
      <point x="85" y="447"/>
      <point x="32" y="371"/>
      <point x="32" y="371" type="curve"/>
      <point x="29" y="366"/>
      <point x="27" y="364"/>
      <point x="25" y="364" type="curve"/>
      <point x="23" y="364"/>
      <point x="20" y="366"/>
      <point x="16" y="369" type="curve"/>
      <point x="16" y="369"/>
      <point x="-54" y="430"/>
      <point x="-66" y="430" type="curve" smooth="yes"/>
      <point x="-73" y="430"/>
      <point x="-132" y="342"/>
      <point x="-132" y="332" type="curve" smooth="yes"/>
      <point x="-132" y="324"/>
      <point x="-50" y="264"/>
      <point x="-42" y="264" type="curve" smooth="yes"/>
      <point x="-34" y="264"/>
      <point x="18" y="342"/>
      <point x="18" y="342" type="curve"/>
      <point x="20" y="344"/>
      <point x="22" y="346"/>
      <point x="25" y="346" type="curve"/>
      <point x="27" y="346"/>
      <point x="29" y="345"/>
      <point x="32" y="342" type="curve"/>
      <point x="32" y="342"/>
      <point x="112" y="281"/>
      <point x="118" y="281" type="curve" smooth="yes"/>
      <point x="128" y="281"/>
      <point x="183" y="369"/>
    </contour>
    <contour>
      <point x="700" y="422" type="curve"/>
      <point x="700" y="427"/>
      <point x="696" y="431"/>
      <point x="692" y="431" type="curve" smooth="yes"/>
      <point x="682" y="431"/>
      <point x="453" y="339"/>
      <point x="404" y="316" type="curve" smooth="yes"/>
      <point x="271" y="253"/>
      <point x="92" y="148"/>
      <point x="11" y="70" type="curve" smooth="yes"/>
      <point x="-2" y="58"/>
      <point x="-35" y="-5"/>
      <point x="-35" y="-18" type="curve"/>
      <point x="-35" y="-20"/>
      <point x="-34" y="-21"/>
      <point x="-33" y="-21" type="curve"/>
      <point x="-31" y="-21"/>
      <point x="-28" y="-19"/>
      <point x="-27" y="-18" type="curve"/>
      <point x="71" y="52"/>
      <point x="469" y="255"/>
      <point x="632" y="306" type="curve" smooth="yes"/>
      <point x="650" y="311"/>
      <point x="661" y="332"/>
      <point x="672" y="359" type="curve" smooth="yes"/>
      <point x="691" y="406"/>
      <point x="700" y="421"/>
    </contour>
  </outline>
</glyph>
<glyph name="_meem" format="2">
  <anchor x="-28" y="-217" name="_above"/>
  <anchor x="-21" y="288" name="_below"/>
  <anchor x="-17" y="0" name="_center"/>
  <outline>
    <contour>
      <point x="106" y="69" type="curve" smooth="yes"/>
      <point x="106" y="112"/>
      <point x="41" y="182"/>
      <point x="2" y="182" type="curve" smooth="yes"/>
      <point x="-59" y="182"/>
      <point x="-76" y="134"/>
      <point x="-88" y="92" type="curve"/>
      <point x="-88" y="88"/>
      <point x="-82" y="88"/>
      <point x="-80" y="88" type="curve"/>
      <point x="-63" y="88"/>
      <point x="-49" y="112"/>
      <point x="-31" y="112" type="curve" smooth="yes"/>
      <point x="-14" y="112"/>
      <point x="6" y="102"/>
      <point x="8" y="92" type="curve"/>
      <point x="-76" y="67"/>
      <point x="-100" y="54"/>
      <point x="-112" y="1" type="curve" smooth="yes"/>
      <point x="-121" y="-40"/>
      <point x="-123" y="-56"/>
      <point x="-123" y="-78" type="curve" smooth="yes"/>
      <point x="-123" y="-140"/>
      <point x="-88" y="-180"/>
      <point x="-70" y="-295" type="curve"/>
      <point x="-70" y="-297"/>
      <point x="-68" y="-297"/>
      <point x="-66" y="-297" type="curve"/>
      <point x="-61" y="-297"/>
      <point x="-53" y="-264"/>
      <point x="-53" y="-260" type="curve" smooth="yes"/>
      <point x="-53" y="-250"/>
      <point x="-104" y="-76"/>
      <point x="-104" y="-60" type="curve" smooth="yes"/>
      <point x="-104" y="-35"/>
      <point x="-92" y="-17"/>
      <point x="-57" y="0" type="curve" smooth="yes"/>
      <point x="-23" y="16"/>
      <point x="10" y="20"/>
      <point x="57" y="20" type="curve" smooth="yes"/>
      <point x="88" y="20" type="line"/>
      <point x="96" y="20"/>
      <point x="106" y="61"/>
    </contour>
  </outline>
</glyph>
<glyph name="_ring" format="2">
  <anchor x="25" y="141" name="_ring"/>
  <outline>
    <contour>
      <point x="128" y="3" type="curve" smooth="yes"/>
      <point x="128" y="56"/>
      <point x="81" y="135"/>
      <point x="24" y="135" type="curve" smooth="yes"/>
      <point x="-58" y="135"/>
      <point x="-114" y="64"/>
      <point x="-114" y="-15" type="curve" smooth="yes"/>
      <point x="-114" y="-109"/>
      <point x="-80" y="-152"/>
      <point x="-19" y="-152" type="curve" smooth="yes"/>
      <point x="66" y="-152"/>
      <point x="128" y="-81"/>
    </contour>
    <contour>
      <point x="73" y="-26" type="curve" smooth="yes"/>
      <point x="73" y="-42"/>
      <point x="28" y="-58"/>
      <point x="4" y="-58" type="curve" smooth="yes"/>
      <point x="-37" y="-58"/>
      <point x="-78" y="-38"/>
      <point x="-78" y="-6" type="curve" smooth="yes"/>
      <point x="-78" y="23"/>
      <point x="-56" y="54"/>
      <point x="-23" y="54" type="curve" smooth="yes"/>
      <point x="17" y="54"/>
      <point x="73" y="5"/>
    </contour>
  </outline>
</glyph>
<glyph name="_smallV" format="2">
  <anchor x="-3" y="197" name="_below"/>
  <anchor x="-3" y="-162" name="_above"/>
  <outline>
    <contour>
      <point x="171" y="139" type="curve" smooth="yes"/>
      <point x="171" y="143"/>
      <point x="169" y="147"/>
      <point x="165" y="147" type="curve" smooth="yes"/>
      <point x="140" y="147" type="line" smooth="yes"/>
      <point x="128" y="147"/>
      <point x="11" y="9"/>
      <point x="-3" y="9" type="curve" smooth="yes"/>
      <point x="-17" y="9"/>
      <point x="-134" y="147"/>
      <point x="-146" y="147" type="curve" smooth="yes"/>
      <point x="-171" y="147" type="line" smooth="yes"/>
      <point x="-175" y="147"/>
      <point x="-177" y="143"/>
      <point x="-177" y="139" type="curve" smooth="yes"/>
      <point x="-177" y="129"/>
      <point x="-102" y="2"/>
      <point x="-60" y="-50" type="curve" smooth="yes"/>
      <point x="-50" y="-62"/>
      <point x="-39" y="-72"/>
      <point x="-31" y="-72" type="curve" smooth="yes"/>
      <point x="25" y="-72" type="line" smooth="yes"/>
      <point x="33" y="-72"/>
      <point x="44" y="-62"/>
      <point x="54" y="-50" type="curve" smooth="yes"/>
      <point x="96" y="2"/>
      <point x="171" y="129"/>
    </contour>
  </outline>
</glyph>
<glyph name="_two" format="2">
  <anchor x="11" y="-37" name="_aboveLeft"/>
  <anchor x="-1" y="-37" name="_above"/>
  <outline>
    <contour>
      <point x="61" y="337" type="curve" smooth="yes"/>
      <point x="61" y="359"/>
      <point x="61" y="368"/>
      <point x="59" y="378" type="curve"/>
      <point x="59" y="380"/>
      <point x="58" y="381"/>
      <point x="54" y="381" type="curve" smooth="yes"/>
      <point x="50" y="381"/>
      <point x="48" y="380"/>
      <point x="48" y="378" type="curve"/>
      <point x="48" y="335"/>
      <point x="18" y="314"/>
      <point x="-7" y="314" type="curve" smooth="yes"/>
      <point x="-60" y="314"/>
      <point x="-95" y="384"/>
      <point x="-99" y="384" type="curve"/>
      <point x="-101" y="384"/>
      <point x="-118" y="323"/>
      <point x="-118" y="318" type="curve" smooth="yes"/>
      <point x="-118" y="314"/>
      <point x="-17" y="196"/>
      <point x="-7" y="-32" type="curve"/>
      <point x="-7" y="-34"/>
      <point x="-4" y="-34"/>
      <point x="0" y="-34" type="curve"/>
      <point x="2" y="-34"/>
      <point x="3" y="-32"/>
      <point x="3" y="-32" type="curve"/>
      <point x="7" y="-3"/>
      <point x="11" y="32"/>
      <point x="11" y="67" type="curve" smooth="yes"/>
      <point x="11" y="112"/>
      <point x="-13" y="212"/>
      <point x="-25" y="247" type="curve"/>
      <point x="-20" y="246"/>
      <point x="-13" y="245"/>
      <point x="-9" y="245" type="curve" smooth="yes"/>
      <point x="32" y="245"/>
      <point x="61" y="275"/>
    </contour>
  </outline>
</glyph>
<glyph name="_wasla" format="2">
  <anchor x="-32" y="176" name="_below"/>
  <anchor x="-32" y="-127" name="_above"/>
  <outline>
    <contour>
      <point x="143" y="38" type="curve" smooth="yes"/>
      <point x="143" y="102"/>
      <point x="118" y="126"/>
      <point x="79" y="126" type="curve" smooth="yes"/>
      <point x="8" y="126"/>
      <point x="-25" y="73"/>
      <point x="-62" y="-1" type="curve"/>
      <point x="-93" y="-1"/>
      <point x="-134" y="-1"/>
      <point x="-156" y="-7" type="curve" smooth="yes"/>
      <point x="-197" y="-19"/>
      <point x="-207" y="-54"/>
      <point x="-207" y="-74" type="curve" smooth="yes"/>
      <point x="-207" y="-80"/>
      <point x="-205" y="-83"/>
      <point x="-203" y="-83" type="curve"/>
      <point x="-201" y="-83"/>
      <point x="-199" y="-81"/>
      <point x="-197" y="-77" type="curve" smooth="yes"/>
      <point x="-191" y="-68"/>
      <point x="-189" y="-56"/>
      <point x="-152" y="-56" type="curve" smooth="yes"/>
      <point x="-125" y="-56"/>
      <point x="-23" y="-60"/>
      <point x="-7" y="-60" type="curve" smooth="yes"/>
      <point x="98" y="-60"/>
      <point x="143" y="14"/>
    </contour>
    <contour>
      <point x="90" y="36" type="curve" smooth="yes"/>
      <point x="90" y="3"/>
      <point x="18" y="-1"/>
      <point x="-27" y="-1" type="curve"/>
      <point x="-11" y="24"/>
      <point x="28" y="63"/>
      <point x="51" y="63" type="curve" smooth="yes"/>
      <point x="75" y="63"/>
      <point x="90" y="53"/>
    </contour>
  </outline>
</glyph>
<glyph name="absBehNoDotsMed" format="2">
  <advance width="367"/>
  <anchor x="184" y="306" name="above"/>
  <anchor x="184" y="-50" name="below"/>
  <anchor x="215" y="106" name="ring"/>
  <anchor x="182" y="628" name="diaA"/>
  <anchor x="153" y="-249" name="diaB"/>
  <anchor x="192" y="524" name="alef"/>
  <anchor x="153" y="-125" name="diaBtailUp"/>
  <anchor x="153" y="-750" name="diaBtailDown"/>
  <outline>
    <contour>
      <point x="436" y="63" type="curve" smooth="yes"/>
      <point x="436" y="94"/>
      <point x="431" y="125"/>
      <point x="381" y="125" type="curve" smooth="yes"/>
      <point x="342" y="125" type="line" smooth="yes"/>
      <point x="303" y="125"/>
      <point x="281" y="168"/>
      <point x="270" y="201" type="curve" smooth="yes"/>
      <point x="260" y="229"/>
      <point x="260" y="256"/>
      <point x="252" y="256" type="curve" smooth="yes"/>
      <point x="231" y="256"/>
      <point x="205" y="125"/>
      <point x="25" y="125" type="curve" smooth="yes"/>
      <point x="-12" y="125" type="line" smooth="yes"/>
      <point x="-62" y="125"/>
      <point x="-67" y="94"/>
      <point x="-67" y="63" type="curve" smooth="yes"/>
      <point x="-67" y="32"/>
      <point x="-62" y="0"/>
      <point x="-12" y="0" type="curve" smooth="yes"/>
      <point x="25" y="0" type="line" smooth="yes"/>
      <point x="123" y="0"/>
      <point x="168" y="53"/>
      <point x="215" y="106" type="curve"/>
      <point x="225" y="82"/>
      <point x="246" y="51"/>
      <point x="260" y="35" type="curve" smooth="yes"/>
      <point x="281" y="12"/>
      <point x="305" y="0"/>
      <point x="342" y="0" type="curve" smooth="yes"/>
      <point x="381" y="0" type="line" smooth="yes"/>
      <point x="431" y="0"/>
      <point x="436" y="32"/>
    </contour>
  </outline>
</glyph>
<glyph name="absComma.downward" format="2">
  <advance width="641"/>
  <anchor x="275" y="381" name="diaA"/>
  <anchor x="281" y="-497" name="diaB"/>
  <outline>
    <contour>
      <point x="436" y="71" type="curve" smooth="yes"/>
      <point x="436" y="129"/>
      <point x="393" y="174"/>
      <point x="336" y="174" type="curve" smooth="yes"/>
      <point x="227" y="174"/>
      <point x="174" y="53"/>
      <point x="174" y="-56" type="curve" smooth="yes"/>
      <point x="174" y="-90"/>
      <point x="176" y="-129"/>
      <point x="190" y="-170" type="curve" smooth="yes"/>
      <point x="223" y="-262"/>
      <point x="303" y="-359"/>
      <point x="342" y="-375" type="curve"/>
      <point x="367" y="-340" type="line"/>
      <point x="328" y="-301"/>
      <point x="242" y="-209"/>
      <point x="242" y="-88" type="curve" smooth="yes"/>
      <point x="242" y="-78"/>
      <point x="252" y="-2"/>
      <point x="268" y="-2" type="curve" smooth="yes"/>
      <point x="274" y="-2"/>
      <point x="313" y="-29"/>
      <point x="338" y="-29" type="curve" smooth="yes"/>
      <point x="387" y="-29"/>
      <point x="436" y="22"/>
    </contour>
  </outline>
</glyph>
<glyph name="absDal.sen" format="2">
  <advance width="623"/>
  <anchor x="319" y="47" name="ring"/>
  <anchor x="220" y="988" name="diaA"/>
  <anchor x="266" y="807" name="above"/>
  <anchor x="292" y="-84" name="below"/>
  <anchor x="265" y="-172" name="diaB"/>
  <anchor x="168" y="865" name="alef"/>
  <outline>
    <contour>
      <point x="257" y="753" type="curve" smooth="yes"/>
      <point x="238" y="753"/>
      <point x="141" y="667"/>
      <point x="141" y="612" type="curve" smooth="yes"/>
      <point x="141" y="588"/>
      <point x="144" y="523"/>
      <point x="158" y="474" type="curve" smooth="yes"/>
      <point x="183" y="388"/>
      <point x="218" y="390"/>
      <point x="310" y="367" type="curve" smooth="yes"/>
      <point x="452" y="332"/>
      <point x="502" y="238"/>
      <point x="502" y="213" type="curve"/>
      <point x="473" y="175"/>
      <point x="373" y="137"/>
      <point x="260" y="137" type="curve" smooth="yes"/>
      <point x="195" y="137"/>
      <point x="157" y="147"/>
      <point x="127" y="147" type="curve" smooth="yes"/>
      <point x="81" y="147"/>
      <point x="37" y="-19"/>
      <point x="37" y="-64" type="curve" smooth="yes"/>
      <point x="37" y="-99"/>
      <point x="69" y="-152"/>
      <point x="76" y="-152" type="curve"/>
      <point x="77" y="-152"/>
      <point x="80" y="-152"/>
      <point x="81" y="-149" type="curve" smooth="yes"/>
      <point x="89" y="-118"/>
      <point x="113" y="-67"/>
      <point x="117" y="-55" type="curve" smooth="yes"/>
      <point x="119" y="-49"/>
      <point x="119" y="-48"/>
      <point x="119" y="-43" type="curve" smooth="yes"/>
      <point x="119" y="-34"/>
      <point x="83" y="-16"/>
      <point x="83" y="-2" type="curve" smooth="yes"/>
      <point x="83" y="2"/>
      <point x="86" y="4"/>
      <point x="93" y="4" type="curve" smooth="yes"/>
      <point x="136" y="4"/>
      <point x="139" y="-8"/>
      <point x="229" y="-8" type="curve" smooth="yes"/>
      <point x="330" y="-8"/>
      <point x="478" y="40"/>
      <point x="530" y="95" type="curve" smooth="yes"/>
      <point x="544" y="110"/>
      <point x="552" y="162"/>
      <point x="552" y="195" type="curve" smooth="yes"/>
      <point x="552" y="350"/>
      <point x="380" y="497"/>
      <point x="214" y="536" type="curve" smooth="yes"/>
      <point x="196" y="540"/>
      <point x="186" y="550"/>
      <point x="186" y="559" type="curve" smooth="yes"/>
      <point x="186" y="595"/>
      <point x="235" y="615"/>
      <point x="240" y="622" type="curve" smooth="yes"/>
      <point x="244" y="628" type="line" smooth="yes"/>
      <point x="248" y="636"/>
      <point x="248" y="671"/>
      <point x="255" y="708" type="curve" smooth="yes"/>
      <point x="259" y="729"/>
      <point x="265" y="743"/>
      <point x="265" y="747" type="curve" smooth="yes"/>
      <point x="265" y="750"/>
      <point x="260" y="753"/>
    </contour>
  </outline>
</glyph>
<glyph name="absDamma.short" format="2">
  <anchor x="150" y="1020" name="_diaA"/>
  <anchor x="105" y="1515" name="diaA"/>
  <outline>
    <contour>
      <point x="228" y="1211" type="line"/>
      <point x="189" y="1240"/>
      <point x="144" y="1279"/>
      <point x="144" y="1305" type="curve" smooth="yes"/>
      <point x="144" y="1313"/>
      <point x="150" y="1318"/>
      <point x="159" y="1318" type="curve" smooth="yes"/>
      <point x="177" y="1318"/>
      <point x="203" y="1300"/>
      <point x="203" y="1273" type="curve" smooth="yes"/>
      <point x="203" y="1227"/>
      <point x="130" y="1115"/>
      <point x="-42" y="1020" type="curve"/>
      <point x="-25" y="1012"/>
      <point x="0" y="1005"/>
      <point x="21" y="1005" type="curve" smooth="yes"/>
      <point x="93" y="1005"/>
      <point x="264" y="1179"/>
      <point x="264" y="1316" type="curve" smooth="yes"/>
      <point x="264" y="1338"/>
      <point x="257" y="1405"/>
      <point x="200" y="1405" type="curve" smooth="yes"/>
      <point x="146" y="1405"/>
      <point x="91" y="1304"/>
      <point x="91" y="1247" type="curve" smooth="yes"/>
      <point x="91" y="1209"/>
      <point x="137" y="1165"/>
      <point x="180" y="1134" type="curve"/>
    </contour>
  </outline>
</glyph>
<glyph name="absDotlessFehMed" format="2">
  <advance width="592"/>
  <anchor x="379" y="609" name="above"/>
  <anchor x="296" y="-50" name="below"/>
  <anchor x="320" y="850" name="diaA"/>
  <anchor x="248" y="-201" name="diaB"/>
  <anchor x="224" y="652" name="alef"/>
  <outline>
    <contour>
      <point x="659" y="63" type="curve" smooth="yes"/>
      <point x="659" y="94"/>
      <point x="654" y="125"/>
      <point x="604" y="125" type="curve" smooth="yes"/>
      <point x="567" y="125" type="line" smooth="yes"/>
      <point x="520" y="125"/>
      <point x="475" y="135"/>
      <point x="428" y="156" type="curve"/>
      <point x="483" y="207"/>
      <point x="510" y="279"/>
      <point x="510" y="342" type="curve" smooth="yes"/>
      <point x="510" y="397"/>
      <point x="469" y="520"/>
      <point x="403" y="520" type="curve" smooth="yes"/>
      <point x="373" y="520"/>
      <point x="319" y="481"/>
      <point x="272" y="420" type="curve" smooth="yes"/>
      <point x="215" y="348"/>
      <point x="174" y="253"/>
      <point x="174" y="212" type="curve" smooth="yes"/>
      <point x="174" y="194"/>
      <point x="176" y="170"/>
      <point x="180" y="156" type="curve"/>
      <point x="135" y="135"/>
      <point x="74" y="125"/>
      <point x="25" y="125" type="curve" smooth="yes"/>
      <point x="-12" y="125" type="line" smooth="yes"/>
      <point x="-62" y="125"/>
      <point x="-67" y="94"/>
      <point x="-67" y="63" type="curve" smooth="yes"/>
      <point x="-67" y="32"/>
      <point x="-62" y="0"/>
      <point x="-12" y="0" type="curve" smooth="yes"/>
      <point x="25" y="0" type="line" smooth="yes"/>
      <point x="119" y="0"/>
      <point x="168" y="29"/>
      <point x="283" y="78" type="curve"/>
      <point x="389" y="29"/>
      <point x="453" y="0"/>
      <point x="567" y="0" type="curve" smooth="yes"/>
      <point x="604" y="0" type="line" smooth="yes"/>
      <point x="654" y="0"/>
      <point x="659" y="32"/>
    </contour>
    <contour>
      <point x="453" y="283" type="curve" smooth="yes"/>
      <point x="453" y="250"/>
      <point x="393" y="227"/>
      <point x="322" y="201" type="curve"/>
      <point x="285" y="229"/>
      <point x="240" y="258"/>
      <point x="240" y="295" type="curve" smooth="yes"/>
      <point x="240" y="326"/>
      <point x="322" y="377"/>
      <point x="356" y="377" type="curve" smooth="yes"/>
      <point x="410" y="377"/>
      <point x="453" y="328"/>
    </contour>
  </outline>
</glyph>
<glyph name="absEasternFourSmall" format="2">
  <advance width="319"/>
  <anchor x="319" y="0" name="digit"/>
  <anchor x="0" y="0" name="_digit"/>
  <outline>
    <contour>
      <point x="138" y="425" type="curve" smooth="yes"/>
      <point x="109" y="526"/>
      <point x="60" y="603"/>
      <point x="57" y="603" type="curve" smooth="yes"/>
      <point x="51" y="603"/>
      <point x="34" y="529"/>
      <point x="34" y="523" type="curve" smooth="yes"/>
      <point x="34" y="518"/>
      <point x="142" y="407"/>
      <point x="142" y="191" type="curve"/>
      <point x="142" y="189"/>
      <point x="145" y="187"/>
      <point x="147" y="187" type="curve"/>
      <point x="150" y="187"/>
      <point x="154" y="189"/>
      <point x="155" y="191" type="curve"/>
      <point x="158" y="211"/>
      <point x="159" y="236"/>
      <point x="159" y="255" type="curve" smooth="yes"/>
      <point x="159" y="326"/>
      <point x="154" y="367"/>
    </contour>
    <contour>
      <point x="128" y="425" type="line"/>
      <point x="148" y="416"/>
      <point x="170" y="411"/>
      <point x="204" y="411" type="curve" smooth="yes"/>
      <point x="251" y="411"/>
      <point x="281" y="460"/>
      <point x="281" y="472" type="curve" smooth="yes"/>
      <point x="281" y="476"/>
      <point x="278" y="477"/>
      <point x="274" y="477" type="curve" smooth="yes"/>
      <point x="262" y="477"/>
      <point x="250" y="460"/>
      <point x="210" y="460" type="curve" smooth="yes"/>
      <point x="174" y="460"/>
      <point x="150" y="479"/>
      <point x="150" y="510" type="curve" smooth="yes"/>
      <point x="150" y="544"/>
      <point x="188" y="568"/>
      <point x="247" y="568" type="curve" smooth="yes"/>
      <point x="260" y="568"/>
      <point x="265" y="573"/>
      <point x="265" y="575" type="curve"/>
      <point x="265" y="584"/>
      <point x="224" y="610"/>
      <point x="195" y="610" type="curve" smooth="yes"/>
      <point x="146" y="610"/>
      <point x="109" y="549"/>
      <point x="96" y="508" type="curve"/>
    </contour>
  </outline>
</glyph>
<glyph name="absFiveMedium" format="2">
  <advance width="450"/>
  <anchor x="450" y="0" name="digit"/>
  <anchor x="0" y="0" name="_digit"/>
  <outline>
    <contour>
      <point x="361" y="441" type="curve" smooth="yes"/>
      <point x="361" y="520"/>
      <point x="284" y="592"/>
      <point x="226" y="592" type="curve" smooth="yes"/>
      <point x="185" y="592"/>
      <point x="163" y="573"/>
      <point x="130" y="488" type="curve" smooth="yes"/>
      <point x="99" y="407"/>
      <point x="93" y="378"/>
      <point x="93" y="347" type="curve" smooth="yes"/>
      <point x="93" y="283"/>
      <point x="160" y="248"/>
      <point x="205" y="248" type="curve" smooth="yes"/>
      <point x="243" y="248"/>
      <point x="287" y="269"/>
      <point x="304" y="289" type="curve" smooth="yes"/>
      <point x="326" y="314"/>
      <point x="361" y="370"/>
    </contour>
    <contour>
      <point x="329" y="388" type="curve" smooth="yes"/>
      <point x="329" y="373"/>
      <point x="318" y="341"/>
      <point x="243" y="341" type="curve" smooth="yes"/>
      <point x="177" y="341"/>
      <point x="130" y="361"/>
      <point x="130" y="402" type="curve" smooth="yes"/>
      <point x="130" y="430"/>
      <point x="157" y="517"/>
      <point x="188" y="517" type="curve" smooth="yes"/>
      <point x="237" y="517"/>
      <point x="329" y="413"/>
    </contour>
  </outline>
</glyph>
<glyph name="absHehFin.knottedHigh" format="2">
  <advance width="804"/>
  <anchor x="360" y="808" name="diaA"/>
  <anchor x="300" y="-195" name="diaB"/>
  <anchor x="354" y="587" name="above"/>
  <anchor x="342" y="-125" name="below"/>
  <anchor x="176" y="684" name="alef"/>
  <outline>
    <contour>
      <point x="870" y="63" type="curve" smooth="yes"/>
      <point x="870" y="94"/>
      <point x="865" y="125"/>
      <point x="815" y="125" type="curve" smooth="yes"/>
      <point x="778" y="125" type="line" smooth="yes"/>
      <point x="729" y="125"/>
      <point x="714" y="131"/>
      <point x="703" y="146" type="curve" smooth="yes"/>
      <point x="693" y="160"/>
      <point x="677" y="208"/>
      <point x="653" y="254" type="curve" smooth="yes"/>
      <point x="582" y="390"/>
      <point x="430" y="526"/>
      <point x="342" y="526" type="curve" smooth="yes"/>
      <point x="293" y="526"/>
      <point x="252" y="444"/>
      <point x="252" y="401" type="curve" smooth="yes"/>
      <point x="252" y="395"/>
      <point x="258" y="385"/>
      <point x="266" y="385" type="curve" smooth="yes"/>
      <point x="279" y="385"/>
      <point x="291" y="385"/>
      <point x="305" y="381" type="curve"/>
      <point x="269" y="334"/>
      <point x="197" y="223"/>
      <point x="197" y="157" type="curve" smooth="yes"/>
      <point x="197" y="135"/>
      <point x="205" y="108"/>
      <point x="250" y="92" type="curve"/>
      <point x="197" y="47"/>
      <point x="121" y="6"/>
      <point x="76" y="6" type="curve" smooth="yes"/>
      <point x="55" y="6"/>
      <point x="25" y="10"/>
      <point x="20" y="10" type="curve" smooth="yes"/>
      <point x="14" y="10"/>
      <point x="2" y="4"/>
      <point x="2" y="-4" type="curve" smooth="yes"/>
      <point x="2" y="-17"/>
      <point x="45" y="-43"/>
      <point x="152" y="-43" type="curve" smooth="yes"/>
      <point x="207" y="-43"/>
      <point x="283" y="2"/>
      <point x="348" y="57" type="curve"/>
      <point x="409" y="34"/>
      <point x="516" y="0"/>
      <point x="596" y="0" type="curve" smooth="yes"/>
      <point x="640" y="0"/>
      <point x="666" y="20"/>
      <point x="680" y="56" type="curve"/>
      <point x="700" y="17"/>
      <point x="728" y="0"/>
      <point x="778" y="0" type="curve" smooth="yes"/>
      <point x="815" y="0" type="line" smooth="yes"/>
      <point x="865" y="0"/>
      <point x="870" y="32"/>
    </contour>
    <contour>
      <point x="651" y="110" type="curve"/>
      <point x="647" y="104"/>
      <point x="641" y="102"/>
      <point x="635" y="102" type="curve" smooth="yes"/>
      <point x="600" y="102"/>
      <point x="453" y="129"/>
      <point x="424" y="141" type="curve"/>
      <point x="457" y="186"/>
      <point x="461" y="241"/>
      <point x="481" y="293" type="curve"/>
      <point x="541" y="266"/>
      <point x="623" y="168"/>
    </contour>
    <contour>
      <point x="424" y="239" type="curve" smooth="yes"/>
      <point x="424" y="215"/>
      <point x="379" y="160"/>
      <point x="354" y="157" type="curve"/>
      <point x="322" y="180"/>
      <point x="264" y="180"/>
      <point x="264" y="223" type="curve" smooth="yes"/>
      <point x="264" y="260"/>
      <point x="324" y="323"/>
      <point x="360" y="323" type="curve" smooth="yes"/>
      <point x="389" y="323"/>
      <point x="424" y="264"/>
    </contour>
  </outline>
</glyph>
<glyph name="absHehMed.knottedHigh" format="2">
  <advance width="762"/>
  <anchor x="295" y="-167" name="diaB"/>
  <anchor x="300" y="855" name="diaA"/>
  <anchor x="294" y="635" name="above"/>
  <anchor x="294" y="-80" name="below"/>
  <anchor x="124" y="704" name="alef"/>
  <outline>
    <contour>
      <point x="830" y="63" type="curve" smooth="yes"/>
      <point x="830" y="94"/>
      <point x="825" y="125"/>
      <point x="775" y="125" type="curve" smooth="yes"/>
      <point x="736" y="125" type="line" smooth="yes"/>
      <point x="623" y="125"/>
      <point x="632" y="188"/>
      <point x="619" y="228" type="curve"/>
      <point x="586" y="376"/>
      <point x="365" y="582"/>
      <point x="271" y="582" type="curve" smooth="yes"/>
      <point x="224" y="582"/>
      <point x="183" y="500"/>
      <point x="183" y="457" type="curve" smooth="yes"/>
      <point x="183" y="451"/>
      <point x="189" y="441"/>
      <point x="197" y="441" type="curve" smooth="yes"/>
      <point x="209" y="441"/>
      <point x="222" y="441"/>
      <point x="236" y="437" type="curve"/>
      <point x="202" y="391"/>
      <point x="127" y="279"/>
      <point x="127" y="213" type="curve" smooth="yes"/>
      <point x="127" y="191"/>
      <point x="142" y="160"/>
      <point x="162" y="150" type="curve"/>
      <point x="121" y="127"/>
      <point x="86" y="125"/>
      <point x="25" y="125" type="curve" smooth="yes"/>
      <point x="-12" y="125" type="line" smooth="yes"/>
      <point x="-62" y="125"/>
      <point x="-67" y="94"/>
      <point x="-67" y="63" type="curve" smooth="yes"/>
      <point x="-67" y="32"/>
      <point x="-62" y="0"/>
      <point x="-12" y="0" type="curve" smooth="yes"/>
      <point x="25" y="0" type="line" smooth="yes"/>
      <point x="129" y="0"/>
      <point x="179" y="64"/>
      <point x="256" y="119" type="curve"/>
      <point x="328" y="97"/>
      <point x="447" y="56"/>
      <point x="525" y="56" type="curve" smooth="yes"/>
      <point x="565" y="56"/>
      <point x="592" y="74"/>
      <point x="607" y="106" type="curve"/>
      <point x="631" y="55"/>
      <point x="671" y="0"/>
      <point x="736" y="0" type="curve" smooth="yes"/>
      <point x="775" y="0" type="line" smooth="yes"/>
      <point x="825" y="0"/>
      <point x="830" y="32"/>
    </contour>
    <contour>
      <point x="582" y="166" type="curve"/>
      <point x="578" y="160"/>
      <point x="572" y="158"/>
      <point x="566" y="158" type="curve" smooth="yes"/>
      <point x="529" y="158"/>
      <point x="383" y="185"/>
      <point x="353" y="197" type="curve"/>
      <point x="386" y="242"/>
      <point x="392" y="297"/>
      <point x="410" y="349" type="curve"/>
      <point x="472" y="322"/>
      <point x="551" y="224"/>
    </contour>
    <contour>
      <point x="355" y="295" type="curve" smooth="yes"/>
      <point x="355" y="271"/>
      <point x="308" y="216"/>
      <point x="283" y="213" type="curve"/>
      <point x="252" y="236"/>
      <point x="195" y="236"/>
      <point x="195" y="279" type="curve" smooth="yes"/>
      <point x="195" y="316"/>
      <point x="252" y="379"/>
      <point x="291" y="379" type="curve" smooth="yes"/>
      <point x="318" y="379"/>
      <point x="355" y="320"/>
    </contour>
  </outline>
</glyph>
<glyph name="absLamIni" format="2">
  <advance width="336"/>
  <anchor x="120" y="1111" name="above"/>
  <anchor x="120" y="-50" name="below"/>
  <anchor x="137" y="691" name="through"/>
  <anchor x="132" y="1156" name="diaA"/>
  <anchor x="100" y="-150" name="diaB"/>
  <anchor x="12" y="784" name="alef"/>
  <outline>
    <contour>
      <point x="249" y="371" type="curve" smooth="yes"/>
      <point x="249" y="484"/>
      <point x="182" y="723"/>
      <point x="182" y="829" type="curve" smooth="yes"/>
      <point x="182" y="893"/>
      <point x="244" y="930"/>
      <point x="244" y="936" type="curve" smooth="yes"/>
      <point x="244" y="942"/>
      <point x="172" y="1061"/>
      <point x="168" y="1061" type="curve" smooth="yes"/>
      <point x="137" y="1061"/>
      <point x="106" y="977"/>
      <point x="106" y="938" type="curve" smooth="yes"/>
      <point x="106" y="788"/>
      <point x="202" y="334"/>
      <point x="202" y="258" type="curve" smooth="yes"/>
      <point x="202" y="172"/>
      <point x="98" y="125"/>
      <point x="25" y="125" type="curve" smooth="yes"/>
      <point x="-12" y="125" type="line" smooth="yes"/>
      <point x="-62" y="125"/>
      <point x="-67" y="94"/>
      <point x="-67" y="63" type="curve" smooth="yes"/>
      <point x="-67" y="32"/>
      <point x="-62" y="0"/>
      <point x="-12" y="0" type="curve" smooth="yes"/>
      <point x="25" y="0" type="line" smooth="yes"/>
      <point x="200" y="0"/>
      <point x="220" y="148"/>
      <point x="233" y="224" type="curve" smooth="yes"/>
      <point x="239" y="263"/>
      <point x="249" y="330"/>
    </contour>
  </outline>
</glyph>
<glyph name="absLamMed.preAlef" format="2">
  <advance width="522"/>
  <anchor x="230" y="1020" name="above"/>
  <anchor x="255" y="-68" name="below"/>
  <anchor x="223" y="644" name="through"/>
  <anchor x="234" y="1112" name="diaA"/>
  <anchor x="250" y="-100" name="diaB"/>
  <anchor x="150" y="250" name="exit"/>
  <anchor x="116" y="796" name="alef"/>
  <outline>
    <contour>
      <point x="589" y="63" type="curve" smooth="yes"/>
      <point x="589" y="94"/>
      <point x="584" y="125"/>
      <point x="534" y="125" type="curve" smooth="yes"/>
      <point x="497" y="125" type="line" smooth="yes"/>
      <point x="444" y="125"/>
      <point x="413" y="182"/>
      <point x="390" y="262" type="curve" smooth="yes"/>
      <point x="299" y="580"/>
      <point x="288" y="979"/>
      <point x="276" y="979" type="curve" smooth="yes"/>
      <point x="266" y="979"/>
      <point x="227" y="899"/>
      <point x="227" y="848" type="curve" smooth="yes"/>
      <point x="227" y="629"/>
      <point x="212" y="466"/>
      <point x="153" y="305" type="curve" smooth="yes"/>
      <point x="97" y="152"/>
      <point x="56" y="116"/>
      <point x="-72" y="35" type="curve" smooth="yes"/>
      <point x="-193" y="-42"/>
      <point x="-334" y="-96"/>
      <point x="-334" y="-102" type="curve" smooth="yes"/>
      <point x="-334" y="-111"/>
      <point x="-330" y="-119"/>
      <point x="-324" y="-119" type="curve" smooth="yes"/>
      <point x="-279" y="-119"/>
      <point x="-17" y="-57"/>
      <point x="35" y="-4" type="curve" smooth="yes"/>
      <point x="172" y="133"/>
      <point x="207" y="272"/>
      <point x="268" y="578" type="curve"/>
      <point x="286" y="432"/>
      <point x="309" y="274"/>
      <point x="333" y="170" type="curve" smooth="yes"/>
      <point x="354" y="78"/>
      <point x="372" y="0"/>
      <point x="497" y="0" type="curve" smooth="yes"/>
      <point x="534" y="0" type="line" smooth="yes"/>
      <point x="584" y="0"/>
      <point x="589" y="32"/>
    </contour>
  </outline>
</glyph>
<glyph name="absNumberSign.3" format="2">
  <advance width="1816"/>
  <anchor x="115" y="0" name="digit"/>
  <outline>
    <contour>
      <point x="1661" y="430" type="curve"/>
      <point x="1685" y="384" type="line"/>
      <point x="1633" y="264"/>
      <point x="1624" y="200"/>
      <point x="1624" y="155" type="curve" smooth="yes"/>
      <point x="1624" y="120"/>
      <point x="1628" y="110"/>
      <point x="1645" y="110" type="curve" smooth="yes"/>
      <point x="1653" y="110"/>
      <point x="1742" y="128"/>
      <point x="1752" y="128" type="curve" smooth="yes"/>
      <point x="1761" y="128"/>
      <point x="1765" y="120"/>
      <point x="1765" y="97" type="curve" smooth="yes"/>
      <point x="1765" y="36"/>
      <point x="1741" y="-5"/>
      <point x="1723" y="-16" type="curve" smooth="yes"/>
      <point x="1711" y="-24"/>
      <point x="1689" y="-28"/>
      <point x="1649" y="-34" type="curve" smooth="yes"/>
      <point x="1565" y="-47"/>
      <point x="1184" y="-56"/>
      <point x="866" y="-56" type="curve" smooth="yes"/>
      <point x="565" y="-56"/>
      <point x="140" y="-49"/>
      <point x="81" y="-36" type="curve" smooth="yes"/>
      <point x="61" y="-32"/>
      <point x="51" y="-17"/>
      <point x="51" y="10" type="curve" smooth="yes"/>
      <point x="51" y="31"/>
      <point x="64" y="44"/>
      <point x="89" y="48" type="curve" smooth="yes"/>
      <point x="156" y="59"/>
      <point x="480" y="64"/>
      <point x="720" y="64" type="curve" smooth="yes"/>
      <point x="849" y="64"/>
      <point x="1451" y="74"/>
      <point x="1485" y="74" type="curve" smooth="yes"/>
      <point x="1505" y="74"/>
      <point x="1515" y="87"/>
      <point x="1515" y="114" type="curve" smooth="yes"/>
      <point x="1515" y="240"/>
      <point x="1607" y="379"/>
    </contour>
  </outline>
</glyph>
<glyph name="absNumberSignAbove.3" format="2">
  <advance width="1560"/>
  <anchor x="80" y="0" name="digit"/>
  <outline>
    <contour>
      <point x="1500" y="1077" type="curve" smooth="yes"/>
      <point x="1500" y="1088"/>
      <point x="1492" y="1099"/>
      <point x="1478" y="1099" type="curve" smooth="yes"/>
      <point x="1473" y="1099"/>
      <point x="1451" y="1082"/>
      <point x="1394" y="1057" type="curve" smooth="yes"/>
      <point x="1292" y="1012"/>
      <point x="1085" y="991"/>
      <point x="919" y="991" type="curve" smooth="yes"/>
      <point x="664" y="991"/>
      <point x="481" y="1091"/>
      <point x="372" y="1128" type="curve" smooth="yes"/>
      <point x="362" y="1131"/>
      <point x="351" y="1134"/>
      <point x="342" y="1134" type="curve" smooth="yes"/>
      <point x="319" y="1134"/>
      <point x="306" y="1117"/>
      <point x="287" y="1070" type="curve" smooth="yes"/>
      <point x="272" y="1035"/>
      <point x="250" y="1023"/>
      <point x="222" y="1023" type="curve" smooth="yes"/>
      <point x="207" y="1023"/>
      <point x="179" y="1026"/>
      <point x="137" y="1026" type="curve" smooth="yes"/>
      <point x="110" y="1026"/>
      <point x="71" y="965"/>
      <point x="30" y="889" type="curve"/>
      <point x="34" y="874"/>
      <point x="40" y="865"/>
      <point x="47" y="863" type="curve"/>
      <point x="51" y="869"/>
      <point x="61" y="878"/>
      <point x="79" y="893" type="curve" smooth="yes"/>
      <point x="110" y="920"/>
      <point x="125" y="929"/>
      <point x="141" y="929" type="curve" smooth="yes"/>
      <point x="151" y="929"/>
      <point x="191" y="921"/>
      <point x="208" y="921" type="curve" smooth="yes"/>
      <point x="298" y="921"/>
      <point x="309" y="1017"/>
      <point x="324" y="1017" type="curve" smooth="yes"/>
      <point x="346" y="1017"/>
      <point x="376" y="1005"/>
      <point x="428" y="984" type="curve" smooth="yes"/>
      <point x="542" y="937"/>
      <point x="709" y="893"/>
      <point x="872" y="893" type="curve" smooth="yes"/>
      <point x="1103" y="893"/>
      <point x="1332" y="957"/>
      <point x="1464" y="1041" type="curve" smooth="yes"/>
      <point x="1480" y="1051"/>
      <point x="1500" y="1065"/>
    </contour>
  </outline>
</glyph>
<glyph name="absSadFin" format="2">
  <advance width="1632"/>
  <anchor x="1001" y="429" name="above"/>
  <anchor x="1133" y="-90" name="below"/>
  <anchor x="501" y="504" name="diaA"/>
  <anchor x="338" y="-602" name="diaB"/>
  <anchor x="392" y="204" name="alef"/>
  <outline>
    <contour>
      <point x="1700" y="63" type="curve" smooth="yes"/>
      <point x="1700" y="94"/>
      <point x="1695" y="125"/>
      <point x="1645" y="125" type="curve" smooth="yes"/>
      <point x="1608" y="125" type="line" smooth="yes"/>
      <point x="1544" y="125"/>
      <point x="1458" y="123"/>
      <point x="1348" y="113" type="curve"/>
      <point x="1466" y="174"/>
      <point x="1536" y="240"/>
      <point x="1536" y="338" type="curve" smooth="yes"/>
      <point x="1536" y="399"/>
      <point x="1489" y="489"/>
      <point x="1409" y="489" type="curve" smooth="yes"/>
      <point x="1219" y="489"/>
      <point x="999" y="258"/>
      <point x="907" y="123" type="curve"/>
      <point x="841" y="123"/>
      <point x="789" y="127"/>
      <point x="764" y="131" type="curve"/>
      <point x="756" y="160"/>
      <point x="743" y="186"/>
      <point x="727" y="209" type="curve"/>
      <point x="717" y="209"/>
      <point x="674" y="117"/>
      <point x="674" y="102" type="curve" smooth="yes"/>
      <point x="674" y="82"/>
      <point x="727" y="35"/>
      <point x="727" y="-90" type="curve" smooth="yes"/>
      <point x="727" y="-188"/>
      <point x="707" y="-250"/>
      <point x="637" y="-297" type="curve" smooth="yes"/>
      <point x="573" y="-340"/>
      <point x="438" y="-365"/>
      <point x="324" y="-365" type="curve" smooth="yes"/>
      <point x="238" y="-365"/>
      <point x="86" y="-322"/>
      <point x="86" y="-190" type="curve" smooth="yes"/>
      <point x="86" y="-82"/>
      <point x="156" y="2"/>
      <point x="156" y="18" type="curve" smooth="yes"/>
      <point x="156" y="23"/>
      <point x="150" y="29"/>
      <point x="143" y="29" type="curve" smooth="yes"/>
      <point x="129" y="29"/>
      <point x="29" y="-117"/>
      <point x="29" y="-246" type="curve" smooth="yes"/>
      <point x="29" y="-377"/>
      <point x="125" y="-492"/>
      <point x="281" y="-492" type="curve" smooth="yes"/>
      <point x="467" y="-492"/>
      <point x="705" y="-438"/>
      <point x="762" y="-158" type="curve" smooth="yes"/>
      <point x="776" y="-88"/>
      <point x="780" y="-64"/>
      <point x="780" y="16" type="curve"/>
      <point x="793" y="10"/>
      <point x="840" y="2"/>
      <point x="858" y="2" type="curve"/>
      <point x="844" y="-33"/>
      <point x="825" y="-88"/>
      <point x="825" y="-96" type="curve" smooth="yes"/>
      <point x="825" y="-109"/>
      <point x="842" y="-141"/>
      <point x="852" y="-141" type="curve" smooth="yes"/>
      <point x="856" y="-141"/>
      <point x="874" y="-53"/>
      <point x="901" y="0" type="curve"/>
      <point x="978" y="1"/>
      <point x="1057" y="2"/>
      <point x="1136" y="2" type="curve"/>
      <point x="1294" y="2"/>
      <point x="1453" y="0"/>
      <point x="1608" y="0" type="curve" smooth="yes"/>
      <point x="1645" y="0" type="line" smooth="yes"/>
      <point x="1695" y="0"/>
      <point x="1700" y="32"/>
    </contour>
    <contour>
      <point x="1458" y="272" type="curve" smooth="yes"/>
      <point x="1458" y="227"/>
      <point x="1178" y="125"/>
      <point x="967" y="125" type="curve"/>
      <point x="1067" y="274"/>
      <point x="1206" y="340"/>
      <point x="1323" y="340" type="curve" smooth="yes"/>
      <point x="1341" y="340"/>
      <point x="1458" y="313"/>
    </contour>
  </outline>
</glyph>
<glyph name="absSeenFin" format="2">
  <advance width="1407"/>
  <anchor x="969" y="333" name="above"/>
  <anchor x="1036" y="-65" name="below"/>
  <anchor x="501" y="450" name="diaA"/>
  <anchor x="338" y="-602" name="diaB"/>
  <anchor x="380" y="264" name="alef"/>
  <outline>
    <contour>
      <point x="1474" y="63" type="curve" smooth="yes"/>
      <point x="1474" y="94"/>
      <point x="1469" y="125"/>
      <point x="1419" y="125" type="curve" smooth="yes"/>
      <point x="1382" y="125" type="line" smooth="yes"/>
      <point x="1298" y="125"/>
      <point x="1255" y="225"/>
      <point x="1241" y="262" type="curve" smooth="yes"/>
      <point x="1235" y="279"/>
      <point x="1233" y="285"/>
      <point x="1225" y="285" type="curve" smooth="yes"/>
      <point x="1210" y="285"/>
      <point x="1192" y="170"/>
      <point x="1096" y="170" type="curve" smooth="yes"/>
      <point x="1030" y="170"/>
      <point x="1016" y="217"/>
      <point x="1016" y="254" type="curve" smooth="yes"/>
      <point x="1016" y="274"/>
      <point x="1006" y="281"/>
      <point x="1001" y="281" type="curve" smooth="yes"/>
      <point x="983" y="281"/>
      <point x="944" y="131"/>
      <point x="764" y="131" type="curve"/>
      <point x="756" y="160"/>
      <point x="743" y="186"/>
      <point x="727" y="209" type="curve"/>
      <point x="717" y="209"/>
      <point x="674" y="117"/>
      <point x="674" y="102" type="curve" smooth="yes"/>
      <point x="674" y="82"/>
      <point x="727" y="35"/>
      <point x="727" y="-90" type="curve" smooth="yes"/>
      <point x="727" y="-188"/>
      <point x="707" y="-250"/>
      <point x="637" y="-297" type="curve" smooth="yes"/>
      <point x="573" y="-340"/>
      <point x="438" y="-365"/>
      <point x="324" y="-365" type="curve" smooth="yes"/>
      <point x="238" y="-365"/>
      <point x="86" y="-322"/>
      <point x="86" y="-190" type="curve" smooth="yes"/>
      <point x="86" y="-82"/>
      <point x="156" y="2"/>
      <point x="156" y="18" type="curve" smooth="yes"/>
      <point x="156" y="23"/>
      <point x="150" y="29"/>
      <point x="143" y="29" type="curve" smooth="yes"/>
      <point x="129" y="29"/>
      <point x="29" y="-117"/>
      <point x="29" y="-246" type="curve" smooth="yes"/>
      <point x="29" y="-377"/>
      <point x="125" y="-492"/>
      <point x="281" y="-492" type="curve" smooth="yes"/>
      <point x="467" y="-492"/>
      <point x="705" y="-438"/>
      <point x="762" y="-158" type="curve" smooth="yes"/>
      <point x="776" y="-88"/>
      <point x="780" y="-59"/>
      <point x="780" y="16" type="curve"/>
      <point x="881" y="16"/>
      <point x="903" y="45"/>
      <point x="954" y="115" type="curve"/>
      <point x="967" y="88"/>
      <point x="979" y="27"/>
      <point x="1069" y="27" type="curve" smooth="yes"/>
      <point x="1145" y="27"/>
      <point x="1184" y="84"/>
      <point x="1221" y="160" type="curve"/>
      <point x="1268" y="57"/>
      <point x="1315" y="0"/>
      <point x="1382" y="0" type="curve" smooth="yes"/>
      <point x="1419" y="0" type="line" smooth="yes"/>
      <point x="1469" y="0"/>
      <point x="1474" y="32"/>
    </contour>
  </outline>
</glyph>
<glyph name="absYehBarreeFin" format="2">
  <advance width="1016"/>
  <anchor x="494" y="45" name="above"/>
  <anchor x="680" y="-787" name="below"/>
  <anchor x="432" y="220" name="diaA"/>
  <anchor x="500" y="-850" name="diaB"/>
  <anchor x="192" y="-101" name="alef"/>
  <outline>
    <contour>
      <point x="1321" y="-610" type="curve" smooth="yes"/>
      <point x="1321" y="-594"/>
      <point x="1321" y="-592"/>
      <point x="1307" y="-592" type="curve" smooth="yes"/>
      <point x="1288" y="-592"/>
      <point x="1030" y="-606"/>
      <point x="895" y="-606" type="curve" smooth="yes"/>
      <point x="582" y="-606"/>
      <point x="395" y="-592"/>
      <point x="188" y="-567" type="curve" smooth="yes"/>
      <point x="150" y="-563"/>
      <point x="104" y="-551"/>
      <point x="104" y="-514" type="curve" smooth="yes"/>
      <point x="104" y="-453"/>
      <point x="279" y="-399"/>
      <point x="330" y="-390" type="curve" smooth="yes"/>
      <point x="431" y="-372"/>
      <point x="525" y="-346"/>
      <point x="565" y="-307" type="curve" smooth="yes"/>
      <point x="639" y="-236"/>
      <point x="692" y="-121"/>
      <point x="778" y="-70" type="curve" smooth="yes"/>
      <point x="844" y="-31"/>
      <point x="924" y="0"/>
      <point x="989" y="0" type="curve" smooth="yes"/>
      <point x="1028" y="0" type="line" smooth="yes"/>
      <point x="1078" y="0"/>
      <point x="1083" y="32"/>
      <point x="1083" y="63" type="curve" smooth="yes"/>
      <point x="1083" y="94"/>
      <point x="1078" y="125"/>
      <point x="1028" y="125" type="curve" smooth="yes"/>
      <point x="989" y="125" type="line" smooth="yes"/>
      <point x="901" y="125"/>
      <point x="817" y="70"/>
      <point x="727" y="-55" type="curve" smooth="yes"/>
      <point x="645" y="-170"/>
      <point x="625" y="-188"/>
      <point x="451" y="-234" type="curve" smooth="yes"/>
      <point x="362" y="-258"/>
      <point x="289" y="-291"/>
      <point x="219" y="-350" type="curve" smooth="yes"/>
      <point x="100" y="-451"/>
      <point x="39" y="-512"/>
      <point x="39" y="-575" type="curve" smooth="yes"/>
      <point x="39" y="-604"/>
      <point x="43" y="-662"/>
      <point x="72" y="-676" type="curve" smooth="yes"/>
      <point x="174" y="-723"/>
      <point x="475" y="-737"/>
      <point x="625" y="-737" type="curve" smooth="yes"/>
      <point x="739" y="-737"/>
      <point x="950" y="-729"/>
      <point x="1030" y="-709" type="curve" smooth="yes"/>
      <point x="1141" y="-682"/>
      <point x="1321" y="-618"/>
    </contour>
  </outline>
</glyph>
<glyph name="absZeroMedium" format="2">
  <advance width="450"/>
  <anchor x="450" y="0" name="digit"/>
  <anchor x="0" y="0" name="_digit"/>
  <outline>
    <contour>
      <point x="281" y="370" type="curve" smooth="yes"/>
      <point x="281" y="378"/>
      <point x="208" y="446"/>
      <point x="196" y="454" type="curve"/>
      <point x="191" y="433"/>
      <point x="171" y="344"/>
      <point x="171" y="330" type="curve" smooth="yes"/>
      <point x="171" y="314"/>
      <point x="245" y="260"/>
      <point x="259" y="254" type="curve"/>
      <point x="262" y="272"/>
      <point x="281" y="364"/>
    </contour>
  </outline>
</glyph>
<glyph name="eightSmall" format="2">
  <advance width="319"/>
  <anchor x="319" y="0" name="digit"/>
  <anchor x="0" y="0" name="_digit"/>
  <outline>
    <contour>
      <point x="283" y="300" type="curve" smooth="yes"/>
      <point x="283" y="361"/>
      <point x="229" y="402"/>
      <point x="186" y="435" type="curve"/>
      <point x="223" y="458"/>
      <point x="274" y="490"/>
      <point x="274" y="542" type="curve" smooth="yes"/>
      <point x="274" y="603"/>
      <point x="213" y="634"/>
      <point x="160" y="634" type="curve" smooth="yes"/>
      <point x="100" y="634"/>
      <point x="43" y="597"/>
      <point x="43" y="531" type="curve" smooth="yes"/>
      <point x="43" y="476"/>
      <point x="86" y="445"/>
      <point x="123" y="412" type="curve"/>
      <point x="86" y="388"/>
      <point x="39" y="347"/>
      <point x="39" y="296" type="curve" smooth="yes"/>
      <point x="39" y="230"/>
      <point x="100" y="193"/>
      <point x="160" y="193" type="curve" smooth="yes"/>
      <point x="225" y="193"/>
      <point x="283" y="228"/>
    </contour>
    <contour>
      <point x="229" y="546" type="curve" smooth="yes"/>
      <point x="229" y="499"/>
      <point x="205" y="476"/>
      <point x="172" y="447" type="curve"/>
      <point x="139" y="474"/>
      <point x="90" y="505"/>
      <point x="90" y="552" type="curve" smooth="yes"/>
      <point x="90" y="593"/>
      <point x="123" y="613"/>
      <point x="160" y="613" type="curve" smooth="yes"/>
      <point x="207" y="613"/>
      <point x="229" y="591"/>
    </contour>
    <contour>
      <point x="240" y="275" type="curve" smooth="yes"/>
      <point x="240" y="232"/>
      <point x="205" y="210"/>
      <point x="164" y="210" type="curve" smooth="yes"/>
      <point x="113" y="210"/>
      <point x="86" y="251"/>
      <point x="86" y="298" type="curve" smooth="yes"/>
      <point x="86" y="341"/>
      <point x="106" y="376"/>
      <point x="137" y="402" type="curve"/>
      <point x="176" y="369"/>
      <point x="240" y="329"/>
    </contour>
  </outline>
</glyph>
<glyph name="fourMedium" format="2">
  <advance width="450"/>
  <anchor x="450" y="0" name="digit"/>
  <anchor x="0" y="0" name="_digit"/>
  <outline>
    <contour>
      <point x="419" y="300" type="line"/>
      <point x="419" y="364" type="line"/>
      <point x="341" y="364" type="line"/>
      <point x="341" y="754" type="line"/>
      <point x="292" y="754" type="line"/>
      <point x="14" y="356" type="line"/>
      <point x="14" y="300" type="line"/>
      <point x="268" y="300" type="line"/>
      <point x="268" y="142" type="line"/>
      <point x="341" y="142" type="line"/>
      <point x="341" y="300" type="line"/>
    </contour>
    <contour>
      <point x="268" y="364" type="line"/>
      <point x="58" y="364" type="line"/>
      <point x="268" y="658" type="line"/>
    </contour>
  </outline>
</glyph>
<glyph name="radical.rtl" format="2">
  <advance width="907"/>
  <outline>
    <contour>
      <point x="876" y="570" type="line"/>
      <point x="691" y="663" type="line"/>
      <point x="384" y="62" type="line"/>
      <point x="126" y="1004" type="line"/>
      <point x="0" y="1004" type="line"/>
      <point x="0" y="956" type="line"/>
      <point x="79" y="956" type="line"/>
      <point x="365" y="-100" type="line"/>
      <point x="412" y="-100" type="line"/>
      <point x="753" y="571" type="line"/>
      <point x="850" y="523" type="line"/>
    </contour>
  </outline>
</glyph>
<glyph name="sevenMedium" format="2">
  <advance width="450"/>
  <anchor x="450" y="0" name="digit"/>
  <anchor x="0" y="0" name="_digit"/>
  <outline>
    <contour>
      <point x="411" y="725" type="line"/>
      <point x="411" y="739" type="line"/>
      <point x="93" y="739" type="line"/>
      <point x="33" y="598" type="line"/>
      <point x="47" y="595" type="line"/>
      <point x="81" y="655"/>
      <point x="107" y="667"/>
      <point x="177" y="667" type="curve" smooth="yes"/>
      <point x="341" y="667" type="line"/>
      <point x="163" y="130" type="line"/>
      <point x="212" y="130" type="line"/>
    </contour>
  </outline>
</glyph>
<glyph name="zeroSmall" format="2">
  <advance width="319"/>
  <anchor x="319" y="0" name="digit"/>
  <anchor x="0" y="0" name="_digit"/>
  <outline>
    <contour>
      <point x="297" y="415" type="curve" smooth="yes"/>
      <point x="297" y="496"/>
      <point x="264" y="634"/>
      <point x="162" y="634" type="curve" smooth="yes"/>
      <point x="57" y="634"/>
      <point x="23" y="490"/>
      <point x="23" y="408" type="curve" smooth="yes"/>
      <point x="23" y="331"/>
      <point x="57" y="193"/>
      <point x="158" y="193" type="curve" smooth="yes"/>
      <point x="264" y="193"/>
      <point x="297" y="331"/>
    </contour>
    <contour>
      <point x="236" y="421" type="curve" smooth="yes"/>
      <point x="236" y="366"/>
      <point x="234" y="212"/>
      <point x="160" y="212" type="curve" smooth="yes"/>
      <point x="88" y="212"/>
      <point x="84" y="353"/>
      <point x="84" y="402" type="curve" smooth="yes"/>
      <point x="84" y="449"/>
      <point x="88" y="613"/>
      <point x="160" y="613" type="curve" smooth="yes"/>
      <point x="233" y="613"/>
      <point x="236" y="463"/>
    </contour>
  </outline>
</glyph>
